<svg xmlns="http://www.w3.org/2000/svg" width="81" height="80" viewBox="0 0 81 80" fill="none">
    <rect x="0.666748" width="80" height="80" rx="5" fill="white"/>
    <path d="M64.1338 25.3564H44.3337V21.3324C44.3337 20.9791 44.1933 20.6401 43.9434 20.3903C43.6935 20.1404 43.3546 20 43.0012 20H37.2984C36.945 20 36.6061 20.1404 36.3562 20.3903C36.1063 20.6401 35.9659 20.9791 35.9659 21.3324V25.3564H16.1658C15.8124 25.3564 15.4735 25.4968 15.2236 25.7467C14.9738 25.9966 14.8334 26.3355 14.8334 26.6889V58.6676C14.8334 59.0209 14.9738 59.3599 15.2236 59.6097C15.4735 59.8596 15.8124 60 16.1658 60H64.1338C64.4872 60 64.8261 59.8596 65.076 59.6097C65.3259 59.3599 65.4663 59.0209 65.4663 58.6676V26.6889C65.4663 26.3355 65.3259 25.9966 65.076 25.7467C64.8261 25.4968 64.4872 25.3564 64.1338 25.3564ZM38.6308 22.6915H41.6688V25.3564H38.6308V22.6915ZM62.8014 57.3351H17.4983V28.0213H62.8014V57.3351ZM29.4903 41.3458C30.5444 41.3458 31.5748 41.0332 32.4513 40.4475C33.3278 39.8619 34.0109 39.0295 34.4143 38.0556C34.8177 37.0817 34.9233 36.0101 34.7176 34.9762C34.512 33.9423 34.0044 32.9927 33.259 32.2473C32.5136 31.5019 31.5639 30.9943 30.53 30.7886C29.4962 30.583 28.4245 30.6885 27.4506 31.0919C26.4768 31.4953 25.6444 32.1784 25.0587 33.0549C24.4731 33.9314 24.1605 34.9619 24.1605 36.016C24.1605 37.4295 24.722 38.7852 25.7215 39.7847C26.7211 40.7842 28.0767 41.3458 29.4903 41.3458ZM29.4903 33.3511C30.0173 33.3511 30.5326 33.5074 30.9708 33.8002C31.409 34.093 31.7506 34.5092 31.9523 34.9962C32.154 35.4831 32.2068 36.0189 32.1039 36.5359C32.0011 37.0528 31.7473 37.5277 31.3746 37.9004C31.0019 38.273 30.5271 38.5268 30.0102 38.6297C29.4932 38.7325 28.9574 38.6797 28.4705 38.478C27.9835 38.2763 27.5673 37.9348 27.2745 37.4965C26.9817 37.0583 26.8254 36.5431 26.8254 36.016C26.8254 35.3092 27.1061 34.6314 27.6059 34.1316C28.1057 33.6319 28.7835 33.3511 29.4903 33.3511ZM29.4903 42.6782C27.7255 42.6852 26.035 43.3894 24.7871 44.6373C23.5392 45.8852 22.8351 47.5757 22.828 49.3404V53.3378C22.828 53.6912 22.9684 54.0301 23.2183 54.28C23.4682 54.5298 23.8071 54.6702 24.1605 54.6702H34.82C35.1734 54.6702 35.5123 54.5298 35.7622 54.28C36.0121 54.0301 36.1525 53.6912 36.1525 53.3378V49.3404C36.1455 47.5757 35.4413 45.8852 34.1934 44.6373C32.9455 43.3894 31.255 42.6852 29.4903 42.6782ZM33.4876 52.0053H25.4929V49.3404C25.4929 48.2803 25.9141 47.2635 26.6637 46.5139C27.4134 45.7643 28.4301 45.3431 29.4903 45.3431C30.5504 45.3431 31.5672 45.7643 32.3168 46.5139C33.0664 47.2635 33.4876 48.2803 33.4876 49.3404V52.0053ZM57.4716 50.6729C57.4716 51.0263 57.3312 51.3652 57.0813 51.6151C56.8314 51.8649 56.4925 52.0053 56.1391 52.0053H42.8147C42.4613 52.0053 42.1224 51.8649 41.8725 51.6151C41.6226 51.3652 41.4823 51.0263 41.4823 50.6729C41.4823 50.3195 41.6226 49.9806 41.8725 49.7307C42.1224 49.4808 42.4613 49.3404 42.8147 49.3404H56.1391C56.4925 49.3404 56.8314 49.4808 57.0813 49.7307C57.3312 49.9806 57.4716 50.3195 57.4716 50.6729ZM57.4716 40.0133C57.4716 40.3667 57.3312 40.7056 57.0813 40.9555C56.8314 41.2054 56.4925 41.3458 56.1391 41.3458H42.8147C42.4613 41.3458 42.1224 41.2054 41.8725 40.9555C41.6226 40.7056 41.4823 40.3667 41.4823 40.0133C41.4823 39.6599 41.6226 39.321 41.8725 39.0711C42.1224 38.8213 42.4613 38.6809 42.8147 38.6809H56.1391C56.4925 38.6809 56.8314 38.8213 57.0813 39.0711C57.3312 39.321 57.4716 39.6599 57.4716 40.0133ZM42.8414 33.3511H56.1658C56.5192 33.3511 56.8581 33.4915 57.108 33.7414C57.3579 33.9912 57.4982 34.3302 57.4982 34.6835C57.4982 35.0369 57.3579 35.3758 57.108 35.6257C56.8581 35.8756 56.5192 36.016 56.1658 36.016H42.8414C42.488 36.016 42.1491 35.8756 41.8992 35.6257C41.6493 35.3758 41.5089 35.0369 41.5089 34.6835C41.5089 34.3302 41.6493 33.9912 41.8992 33.7414C42.1491 33.4915 42.488 33.3511 42.8414 33.3511Z" fill="black"/>
</svg>
