<svg xmlns="http://www.w3.org/2000/svg" width="81" height="80" viewBox="0 0 81 80" fill="none">
    <rect x="0.333252" width="80" height="80" rx="5" fill="white"/>
    <path d="M61.5798 60.1353H58.0328V28.212C58.0503 27.9534 57.9806 27.6964 57.8349 27.4821C57.6891 27.2677 57.4757 27.1084 57.2288 27.0297L46.2094 23.4117V18.6823C46.2094 18.3688 46.0848 18.068 45.8631 17.8463C45.6414 17.6246 45.3406 17.5 45.027 17.5H23.7449C23.4314 17.5 23.1306 17.6246 22.9089 17.8463C22.6872 18.068 22.5626 18.3688 22.5626 18.6823V60.1353H19.0156C18.702 60.1353 18.4013 60.2599 18.1796 60.4816C17.9578 60.7033 17.8333 61.0041 17.8333 61.3177C17.8333 61.6312 17.9578 61.932 18.1796 62.1537C18.4013 62.3754 18.702 62.5 19.0156 62.5H61.5798C61.8934 62.5 62.1941 62.3754 62.4158 62.1537C62.6376 61.932 62.7621 61.6312 62.7621 61.3177C62.7621 61.0041 62.6376 60.7033 62.4158 60.4816C62.1941 60.2599 61.8934 60.1353 61.5798 60.1353ZM55.6681 29.0633V60.1353H46.2094V25.8946L55.6681 29.0633ZM33.2037 60.1353V55.4059H35.5683V60.1353H33.2037ZM36.7507 53.0412H32.0213C31.7077 53.0412 31.407 53.1658 31.1853 53.3875C30.9635 53.6093 30.839 53.91 30.839 54.2236V60.1353H24.9273V19.9356H43.8447V60.1353H37.933V54.1526C37.9149 53.8515 37.7824 53.5687 37.5626 53.3621C37.3428 53.1555 37.0523 53.0407 36.7507 53.0412ZM33.1564 47.1295C33.1566 47.4351 33.0386 47.7289 32.827 47.9493C32.6153 48.1697 32.3266 48.2997 32.0213 48.3119H29.6566C29.3431 48.3119 29.0423 48.1873 28.8206 47.9656C28.5989 47.7438 28.4743 47.4431 28.4743 47.1295C28.4743 46.816 28.5989 46.5152 28.8206 46.2935C29.0423 46.0718 29.3431 45.9472 29.6566 45.9472H32.0213C32.3266 45.9594 32.6153 46.0894 32.827 46.3098C33.0386 46.5302 33.1566 46.824 33.1564 47.1295ZM39.2572 48.3119H36.7507C36.4371 48.3119 36.1364 48.1873 35.9146 47.9656C35.6929 47.7438 35.5683 47.4431 35.5683 47.1295C35.5683 46.816 35.6929 46.5152 35.9146 46.2935C36.1364 46.0718 36.4371 45.9472 36.7507 45.9472H39.1154C39.4289 45.9472 39.7297 46.0718 39.9514 46.2935C40.1731 46.5152 40.2977 46.816 40.2977 47.1295C40.2977 47.4431 40.1731 47.7438 39.9514 47.9656C39.7297 48.1873 39.4289 48.3119 39.1154 48.3119H39.2572ZM33.1564 40.0355C33.1566 40.341 33.0386 40.6348 32.827 40.8552C32.6153 41.0756 32.3266 41.2056 32.0213 41.2178H29.6566C29.3431 41.2178 29.0423 41.0932 28.8206 40.8715C28.5989 40.6498 28.4743 40.349 28.4743 40.0355C28.4743 39.7219 28.5989 39.4212 28.8206 39.1994C29.0423 38.9777 29.3431 38.8531 29.6566 38.8531H32.0213C32.3266 38.8653 32.6153 38.9953 32.827 39.2157C33.0386 39.4361 33.1566 39.7299 33.1564 40.0355ZM35.521 40.0355C35.5209 39.8761 35.553 39.7184 35.6153 39.5718C35.6777 39.4252 35.769 39.2927 35.8839 39.1822C35.9987 39.0718 36.1347 38.9857 36.2837 38.9292C36.4326 38.8726 36.5915 38.8468 36.7507 38.8531H39.1154C39.4289 38.8531 39.7297 38.9777 39.9514 39.1994C40.1731 39.4212 40.2977 39.7219 40.2977 40.0355C40.2977 40.349 40.1731 40.6498 39.9514 40.8715C39.7297 41.0932 39.4289 41.2178 39.1154 41.2178H36.7507C36.4454 41.2056 36.1566 41.0756 35.945 40.8552C35.7334 40.6348 35.6154 40.341 35.6156 40.0355H35.521ZM33.1564 32.9414C33.1566 33.247 33.0386 33.5407 32.827 33.7612C32.6153 33.9816 32.3266 34.1115 32.0213 34.1238H29.6566C29.3431 34.1238 29.0423 33.9992 28.8206 33.7775C28.5989 33.5557 28.4743 33.255 28.4743 32.9414C28.4743 32.6278 28.5989 32.3271 28.8206 32.1054C29.0423 31.8836 29.3431 31.7591 29.6566 31.7591H32.0213C32.3266 31.7713 32.6153 31.9012 32.827 32.1216C33.0386 32.3421 33.1566 32.6359 33.1564 32.9414ZM35.521 32.9414C35.5209 32.7821 35.553 32.6244 35.6153 32.4777C35.6777 32.3311 35.769 32.1986 35.8839 32.0882C35.9987 31.9778 36.1347 31.8917 36.2837 31.8351C36.4326 31.7786 36.5915 31.7527 36.7507 31.7591H39.1154C39.4289 31.7591 39.7297 31.8836 39.9514 32.1054C40.1731 32.3271 40.2977 32.6278 40.2977 32.9414C40.2977 33.255 40.1731 33.5557 39.9514 33.7775C39.7297 33.9992 39.4289 34.1238 39.1154 34.1238H36.7507C36.4454 34.1115 36.1566 33.9816 35.945 33.7612C35.7334 33.5407 35.6154 33.247 35.6156 32.9414H35.521ZM33.1564 25.8473C33.1566 26.1529 33.0386 26.4467 32.827 26.6671C32.6153 26.8875 32.3266 27.0175 32.0213 27.0297H29.6566C29.3431 27.0297 29.0423 26.9051 28.8206 26.6834C28.5989 26.4617 28.4743 26.1609 28.4743 25.8473C28.4743 25.5338 28.5989 25.233 28.8206 25.0113C29.0423 24.7896 29.3431 24.665 29.6566 24.665H32.0213C32.3266 24.6772 32.6153 24.8072 32.827 25.0276C33.0386 25.248 33.1566 25.5418 33.1564 25.8473ZM35.521 25.8473C35.5209 25.688 35.553 25.5303 35.6153 25.3837C35.6777 25.2371 35.769 25.1046 35.8839 24.9941C35.9987 24.8837 36.1347 24.7976 36.2837 24.7411C36.4326 24.6845 36.5915 24.6586 36.7507 24.665H39.1154C39.4289 24.665 39.7297 24.7896 39.9514 25.0113C40.1731 25.233 40.2977 25.5338 40.2977 25.8473C40.2977 26.1609 40.1731 26.4617 39.9514 26.6834C39.7297 26.9051 39.4289 27.0297 39.1154 27.0297H36.7507C36.4454 27.0175 36.1566 26.8875 35.945 26.6671C35.7334 26.4467 35.6154 26.1529 35.6156 25.8473H35.521ZM53.2088 54.2236C53.2088 54.5372 53.0843 54.8379 52.8625 55.0596C52.6408 55.2814 52.3401 55.4059 52.0265 55.4059H49.6618C49.3482 55.4059 49.0475 55.2814 48.8258 55.0596C48.604 54.8379 48.4795 54.5372 48.4795 54.2236C48.4795 53.91 48.604 53.6093 48.8258 53.3875C49.0475 53.1658 49.3482 53.0412 49.6618 53.0412H52.0265C52.1837 53.0284 52.3419 53.0471 52.4918 53.0963C52.6417 53.1455 52.7802 53.2242 52.8992 53.3278C53.0182 53.4314 53.1153 53.5577 53.1847 53.6994C53.2541 53.841 53.2945 53.9951 53.3034 54.1526L53.2088 54.2236ZM48.4795 47.1295C48.4855 46.8178 48.612 46.5206 48.8325 46.3002C49.0529 46.0798 49.3501 45.9532 49.6618 45.9472H52.0265C52.3382 45.9532 52.6354 46.0798 52.8558 46.3002C53.0763 46.5206 53.2028 46.8178 53.2088 47.1295C53.2088 47.4431 53.0843 47.7438 52.8625 47.9656C52.6408 48.1873 52.3401 48.3119 52.0265 48.3119H49.6618C49.3566 48.2877 49.0726 48.146 48.8697 47.9166C48.6669 47.6873 48.5609 47.3882 48.5741 47.0822L48.4795 47.1295ZM48.4795 40.0355C48.4795 39.7219 48.604 39.4212 48.8258 39.1994C49.0475 38.9777 49.3482 38.8531 49.6618 38.8531H52.0265C52.3401 38.8531 52.6408 38.9777 52.8625 39.1994C53.0843 39.4212 53.2088 39.7219 53.2088 40.0355C53.2088 40.349 53.0843 40.6498 52.8625 40.8715C52.6408 41.0932 52.3401 41.2178 52.0265 41.2178H49.6618C49.3649 41.194 49.0879 41.059 48.8863 40.8398C48.6846 40.6206 48.5731 40.3333 48.5741 40.0355H48.4795ZM48.4795 32.9414C48.4795 32.6278 48.604 32.3271 48.8258 32.1054C49.0475 31.8836 49.3482 31.7591 49.6618 31.7591H52.0265C52.3401 31.7591 52.6408 31.8836 52.8625 32.1054C53.0843 32.3271 53.2088 32.6278 53.2088 32.9414C53.2028 33.2531 53.0763 33.5503 52.8558 33.7708C52.6354 33.9912 52.3382 34.1177 52.0265 34.1238H49.6618C49.3747 34.0959 49.1071 33.9661 48.9076 33.7578C48.708 33.5496 48.5897 33.2767 48.5741 32.9887L48.4795 32.9414Z" fill="black"/>
</svg>
