<svg xmlns="http://www.w3.org/2000/svg" width="80" height="80" viewBox="0 0 80 80" fill="none">
    <rect width="80" height="80" rx="5" fill="white"/>
    <path fill-rule="evenodd" clip-rule="evenodd" d="M24.5238 35.5655C24.5238 27.6647 31.3792 21.131 40 21.131C48.6207 21.131 55.4762 27.6647 55.4762 35.5655V54.4643C55.4762 55.1217 56.0093 55.6548 56.6667 55.6548C61.0567 55.6548 65 52.6507 65 48.5119C65 44.7514 61.7448 41.9279 57.8572 41.4431V35.5655C57.8572 26.2073 49.7886 18.75 40 18.75C30.2113 18.75 22.1429 26.2073 22.1429 35.5655V41.4431C18.2551 41.9279 15 44.7514 15 48.5119C15 52.2724 18.2551 55.096 22.1429 55.5807V55.6548C22.1429 56.6372 22.6221 57.52 23.2356 58.1336C23.8491 58.7469 24.7319 59.2262 25.7143 59.2262H31.6667C31.734 59.2262 31.8 59.2207 31.8642 59.2098C32.3498 60.6055 33.677 61.6072 35.2381 61.6072C37.2105 61.6072 38.8095 60.0081 38.8095 58.0357C38.8095 56.0634 37.2105 54.4643 35.2381 54.4643C33.677 54.4643 32.3498 55.466 31.8642 56.8617C31.7999 56.8507 31.734 56.8453 31.6667 56.8453H25.7143C25.5062 56.8453 25.1985 56.7293 24.9192 56.4498C24.6398 56.1705 24.5238 55.8629 24.5238 55.6548V35.5655ZM17.381 48.5119C17.381 46.3629 19.2899 44.2993 22.1429 43.8431V53.1807C19.2899 52.7245 17.381 50.661 17.381 48.5119ZM57.8572 53.1807C60.71 52.7245 62.6191 50.661 62.6191 48.5119C62.6191 46.3629 60.71 44.2993 57.8572 43.8431V53.1807ZM36.4286 58.0357C36.4286 58.6931 35.8955 59.2262 35.2381 59.2262C34.5806 59.2262 34.0476 58.6931 34.0476 58.0357C34.0476 57.3784 34.5806 56.8453 35.2381 56.8453C35.8955 56.8453 36.4286 57.3784 36.4286 58.0357Z" fill="black"/>
</svg>
