<?xml version="1.0" encoding="utf-8"?>
<!-- Generator: Adobe Illustrator 28.1.0, SVG Export Plug-In . SVG Version: 6.00 Build 0)  -->
<svg version="1.1" id="레이어_1" xmlns="http://www.w3.org/2000/svg" xmlns:xlink="http://www.w3.org/1999/xlink" x="0px"
	 y="0px" viewBox="0 0 1440 810" style="enable-background:new 0 0 1440 810;" xml:space="preserve">
<style type="text/css">
	.st0{clip-path:url(#SVGID_00000074443759550331699760000012634619711375271317_);}
	.st1{clip-path:url(#SVGID_00000078753520267753232000000015090538499672386486_);}
	.st2{clip-path:url(#SVGID_00000078753520267753232000000015090538499672386486_);fill:none;stroke:#9E9E9E;stroke-width:1.125;}
	.st3{clip-path:url(#SVGID_00000041997252015200778000000010919358574292317324_);}
	.st4{clip-path:url(#SVGID_00000041997252015200778000000010919358574292317324_);fill:none;stroke:#9E9E9E;stroke-width:1.125;}
	.st5{clip-path:url(#SVGID_00000000912501973980870360000002771807032214963640_);}
	.st6{clip-path:url(#SVGID_00000000912501973980870360000002771807032214963640_);fill:none;stroke:#9E9E9E;stroke-width:1.125;}
	.st7{clip-path:url(#SVGID_00000021077270815525704310000007731445749641610171_);}
	.st8{clip-path:url(#SVGID_00000021077270815525704310000007731445749641610171_);fill:none;stroke:#9E9E9E;stroke-width:1.125;}
	.st9{clip-path:url(#SVGID_00000083800703429016276560000012089242976681905597_);}
	.st10{clip-path:url(#SVGID_00000083800703429016276560000012089242976681905597_);fill:none;stroke:#9E9E9E;stroke-width:1.125;}
	.st11{clip-path:url(#SVGID_00000074443759550331699760000012634619711375271317_);fill:#FFFFFF;}
	.st12{clip-path:url(#SVGID_00000144329686697214459220000018434563942349492864_);}
	.st13{clip-path:url(#SVGID_00000144329686697214459220000018434563942349492864_);fill:none;stroke:#9E9E9E;stroke-width:1.125;}
	.st14{clip-path:url(#SVGID_00000041281199513561921200000012616223247437124491_);}
	.st15{clip-path:url(#SVGID_00000041281199513561921200000012616223247437124491_);fill:none;stroke:#9E9E9E;stroke-width:1.125;}
	.st16{clip-path:url(#SVGID_00000076585972703721274120000011089849171833532585_);}
	.st17{clip-path:url(#SVGID_00000076585972703721274120000011089849171833532585_);fill:none;stroke:#9E9E9E;stroke-width:1.125;}
	.st18{clip-path:url(#SVGID_00000162310567065385616640000003781042987586993586_);}
	.st19{clip-path:url(#SVGID_00000162310567065385616640000003781042987586993586_);fill:none;stroke:#9E9E9E;stroke-width:1.125;}
	.st20{filter:url(#Adobe_OpacityMaskFilter);}
	.st21{clip-path:url(#SVGID_00000100375484183585315960000006807875643517819800_);fill:#FFFFFF;}
	
		.st22{clip-path:url(#SVGID_00000100375484183585315960000006807875643517819800_);mask:url(#SVGID_00000150820078439551762810000014008037355084251831_);enable-background:new    ;}
	.st23{clip-path:url(#SVGID_00000107581094193725675180000015380970133660886430_);fill:#5C5C5C;}
	.st24{filter:url(#Adobe_OpacityMaskFilter_00000061445810486519575490000013311979749164094386_);}
	.st25{clip-path:url(#SVGID_00000134251778975931826050000008170676674049840018_);fill:#FFFFFF;}
	
		.st26{clip-path:url(#SVGID_00000134251778975931826050000008170676674049840018_);mask:url(#SVGID_00000080893155840363918080000005358421458998049429_);enable-background:new    ;}
	.st27{clip-path:url(#SVGID_00000147178740998158678870000003192855298530477956_);fill:#5C5C5C;}
	.st28{filter:url(#Adobe_OpacityMaskFilter_00000072985790696549797810000013529088111079158193_);}
	.st29{clip-path:url(#SVGID_00000165208002687499246360000007513012029387324351_);fill:#FFFFFF;}
	
		.st30{clip-path:url(#SVGID_00000165208002687499246360000007513012029387324351_);mask:url(#SVGID_00000145016420925222243320000000486828097159209383_);enable-background:new    ;}
	.st31{clip-path:url(#SVGID_00000032643235691629578370000015662373392833281712_);fill:#5C5C5C;}
	.st32{clip-path:url(#SVGID_00000107564290579163176610000017669115686956002177_);}
	.st33{clip-path:url(#SVGID_00000107564290579163176610000017669115686956002177_);fill:none;stroke:#9E9E9E;stroke-width:1.125;}
	.st34{clip-path:url(#SVGID_00000082332552742511022310000014793052301489107620_);}
	.st35{clip-path:url(#SVGID_00000082332552742511022310000014793052301489107620_);fill:none;stroke:#9E9E9E;stroke-width:1.125;}
	.st36{filter:url(#Adobe_OpacityMaskFilter_00000088125452309296992830000000860845575387623588_);}
	.st37{clip-path:url(#SVGID_00000147200386177430681220000001101020215858694066_);fill:#FFFFFF;}
	
		.st38{clip-path:url(#SVGID_00000147200386177430681220000001101020215858694066_);mask:url(#SVGID_00000165925841682488182940000011582678099821935791_);enable-background:new    ;}
	.st39{clip-path:url(#SVGID_00000017489090629304120720000017979936944348227473_);fill:#25630B;}
	.st40{filter:url(#Adobe_OpacityMaskFilter_00000018238942311157525900000007678505642498128522_);}
	.st41{clip-path:url(#SVGID_00000029045529208192083860000004589098188009033643_);fill:#FFFFFF;}
	
		.st42{clip-path:url(#SVGID_00000029045529208192083860000004589098188009033643_);mask:url(#SVGID_00000013888078877274483100000017678788289059884952_);enable-background:new    ;}
	.st43{clip-path:url(#SVGID_00000139286651528035704470000013805300327277617087_);fill:#25630B;}
	.st44{filter:url(#Adobe_OpacityMaskFilter_00000097480369558085343180000010346745060514370194_);}
	.st45{clip-path:url(#SVGID_00000117669419963437783330000003712006729851587518_);fill:#FFFFFF;}
	
		.st46{clip-path:url(#SVGID_00000117669419963437783330000003712006729851587518_);mask:url(#SVGID_00000150809901628795645920000014804729962207586180_);enable-background:new    ;}
	.st47{clip-path:url(#SVGID_00000046300005059882583430000000124293260070908824_);fill:#DDDDDD;}
	.st48{filter:url(#Adobe_OpacityMaskFilter_00000006671002176424933230000011853724852476457347_);}
	.st49{clip-path:url(#SVGID_00000129203969603439246970000014543939311072750997_);fill:#FFFFFF;}
	
		.st50{clip-path:url(#SVGID_00000129203969603439246970000014543939311072750997_);mask:url(#SVGID_00000111897218528669793160000012787030907080727945_);enable-background:new    ;}
	.st51{clip-path:url(#SVGID_00000012458134166942419830000006683870076042967205_);fill:#DDDDDD;}
	.st52{filter:url(#Adobe_OpacityMaskFilter_00000048493250648949414720000016276532242619204779_);}
	.st53{clip-path:url(#SVGID_00000018217692734485673940000013971230346825671609_);fill:#FFFFFF;}
	
		.st54{clip-path:url(#SVGID_00000018217692734485673940000013971230346825671609_);mask:url(#SVGID_00000131360024357804748730000016924708596258317747_);enable-background:new    ;}
	.st55{clip-path:url(#SVGID_00000164504658786305631780000009719889902340008588_);fill:#5C5C5C;}
	.st56{filter:url(#Adobe_OpacityMaskFilter_00000115492657844843289970000013800869695482666648_);}
	.st57{clip-path:url(#SVGID_00000169535537779356385360000002851312993254919055_);fill:#FFFFFF;}
	
		.st58{clip-path:url(#SVGID_00000169535537779356385360000002851312993254919055_);mask:url(#SVGID_00000147187951689004787950000004077084188788993192_);enable-background:new    ;}
	.st59{clip-path:url(#SVGID_00000110461436445212430060000001774601595965912250_);fill:#62AE41;}
	.st60{filter:url(#Adobe_OpacityMaskFilter_00000180336151591669207220000002931166225745373329_);}
	.st61{clip-path:url(#SVGID_00000125573891761629158760000003290407064431051149_);fill:#FFFFFF;}
	
		.st62{clip-path:url(#SVGID_00000125573891761629158760000003290407064431051149_);mask:url(#SVGID_00000155827994585021836590000014922684212284291489_);enable-background:new    ;}
	.st63{clip-path:url(#SVGID_00000101087270940577796240000013037619352243995791_);fill:#62AE41;}
	.st64{filter:url(#Adobe_OpacityMaskFilter_00000089531776164801497860000001308230317397906572_);}
	.st65{clip-path:url(#SVGID_00000093875235984033225560000012316186993420352914_);fill:#FFFFFF;}
	
		.st66{clip-path:url(#SVGID_00000093875235984033225560000012316186993420352914_);mask:url(#SVGID_00000038378395997301646640000010749386364233784248_);enable-background:new    ;}
	.st67{clip-path:url(#SVGID_00000041295044732140960430000011037585502194811540_);fill:#D0F4AE;}
	.st68{filter:url(#Adobe_OpacityMaskFilter_00000084530644722893757270000010664762752731524531_);}
	.st69{clip-path:url(#SVGID_00000060712368338642757390000007281521176602052029_);fill:#FFFFFF;}
	
		.st70{clip-path:url(#SVGID_00000060712368338642757390000007281521176602052029_);mask:url(#SVGID_00000077282723117052546150000008361529864053542302_);enable-background:new    ;}
	.st71{clip-path:url(#SVGID_00000047761837983717213280000012884942374507632524_);fill:#D0F4AE;}
	.st72{filter:url(#Adobe_OpacityMaskFilter_00000168815990496894888120000016242419693751741108_);}
	.st73{clip-path:url(#SVGID_00000070098580061261408050000009829287501372628663_);fill:#FFFFFF;}
	
		.st74{clip-path:url(#SVGID_00000070098580061261408050000009829287501372628663_);mask:url(#SVGID_00000096780299194383280080000016542887872965292164_);enable-background:new    ;}
	.st75{clip-path:url(#SVGID_00000004507517997969010590000018065458131940468113_);fill:#2136A6;}
	.st76{filter:url(#Adobe_OpacityMaskFilter_00000026875659505252414910000002495391544577049251_);}
	.st77{clip-path:url(#SVGID_00000155851974662317707920000006295648319181724066_);fill:#FFFFFF;}
	
		.st78{clip-path:url(#SVGID_00000155851974662317707920000006295648319181724066_);mask:url(#SVGID_00000130634593564641240720000004652673325300989879_);enable-background:new    ;}
	.st79{clip-path:url(#SVGID_00000019648331827067481430000000226704192596618677_);fill:#2136A6;}
</style>
<g>
	<defs>
		<rect id="SVGID_1_" width="1440" height="810"/>
	</defs>
	<clipPath id="SVGID_00000165234158573211421500000016130665970449910968_">
		<use xlink:href="#SVGID_1_"  style="overflow:visible;"/>
	</clipPath>
	<g style="clip-path:url(#SVGID_00000165234158573211421500000016130665970449910968_);">
		<defs>
			<rect id="SVGID_00000171690947085427717350000007447535837263707550_" x="355.27" y="367.48" width="1.12" height="149.14"/>
		</defs>
		<clipPath id="SVGID_00000153680464764375182920000014006672011006726063_">
			<use xlink:href="#SVGID_00000171690947085427717350000007447535837263707550_"  style="overflow:visible;"/>
		</clipPath>
		<g style="clip-path:url(#SVGID_00000153680464764375182920000014006672011006726063_);">
			<defs>
				<rect id="SVGID_00000021080273002424944090000007676212688437484438_" x="355.27" y="367.48" width="1.12" height="1.12"/>
			</defs>
			<clipPath id="SVGID_00000072997775476778168960000002645052931404388737_">
				<use xlink:href="#SVGID_00000021080273002424944090000007676212688437484438_"  style="overflow:visible;"/>
			</clipPath>
		</g>
		<g style="clip-path:url(#SVGID_00000153680464764375182920000014006672011006726063_);">
			<defs>
				<rect id="SVGID_00000121969222447827656610000008732555234296379031_" x="355.27" y="515.49" width="1.12" height="1.12"/>
			</defs>
			<clipPath id="SVGID_00000159453575360834478280000004416694101447152007_">
				<use xlink:href="#SVGID_00000121969222447827656610000008732555234296379031_"  style="overflow:visible;"/>
			</clipPath>
		</g>
		
			<line style="clip-path:url(#SVGID_00000153680464764375182920000014006672011006726063_);fill:none;stroke:#9E9E9E;stroke-width:1.125;" x1="355.84" y1="367.48" x2="355.84" y2="516.61"/>
	</g>
	<g style="clip-path:url(#SVGID_00000165234158573211421500000016130665970449910968_);">
		<defs>
			
				<rect id="SVGID_00000036940294641096463650000003155360707393653413_" x="728.23" y="-176.46" transform="matrix(1.259073e-03 -1 1 1.259073e-03 457.4851 998.8425)" width="1.13" height="893.71"/>
		</defs>
		<clipPath id="SVGID_00000027578791945296398500000004909909849932351104_">
			<use xlink:href="#SVGID_00000036940294641096463650000003155360707393653413_"  style="overflow:visible;"/>
		</clipPath>
		<g style="clip-path:url(#SVGID_00000027578791945296398500000004909909849932351104_);">
			<defs>
				
					<rect id="SVGID_00000110455295459828514210000002558400797162054584_" x="281.94" y="269.27" transform="matrix(1.247829e-03 -1 1 1.247829e-03 12.3209 551.9934)" width="1.13" height="1.13"/>
			</defs>
			<clipPath id="SVGID_00000116926989005179138730000005541837345123085238_">
				<use xlink:href="#SVGID_00000110455295459828514210000002558400797162054584_"  style="overflow:visible;"/>
			</clipPath>
		</g>
		<g style="clip-path:url(#SVGID_00000027578791945296398500000004909909849932351104_);">
			<defs>
				
					<rect id="SVGID_00000172422582147271810220000016171996997331423650_" x="1174.52" y="270.39" transform="matrix(1.247829e-03 -1 1 1.247829e-03 902.6658 1445.6976)" width="1.13" height="1.13"/>
			</defs>
			<clipPath id="SVGID_00000164479131455415814870000016172117677802290878_">
				<use xlink:href="#SVGID_00000172422582147271810220000016171996997331423650_"  style="overflow:visible;"/>
			</clipPath>
		</g>
		
			<line style="clip-path:url(#SVGID_00000027578791945296398500000004909909849932351104_);fill:none;stroke:#9E9E9E;stroke-width:1.125;" x1="281.94" y1="269.83" x2="1175.65" y2="270.95"/>
	</g>
	<g style="clip-path:url(#SVGID_00000165234158573211421500000016130665970449910968_);">
		<defs>
			<rect id="SVGID_00000121263616101679002150000014318942288607924641_" x="720" y="126.05" width="1.12" height="240.22"/>
		</defs>
		<clipPath id="SVGID_00000141455714342937529290000011139389997888233100_">
			<use xlink:href="#SVGID_00000121263616101679002150000014318942288607924641_"  style="overflow:visible;"/>
		</clipPath>
		<g style="clip-path:url(#SVGID_00000141455714342937529290000011139389997888233100_);">
			<defs>
				<rect id="SVGID_00000108994861792359712110000013837240250179761546_" x="720" y="126.05" width="1.12" height="1.12"/>
			</defs>
			<clipPath id="SVGID_00000152943997380039141110000005334423303148011957_">
				<use xlink:href="#SVGID_00000108994861792359712110000013837240250179761546_"  style="overflow:visible;"/>
			</clipPath>
		</g>
		<g style="clip-path:url(#SVGID_00000141455714342937529290000011139389997888233100_);">
			<defs>
				<rect id="SVGID_00000142161367110692095750000008988925144145574309_" x="720" y="365.14" width="1.12" height="1.12"/>
			</defs>
			<clipPath id="SVGID_00000093142438435724844130000014338223905700124293_">
				<use xlink:href="#SVGID_00000142161367110692095750000008988925144145574309_"  style="overflow:visible;"/>
			</clipPath>
		</g>
		
			<line style="clip-path:url(#SVGID_00000141455714342937529290000011139389997888233100_);fill:none;stroke:#9E9E9E;stroke-width:1.125;" x1="720.56" y1="126.05" x2="720.56" y2="366.26"/>
	</g>
	<g style="clip-path:url(#SVGID_00000165234158573211421500000016130665970449910968_);">
		<defs>
			
				<rect id="SVGID_00000103254781986267994470000015005050823718704301_" x="355.62" y="366.55" transform="matrix(1 -1.114012e-03 1.114012e-03 1 -0.4085 0.7619)" width="656.26" height="1.13"/>
		</defs>
		<clipPath id="SVGID_00000009589437028203806010000009906400255788843967_">
			<use xlink:href="#SVGID_00000103254781986267994470000015005050823718704301_"  style="overflow:visible;"/>
		</clipPath>
		<g style="clip-path:url(#SVGID_00000009589437028203806010000009906400255788843967_);">
			<defs>
				
					<rect id="SVGID_00000024684044406516378690000009559407677802640014_" x="355.62" y="366.92" transform="matrix(1 -1.112196e-03 1.112196e-03 1 -0.4085 0.3964)" width="1.13" height="1.13"/>
			</defs>
			<clipPath id="SVGID_00000138557888414172305830000001664310574505107600_">
				<use xlink:href="#SVGID_00000024684044406516378690000009559407677802640014_"  style="overflow:visible;"/>
			</clipPath>
		</g>
		<g style="clip-path:url(#SVGID_00000009589437028203806010000009906400255788843967_);">
			<defs>
				
					<rect id="SVGID_00000121281307151830474410000001035091790742639799_" x="1010.75" y="366.19" transform="matrix(1 -1.112196e-03 1.112196e-03 1 -0.4073 1.125)" width="1.13" height="1.13"/>
			</defs>
			<clipPath id="SVGID_00000057138785744104007580000010746970081265139122_">
				<use xlink:href="#SVGID_00000121281307151830474410000001035091790742639799_"  style="overflow:visible;"/>
			</clipPath>
		</g>
		
			<line style="clip-path:url(#SVGID_00000009589437028203806010000009906400255788843967_);fill:none;stroke:#9E9E9E;stroke-width:1.125;" x1="355.62" y1="367.48" x2="1011.87" y2="366.75"/>
	</g>
	<g style="clip-path:url(#SVGID_00000165234158573211421500000016130665970449910968_);">
		<defs>
			
				<rect id="SVGID_00000041253079783851228610000005071071367782201520_" x="945.11" y="433.34" transform="matrix(1.766066e-03 -1 1 1.766066e-03 576.0724 1444.8882)" width="133.3" height="1.13"/>
		</defs>
		<clipPath id="SVGID_00000108268201751947079440000015444181816866450332_">
			<use xlink:href="#SVGID_00000041253079783851228610000005071071367782201520_"  style="overflow:visible;"/>
		</clipPath>
		<g style="clip-path:url(#SVGID_00000108268201751947079440000015444181816866450332_);">
			<defs>
				
					<rect id="SVGID_00000128484538525937003770000010627229446695657374_" x="1011.31" y="367.25" transform="matrix(1.790362e-03 -1 1 1.790362e-03 642.2505 1379.0264)" width="1.13" height="1.13"/>
			</defs>
			<clipPath id="SVGID_00000025405241818781935620000012270974809934115970_">
				<use xlink:href="#SVGID_00000128484538525937003770000010627229446695657374_"  style="overflow:visible;"/>
			</clipPath>
		</g>
		<g style="clip-path:url(#SVGID_00000108268201751947079440000015444181816866450332_);">
			<defs>
				
					<rect id="SVGID_00000073693388393727730120000009081685867691681456_" x="1011.08" y="499.42" transform="matrix(1.790362e-03 -1 1 1.790362e-03 509.8452 1510.7289)" width="1.13" height="1.13"/>
			</defs>
			<clipPath id="SVGID_00000070814836967424110040000017977089251165700795_">
				<use xlink:href="#SVGID_00000073693388393727730120000009081685867691681456_"  style="overflow:visible;"/>
			</clipPath>
		</g>
		
			<line style="clip-path:url(#SVGID_00000108268201751947079440000015444181816866450332_);fill:none;stroke:#9E9E9E;stroke-width:1.125;" x1="1011.88" y1="367.25" x2="1011.64" y2="500.55"/>
	</g>
	<path style="clip-path:url(#SVGID_00000165234158573211421500000016130665970449910968_);fill:#FFFFFF;" d="M1278.16,276.36h-11.13
		v2.42h11.13V276.36z M1278.16,274.07v-2.62h2.64v9.61h-16.41v-9.61h2.64v2.62H1278.16z M1265.34,264.06c0,1.16,0.39,2.12,1.06,2.69
		c0.53,0.52,1.28,0.79,2.13,0.79c0.85,0,1.6-0.27,2.15-0.79c0.68-0.57,1.04-1.53,1.04-2.69s-0.36-2.07-1.04-2.69
		c-0.56-0.49-1.31-0.77-2.15-0.77c-0.85,0-1.6,0.27-2.13,0.77C1265.72,261.99,1265.34,262.9,1265.34,264.06z M1262.77,264.06
		c0-2.02,0.75-3.56,1.96-4.54c0.99-0.79,2.3-1.23,3.8-1.23c1.52,0,2.83,0.44,3.8,1.23c0.99,0.79,1.65,1.93,1.86,3.38h3.97v-4.47
		h2.64v11.83h-2.64v-5.06h-3.94c-0.22,1.48-0.9,2.64-1.89,3.41c-0.97,0.81-2.27,1.26-3.8,1.26c-1.5,0-2.81-0.44-3.8-1.26
		C1263.52,267.65,1262.77,266.11,1262.77,264.06z"/>
	<path style="clip-path:url(#SVGID_00000165234158573211421500000016130665970449910968_);fill:#FFFFFF;" d="M1284.83,275.18v-2.37
		h19.48v2.37h-8.47v6.03h-2.61v-6.03H1284.83z M1288.61,267.25h11.93v-6.2h-11.93V267.25z M1303.18,258.71v10.87h-17.21v-10.87
		H1303.18z"/>
	<path style="clip-path:url(#SVGID_00000165234158573211421500000016130665970449910968_);fill:#FFFFFF;" d="M1307.19,275.32v-2.35
		h19.48v2.35h-8.47v5.88h-2.61v-5.88H1307.19z M1322.89,267.89v-3.48h-11.93v3.48H1322.89z M1310.96,262.11h11.93v-3.41h2.64v11.48
		h-17.21v-11.48h2.64V262.11z"/>
	<g style="clip-path:url(#SVGID_00000165234158573211421500000016130665970449910968_);">
		<defs>
			
				<rect id="SVGID_00000046308907432915377850000017524602380853760187_" x="941.85" y="627.44" transform="matrix(5.301993e-03 -1 1 5.301993e-03 370.7437 1628.7175)" width="124.42" height="1.13"/>
		</defs>
		<clipPath id="SVGID_00000162344103787059745320000001932412228742291895_">
			<use xlink:href="#SVGID_00000046308907432915377850000017524602380853760187_"  style="overflow:visible;"/>
		</clipPath>
		<g style="clip-path:url(#SVGID_00000162344103787059745320000001932412228742291895_);">
			<defs>
				
					<rect id="SVGID_00000117659478103908755900000015270246580482683021_" x="1003.82" y="565.79" transform="matrix(5.316837e-03 -1 1 5.316837e-03 432.6991 1567.7167)" width="1.13" height="1.12"/>
			</defs>
			<clipPath id="SVGID_00000170960973929447451700000009860610332621589934_">
				<use xlink:href="#SVGID_00000117659478103908755900000015270246580482683021_"  style="overflow:visible;"/>
			</clipPath>
		</g>
		<g style="clip-path:url(#SVGID_00000162344103787059745320000001932412228742291895_);">
			<defs>
				
					<rect id="SVGID_00000173867876380419630450000018330731574096258998_" x="1003.17" y="689.09" transform="matrix(5.316837e-03 -1 1 5.316837e-03 308.7585 1689.6996)" width="1.13" height="1.13"/>
			</defs>
			<clipPath id="SVGID_00000026132885758051550350000002673907302622054029_">
				<use xlink:href="#SVGID_00000173867876380419630450000018330731574096258998_"  style="overflow:visible;"/>
			</clipPath>
		</g>
		
			<line style="clip-path:url(#SVGID_00000162344103787059745320000001932412228742291895_);fill:none;stroke:#9E9E9E;stroke-width:1.125;" x1="1004.39" y1="565.79" x2="1003.73" y2="690.21"/>
	</g>
	<g style="clip-path:url(#SVGID_00000165234158573211421500000016130665970449910968_);">
		<defs>
			<rect id="SVGID_00000057112452079829942060000013722629554363375000_" x="764.36" y="622.5" width="476.08" height="1.12"/>
		</defs>
		<clipPath id="SVGID_00000123405025760393825210000016954635136262673586_">
			<use xlink:href="#SVGID_00000057112452079829942060000013722629554363375000_"  style="overflow:visible;"/>
		</clipPath>
		<g style="clip-path:url(#SVGID_00000123405025760393825210000016954635136262673586_);">
			<defs>
				<rect id="SVGID_00000155104775272127023090000008133480265313551798_" x="764.36" y="622.5" width="1.12" height="1.12"/>
			</defs>
			<clipPath id="SVGID_00000095317879020031316570000011539581982128287400_">
				<use xlink:href="#SVGID_00000155104775272127023090000008133480265313551798_"  style="overflow:visible;"/>
			</clipPath>
		</g>
		<g style="clip-path:url(#SVGID_00000123405025760393825210000016954635136262673586_);">
			<defs>
				<rect id="SVGID_00000120525198788780869490000002104717550078817687_" x="1239.32" y="622.5" width="1.12" height="1.12"/>
			</defs>
			<clipPath id="SVGID_00000060007264751700312380000007978560285378457250_">
				<use xlink:href="#SVGID_00000120525198788780869490000002104717550078817687_"  style="overflow:visible;"/>
			</clipPath>
		</g>
		
			<line style="clip-path:url(#SVGID_00000123405025760393825210000016954635136262673586_);fill:none;stroke:#9E9E9E;stroke-width:1.125;" x1="764.36" y1="623.06" x2="1240.44" y2="623.06"/>
	</g>
	<g style="clip-path:url(#SVGID_00000165234158573211421500000016130665970449910968_);">
		<defs>
			<rect id="SVGID_00000076597601494992832470000001017713732040837782_" x="763.4" y="622.94" width="1.12" height="92.46"/>
		</defs>
		<clipPath id="SVGID_00000161594252328517044520000015862399796440478092_">
			<use xlink:href="#SVGID_00000076597601494992832470000001017713732040837782_"  style="overflow:visible;"/>
		</clipPath>
		<g style="clip-path:url(#SVGID_00000161594252328517044520000015862399796440478092_);">
			<defs>
				<rect id="SVGID_00000148660856472635252100000005815218478924411067_" x="763.4" y="622.94" width="1.12" height="1.12"/>
			</defs>
			<clipPath id="SVGID_00000166668864877880368810000007545157130435174048_">
				<use xlink:href="#SVGID_00000148660856472635252100000005815218478924411067_"  style="overflow:visible;"/>
			</clipPath>
		</g>
		<g style="clip-path:url(#SVGID_00000161594252328517044520000015862399796440478092_);">
			<defs>
				<rect id="SVGID_00000037653093535078547570000007514084247543550875_" x="763.4" y="714.27" width="1.12" height="1.12"/>
			</defs>
			<clipPath id="SVGID_00000098899142993473195010000008741637330404791681_">
				<use xlink:href="#SVGID_00000037653093535078547570000007514084247543550875_"  style="overflow:visible;"/>
			</clipPath>
		</g>
		
			<line style="clip-path:url(#SVGID_00000161594252328517044520000015862399796440478092_);fill:none;stroke:#9E9E9E;stroke-width:1.125;" x1="763.96" y1="622.94" x2="763.96" y2="715.4"/>
	</g>
	<g style="clip-path:url(#SVGID_00000165234158573211421500000016130665970449910968_);">
		<defs>
			<rect id="SVGID_00000015348928456690484470000000879179473757001356_" x="1240.44" y="623.2" width="1.12" height="89.65"/>
		</defs>
		<clipPath id="SVGID_00000083056590102905275550000014408268572073789579_">
			<use xlink:href="#SVGID_00000015348928456690484470000000879179473757001356_"  style="overflow:visible;"/>
		</clipPath>
		<g style="clip-path:url(#SVGID_00000083056590102905275550000014408268572073789579_);">
			<defs>
				<rect id="SVGID_00000105392709749053180430000005650870619526326673_" x="1240.44" y="623.2" width="1.12" height="1.12"/>
			</defs>
			<clipPath id="SVGID_00000001660992400623028530000011697710193149196184_">
				<use xlink:href="#SVGID_00000105392709749053180430000005650870619526326673_"  style="overflow:visible;"/>
			</clipPath>
		</g>
		<g style="clip-path:url(#SVGID_00000083056590102905275550000014408268572073789579_);">
			<defs>
				<rect id="SVGID_00000177447287702726814940000010760096419420274090_" x="1240.44" y="711.72" width="1.12" height="1.12"/>
			</defs>
			<clipPath id="SVGID_00000048492150880676076480000012328578272215689916_">
				<use xlink:href="#SVGID_00000177447287702726814940000010760096419420274090_"  style="overflow:visible;"/>
			</clipPath>
		</g>
		
			<line style="clip-path:url(#SVGID_00000083056590102905275550000014408268572073789579_);fill:none;stroke:#9E9E9E;stroke-width:1.125;" x1="1241" y1="623.2" x2="1241" y2="712.85"/>
	</g>
	<path style="clip-path:url(#SVGID_00000165234158573211421500000016130665970449910968_);" d="M943.25,538.34v8.18h3.08v2.1h-3.08
		v9.77h-2.36v-20.04H943.25z M932.75,552.04c-0.89,2.3-3.18,4.15-5.67,4.99v-2.21c2.36-1.1,4.48-3.14,4.48-8.73v-7.51h2.34v7.51
		c0,5.59,2.17,7.6,4.5,8.73v2.21C935.91,556.17,933.64,554.31,932.75,552.04z"/>
	<path style="clip-path:url(#SVGID_00000165234158573211421500000016130665970449910968_);" d="M950.87,554.58
		c0,0.55,0.28,1.02,0.8,1.37c0.87,0.6,2.45,0.84,4.46,0.84c1.99,0,3.57-0.24,4.48-0.84c0.5-0.35,0.76-0.82,0.76-1.37
		s-0.26-1.02-0.76-1.37c-0.91-0.57-2.49-0.84-4.48-0.84c-2.01,0-3.6,0.27-4.46,0.84C951.15,553.56,950.87,554.03,950.87,554.58z
		 M948.51,554.58c0-1.22,0.56-2.14,1.45-2.83c1.41-1.02,3.62-1.44,6.17-1.44c2.53,0,4.76,0.42,6.15,1.44
		c0.89,0.69,1.45,1.61,1.45,2.83c0,1.24-0.56,2.17-1.45,2.85c-1.39,1.02-3.62,1.41-6.15,1.41c-2.56,0-4.76-0.4-6.17-1.41
		C949.07,556.74,948.51,555.82,948.51,554.58z M963.26,538.34v4.51h2.86v2.1h-2.86v4.82h-2.36v-11.43H963.26z M947.64,540.66v-2.08
		h10.16v2.08h-3.9v0.75c0,3.4,1.8,5.02,4.24,5.57v2.12c-2.34-0.42-4.35-1.68-5.37-3.38c-1.04,1.72-3.08,3.25-5.48,3.65v-2.14
		c2.51-0.55,4.24-2.34,4.24-5.81v-0.75H947.64z"/>
	<path style="clip-path:url(#SVGID_00000165234158573211421500000016130665970449910968_);" d="M989.23,538.34v20.04h-2.36v-20.04
		H989.23z M973.31,547.82c0-3.62,0.35-6.34,1.6-7.91c0.8-1.02,2.01-1.57,3.47-1.57c1.47,0,2.66,0.55,3.49,1.57
		c1.26,1.57,1.6,4.29,1.6,7.91s-0.35,6.34-1.6,7.91c-0.82,1.02-2.01,1.52-3.49,1.52c-1.45,0-2.66-0.51-3.47-1.52
		C973.66,554.16,973.31,551.44,973.31,547.82z M981.13,547.82c0-3.18-0.22-5.5-1.04-6.56c-0.39-0.55-1-0.84-1.71-0.84
		c-0.69,0-1.3,0.29-1.71,0.84c-0.78,1.06-1.02,3.38-1.02,6.56s0.24,5.5,1.02,6.59c0.41,0.51,1.02,0.8,1.71,0.8
		c0.71,0,1.32-0.29,1.71-0.8C980.91,553.32,981.13,551,981.13,547.82z"/>
	<path style="clip-path:url(#SVGID_00000165234158573211421500000016130665970449910968_);" d="M996.95,555.02v1.61h12.56v1.94
		h-14.92v-5.48h12.32v-1.66h-12.32v-1.94h14.68v5.52H996.95z M1009.28,548.35h-2.36v-3.4h-3.79v-2.08h3.79v-4.53h2.36V548.35z
		 M993.4,542v-2.03h3.9v-2.21h2.34v2.21h3.9V542h-3.83c0.37,2.54,2.04,3.67,4.2,4.11v2.12c-2.38-0.42-4.37-1.55-5.39-3.18
		c-1.02,1.66-3.08,3.05-5.46,3.4v-2.1c2.21-0.44,3.83-1.72,4.18-4.35H993.4z"/>
	<path style="clip-path:url(#SVGID_00000165234158573211421500000016130665970449910968_);" d="M1029.24,538.34v20.04h-2.36v-2.28
		c-0.84,0.82-2.62,1.13-4.79,1.13h-9.14v-2.06h9.75c1.78,0,3.27-0.27,4.18-1.04v-15.8H1029.24z M1013.86,548.28
		c0-1.52,0.65-2.74,1.69-3.56c0.87-0.69,2.04-1.06,3.34-1.06c1.28,0,2.43,0.38,3.29,1.02c1.08,0.8,1.73,2.06,1.73,3.6
		c0,1.59-0.71,2.87-1.88,3.69c-0.84,0.57-1.93,0.91-3.14,0.91s-2.27-0.33-3.12-0.88C1014.6,551.18,1013.86,549.87,1013.86,548.28z
		 M1016.2,548.28c0,0.82,0.35,1.5,0.91,1.99c0.48,0.38,1.08,0.6,1.78,0.6c0.67,0,1.3-0.22,1.78-0.6c0.58-0.46,0.93-1.17,0.93-1.99
		c0-0.8-0.32-1.46-0.82-1.9c-0.48-0.44-1.15-0.71-1.88-0.71c-0.74,0-1.36,0.27-1.86,0.69
		C1016.52,546.82,1016.2,547.49,1016.2,548.28z M1017.67,537.76h2.36v2.45h4.44v2.06h-11.18v-2.06h4.37V537.76z"/>
	<g style="clip-path:url(#SVGID_00000165234158573211421500000016130665970449910968_);">
		<defs>
			<rect id="SVGID_00000023967104238514215050000017908525179941862322_" x="658.45" y="677.26" width="210.38" height="64.12"/>
		</defs>
		<clipPath id="SVGID_00000157296360722090523020000000306330691848101794_">
			<use xlink:href="#SVGID_00000023967104238514215050000017908525179941862322_"  style="overflow:visible;"/>
		</clipPath>
		<defs>
			<filter id="Adobe_OpacityMaskFilter" filterUnits="userSpaceOnUse" x="658.45" y="677.26" width="209.91" height="63.69">
				<feColorMatrix  type="matrix" values="1 0 0 0 0  0 1 0 0 0  0 0 1 0 0  0 0 0 1 0"/>
			</filter>
		</defs>
		
			<mask maskUnits="userSpaceOnUse" x="658.45" y="677.26" width="209.91" height="63.69" id="SVGID_00000132792462396828626420000001377169998047040954_">
			<g class="st20">
				<path style="clip-path:url(#SVGID_00000157296360722090523020000000306330691848101794_);fill:#FFFFFF;" d="M666.41,677.25
					c-2.11,0-4.14,0.84-5.63,2.33s-2.33,3.52-2.33,5.63v47.77c0,2.11,0.84,4.14,2.33,5.63s3.52,2.33,5.63,2.33h193.98
					c2.11,0,4.14-0.84,5.63-2.33s2.33-3.52,2.33-5.63v-47.77c0-2.11-0.84-4.14-2.33-5.63s-3.52-2.33-5.63-2.33H666.41z"/>
			</g>
		</mask>
		
			<g style="clip-path:url(#SVGID_00000157296360722090523020000000306330691848101794_);mask:url(#SVGID_00000132792462396828626420000001377169998047040954_);enable-background:new    ;">
			<g>
				<defs>
					<rect id="SVGID_00000096749530901852776730000018009722166198702487_" x="658.45" y="677.26" width="209.91" height="63.69"/>
				</defs>
				<clipPath id="SVGID_00000024682403917283725250000007838834710086886324_">
					<use xlink:href="#SVGID_00000096749530901852776730000018009722166198702487_"  style="overflow:visible;"/>
				</clipPath>
				<path style="clip-path:url(#SVGID_00000024682403917283725250000007838834710086886324_);fill:#5C5C5C;" d="M666.41,677.26
					c-2.11,0-4.14,0.84-5.63,2.33s-2.33,3.52-2.33,5.63v47.77c0,2.11,0.84,4.14,2.33,5.63s3.52,2.33,5.63,2.33h193.98
					c2.11,0,4.14-0.84,5.63-2.33s2.33-3.52,2.33-5.63v-47.77c0-2.11-0.84-4.14-2.33-5.63s-3.52-2.33-5.63-2.33H666.41z"/>
			</g>
		</g>
	</g>
	<path style="clip-path:url(#SVGID_00000165234158573211421500000016130665970449910968_);fill:#FFFFFF;" d="M727.65,719.07h-16.79
		v-7.61h2.64v5.28h14.16V719.07z M727.26,712.25h-2.64v-8.15h-4.53v-2.3h4.53v-5.24h2.64V712.25z M709.52,699.16v-2.32h11.33v2.32
		h-4.36v2c0,3.83,2.03,5.58,4.77,6.22v2.37c-2.64-0.47-4.89-1.88-6.03-3.78c-1.14,1.93-3.44,3.63-6.1,4.05v-2.37
		c2.78-0.62,4.74-2.62,4.74-6.49v-2H709.52z"/>
	<path style="clip-path:url(#SVGID_00000165234158573211421500000016130665970449910968_);fill:#FFFFFF;" d="M749.57,696.57v22.4
		h-2.64v-22.4H749.57z M739.98,701.81v-2.47h-7.94v-2.37h10.53v4.52c0,8.52-3.1,14.2-10.67,16.17v-2.54
		C737.47,713.46,739.98,708.8,739.98,701.81z"/>
	<path style="clip-path:url(#SVGID_00000165234158573211421500000016130665970449910968_);fill:#FFFFFF;" d="M758.2,715.07v1.95
		h14.04v2.17h-16.67v-6.25h13.77v-2h-13.77v-2.15h16.41v6.27H758.2z M771.97,707.46h-2.64v-5.21h-4.79v-2.3h4.79v-3.38h2.64V707.46z
		 M760.93,696.72v1.68c0,3.85,2.15,5.63,4.91,6.42v2.35c-2.71-0.52-5.06-2.02-6.2-3.88c-1.06,1.93-3.44,3.53-6.22,4.15v-2.35
		c2.83-0.84,4.89-2.94,4.89-6.69v-1.68H760.93z"/>
	<path style="clip-path:url(#SVGID_00000165234158573211421500000016130665970449910968_);fill:#FFFFFF;" d="M794.61,696.57v22.4
		h-2.57v-22.4H794.61z M784.67,704.15c-0.02,1.95-0.22,3.73-0.63,5.31h3.41v-5.31H784.67z M782.08,703.96v-4.62h-5.47v-2.37h8.06
		v4.84h2.78v-5.09h2.52v21.98h-2.52v-6.89h-4.23c-1.28,2.86-3.51,4.89-6.85,5.85v-2.59C779.95,713.78,782.08,710.08,782.08,703.96z"
		/>
	<path style="clip-path:url(#SVGID_00000165234158573211421500000016130665970449910968_);fill:#FFFFFF;" d="M798.35,713.46v-2.35
		h19.48v2.35h-8.47v5.88h-2.61v-5.88H798.35z M814.06,706.03v-3.48h-11.93v3.48H814.06z M802.13,700.25h11.93v-3.41h2.64v11.48
		h-17.21v-11.48h2.64V700.25z"/>
	<g style="clip-path:url(#SVGID_00000165234158573211421500000016130665970449910968_);">
		<defs>
			<rect id="SVGID_00000092450417578161445030000015930282289616370823_" x="898.78" y="677.26" width="210.38" height="64.12"/>
		</defs>
		<clipPath id="SVGID_00000075125981749198862450000000669693923827110043_">
			<use xlink:href="#SVGID_00000092450417578161445030000015930282289616370823_"  style="overflow:visible;"/>
		</clipPath>
		<defs>
			
				<filter id="Adobe_OpacityMaskFilter_00000107573341330453551050000012755053479604138934_" filterUnits="userSpaceOnUse" x="898.78" y="677.26" width="209.91" height="63.69">
				<feColorMatrix  type="matrix" values="1 0 0 0 0  0 1 0 0 0  0 0 1 0 0  0 0 0 1 0"/>
			</filter>
		</defs>
		
			<mask maskUnits="userSpaceOnUse" x="898.78" y="677.26" width="209.91" height="63.69" id="SVGID_00000091015782473358225700000001295496853541160113_">
			<g style="filter:url(#Adobe_OpacityMaskFilter_00000107573341330453551050000012755053479604138934_);">
				<path style="clip-path:url(#SVGID_00000075125981749198862450000000669693923827110043_);fill:#FFFFFF;" d="M906.74,677.25
					c-2.11,0-4.14,0.84-5.63,2.33s-2.33,3.52-2.33,5.63v47.77c0,2.11,0.84,4.14,2.33,5.63s3.52,2.33,5.63,2.33h193.98
					c2.11,0,4.14-0.84,5.63-2.33c1.49-1.49,2.33-3.52,2.33-5.63v-47.77c0-2.11-0.84-4.14-2.33-5.63c-1.49-1.49-3.52-2.33-5.63-2.33
					H906.74z"/>
			</g>
		</mask>
		
			<g style="clip-path:url(#SVGID_00000075125981749198862450000000669693923827110043_);mask:url(#SVGID_00000091015782473358225700000001295496853541160113_);enable-background:new    ;">
			<g>
				<defs>
					<rect id="SVGID_00000000191331722625062450000016452058571402544055_" x="898.78" y="677.26" width="209.91" height="63.69"/>
				</defs>
				<clipPath id="SVGID_00000131367301035338549660000007419595286400350128_">
					<use xlink:href="#SVGID_00000000191331722625062450000016452058571402544055_"  style="overflow:visible;"/>
				</clipPath>
				<path style="clip-path:url(#SVGID_00000131367301035338549660000007419595286400350128_);fill:#5C5C5C;" d="M906.74,677.26
					c-2.11,0-4.14,0.84-5.63,2.33s-2.33,3.52-2.33,5.63v47.77c0,2.11,0.84,4.14,2.33,5.63s3.52,2.33,5.63,2.33h193.98
					c2.11,0,4.14-0.84,5.63-2.33c1.49-1.49,2.33-3.52,2.33-5.63v-47.77c0-2.11-0.84-4.14-2.33-5.63c-1.49-1.49-3.52-2.33-5.63-2.33
					H906.74z"/>
			</g>
		</g>
	</g>
	<path style="clip-path:url(#SVGID_00000165234158573211421500000016130665970449910968_);fill:#FFFFFF;" d="M952.8,715.78
		c0,0.42,0.27,0.74,0.75,0.99c1.02,0.49,2.95,0.69,5.49,0.69c2.54,0,4.45-0.2,5.47-0.69c0.48-0.25,0.77-0.57,0.77-0.99
		c0-0.4-0.29-0.72-0.77-0.94c-1.02-0.52-2.93-0.69-5.47-0.69c-2.54,0-4.48,0.17-5.49,0.69C953.07,715.07,952.8,715.39,952.8,715.78z
		 M950.17,715.78c0-1.28,0.77-2.2,2.06-2.79c1.57-0.74,3.94-1.04,6.82-1.04c2.86,0,5.25,0.3,6.8,1.04c1.31,0.59,2.06,1.51,2.06,2.79
		c0,1.33-0.75,2.22-2.06,2.82c-1.55,0.77-3.94,1.01-6.8,1.01c-2.88,0-5.25-0.25-6.82-1.01
		C950.94,718.01,950.17,717.12,950.17,715.78z M953.19,702.75v1.63h14.4v2.12h-7.31v1.73h8.62v2.2h-19.77v-2.2h8.54v-1.73h-7.09
		v-9.66h16.89v2.15h-14.28v1.65h13.99v2.1H953.19z"/>
	<path style="clip-path:url(#SVGID_00000165234158573211421500000016130665970449910968_);fill:#FFFFFF;" d="M990.33,719.07h-16.79
		v-7.61h2.64v5.28h14.16V719.07z M989.94,712.25h-2.64v-15.68h2.64V712.25z M978.91,696.72v3.83c0,3.88,2.11,5.85,4.91,6.74v2.37
		c-2.76-0.62-5.06-2.17-6.2-4.05c-1.04,1.93-3.36,3.63-6.22,4.32v-2.4c2.88-0.91,4.89-3.21,4.89-6.99v-3.83H978.91z"/>
	<path style="clip-path:url(#SVGID_00000165234158573211421500000016130665970449910968_);fill:#FFFFFF;" d="M998.53,715.07v1.95
		h14.04v2.17h-16.67v-6.25h13.77v-2h-13.77v-2.15h16.41v6.27H998.53z M1012.3,707.46h-2.64v-5.21h-4.79v-2.3h4.79v-3.38h2.64V707.46
		z M1001.26,696.72v1.68c0,3.85,2.15,5.63,4.91,6.42v2.35c-2.71-0.52-5.06-2.02-6.2-3.88c-1.06,1.93-3.44,3.53-6.22,4.15v-2.35
		c2.83-0.84,4.89-2.94,4.89-6.69v-1.68H1001.26z"/>
	<path style="clip-path:url(#SVGID_00000165234158573211421500000016130665970449910968_);fill:#FFFFFF;" d="M1034.94,696.57v22.4
		h-2.57v-22.4H1034.94z M1024.99,704.15c-0.02,1.95-0.22,3.73-0.63,5.31h3.41v-5.31H1024.99z M1022.4,703.96v-4.62h-5.47v-2.37h8.06
		v4.84h2.78v-5.09h2.52v21.98h-2.52v-6.89h-4.23c-1.28,2.86-3.51,4.89-6.85,5.85v-2.59C1020.27,713.78,1022.4,710.08,1022.4,703.96z
		"/>
	<path style="clip-path:url(#SVGID_00000165234158573211421500000016130665970449910968_);fill:#FFFFFF;" d="M1038.68,713.46v-2.35
		h19.48v2.35h-8.47v5.88h-2.61v-5.88H1038.68z M1054.39,706.03v-3.48h-11.93v3.48H1054.39z M1042.46,700.25h11.93v-3.41h2.64v11.48
		h-17.21v-11.48h2.64V700.25z"/>
	<g style="clip-path:url(#SVGID_00000165234158573211421500000016130665970449910968_);">
		<defs>
			<rect id="SVGID_00000080928657212859443020000016053936997316906404_" x="1135.49" y="677.26" width="210.38" height="64.12"/>
		</defs>
		<clipPath id="SVGID_00000037687716783260623110000007858899558460114602_">
			<use xlink:href="#SVGID_00000080928657212859443020000016053936997316906404_"  style="overflow:visible;"/>
		</clipPath>
		<defs>
			
				<filter id="Adobe_OpacityMaskFilter_00000096755414996912048830000017653500286967978652_" filterUnits="userSpaceOnUse" x="1135.49" y="677.26" width="209.91" height="63.69">
				<feColorMatrix  type="matrix" values="1 0 0 0 0  0 1 0 0 0  0 0 1 0 0  0 0 0 1 0"/>
			</filter>
		</defs>
		
			<mask maskUnits="userSpaceOnUse" x="1135.49" y="677.26" width="209.91" height="63.69" id="SVGID_00000007402384722981232890000009224607550335878282_">
			<g style="filter:url(#Adobe_OpacityMaskFilter_00000096755414996912048830000017653500286967978652_);">
				<path style="clip-path:url(#SVGID_00000037687716783260623110000007858899558460114602_);fill:#FFFFFF;" d="M1143.45,677.25
					c-2.11,0-4.14,0.84-5.63,2.33c-1.49,1.49-2.33,3.52-2.33,5.63v47.77c0,2.11,0.84,4.14,2.33,5.63c1.49,1.49,3.52,2.33,5.63,2.33
					h193.98c2.11,0,4.14-0.84,5.63-2.33c1.49-1.49,2.33-3.52,2.33-5.63v-47.77c0-2.11-0.84-4.14-2.33-5.63
					c-1.49-1.49-3.52-2.33-5.63-2.33H1143.45z"/>
			</g>
		</mask>
		
			<g style="clip-path:url(#SVGID_00000037687716783260623110000007858899558460114602_);mask:url(#SVGID_00000007402384722981232890000009224607550335878282_);enable-background:new    ;">
			<g>
				<defs>
					<rect id="SVGID_00000111170045415854448650000003788802798965503166_" x="1135.49" y="677.26" width="209.91" height="63.69"/>
				</defs>
				<clipPath id="SVGID_00000030457641179712010740000001575923535719410316_">
					<use xlink:href="#SVGID_00000111170045415854448650000003788802798965503166_"  style="overflow:visible;"/>
				</clipPath>
				<path style="clip-path:url(#SVGID_00000030457641179712010740000001575923535719410316_);fill:#5C5C5C;" d="M1143.45,677.26
					c-2.11,0-4.14,0.84-5.63,2.33c-1.49,1.49-2.33,3.52-2.33,5.63v47.77c0,2.11,0.84,4.14,2.33,5.63c1.49,1.49,3.52,2.33,5.63,2.33
					h193.98c2.11,0,4.14-0.84,5.63-2.33c1.49-1.49,2.33-3.52,2.33-5.63v-47.77c0-2.11-0.84-4.14-2.33-5.63
					c-1.49-1.49-3.52-2.33-5.63-2.33H1143.45z"/>
			</g>
		</g>
	</g>
	<path style="clip-path:url(#SVGID_00000165234158573211421500000016130665970449910968_);fill:#FFFFFF;" d="M1204.69,719.07h-16.79
		v-7.61h2.64v5.28h14.16V719.07z M1204.3,712.25h-2.64v-15.68h2.64V712.25z M1193.27,696.72v3.83c0,3.88,2.11,5.85,4.91,6.74v2.37
		c-2.76-0.62-5.06-2.17-6.2-4.05c-1.04,1.93-3.36,3.63-6.22,4.32v-2.4c2.88-0.91,4.89-3.21,4.89-6.99v-3.83H1193.27z"/>
	<path style="clip-path:url(#SVGID_00000165234158573211421500000016130665970449910968_);fill:#FFFFFF;" d="M1209.47,707.36
		c0-1.56,0.8-2.69,2.08-3.48c1.6-0.96,3.9-1.38,6.51-1.38c2.69,0,5.08,0.44,6.65,1.46c1.21,0.79,1.94,1.9,1.94,3.41
		c0,1.51-0.73,2.64-1.96,3.43c-1.28,0.84-3.15,1.26-5.28,1.38v3.48h8.4v2.32h-19.48v-2.32h8.49v-3.46
		c-2.01-0.12-3.78-0.52-5.06-1.23C1210.32,710.18,1209.47,708.99,1209.47,707.36z M1212.11,707.36c0,0.74,0.44,1.28,1.19,1.7
		c1.06,0.59,2.78,0.89,4.77,0.89c2.01,0,3.7-0.3,4.77-0.89c0.77-0.42,1.21-0.96,1.21-1.7c0-0.79-0.48-1.38-1.31-1.8
		c-1.06-0.52-2.73-0.79-4.67-0.79c-2.11,0-3.9,0.3-4.94,0.94C1212.47,706.13,1212.11,706.67,1212.11,707.36z M1227.21,698.57v2.32
		h-18.27v-2.32h7.79v-2.79h2.69v2.79H1227.21z"/>
	<path style="clip-path:url(#SVGID_00000165234158573211421500000016130665970449910968_);fill:#FFFFFF;" d="M1235.24,715.07v1.95
		h14.04v2.17h-16.67v-6.25h13.77v-2h-13.77v-2.15h16.41v6.27H1235.24z M1249.01,707.46h-2.64v-5.21h-4.79v-2.3h4.79v-3.38h2.64
		V707.46z M1237.97,696.72v1.68c0,3.85,2.15,5.63,4.91,6.42v2.35c-2.71-0.52-5.06-2.02-6.2-3.88c-1.06,1.93-3.44,3.53-6.22,4.15
		v-2.35c2.83-0.84,4.89-2.94,4.89-6.69v-1.68H1237.97z"/>
	<path style="clip-path:url(#SVGID_00000165234158573211421500000016130665970449910968_);fill:#FFFFFF;" d="M1271.65,696.57v22.4
		h-2.57v-22.4H1271.65z M1261.7,704.15c-0.02,1.95-0.22,3.73-0.63,5.31h3.41v-5.31H1261.7z M1259.11,703.96v-4.62h-5.47v-2.37h8.06
		v4.84h2.78v-5.09h2.52v21.98h-2.52v-6.89h-4.23c-1.28,2.86-3.51,4.89-6.85,5.85v-2.59
		C1256.98,713.78,1259.11,710.08,1259.11,703.96z"/>
	<path style="clip-path:url(#SVGID_00000165234158573211421500000016130665970449910968_);fill:#FFFFFF;" d="M1275.39,713.46v-2.35
		h19.48v2.35h-8.47v5.88h-2.61v-5.88H1275.39z M1291.1,706.03v-3.48h-11.93v3.48H1291.1z M1279.17,700.25h11.93v-3.41h2.64v11.48
		h-17.21v-11.48h2.64V700.25z"/>
	<g style="clip-path:url(#SVGID_00000165234158573211421500000016130665970449910968_);">
		<defs>
			<rect id="SVGID_00000005955039138983012950000013604590699111725219_" x="567.75" y="126.12" width="432" height="1.12"/>
		</defs>
		<clipPath id="SVGID_00000091712760676129882280000016619884408222796459_">
			<use xlink:href="#SVGID_00000005955039138983012950000013604590699111725219_"  style="overflow:visible;"/>
		</clipPath>
		<g style="clip-path:url(#SVGID_00000091712760676129882280000016619884408222796459_);">
			<defs>
				<rect id="SVGID_00000134240991496873949510000001643548191048699801_" x="567.75" y="126.12" width="1.12" height="1.12"/>
			</defs>
			<clipPath id="SVGID_00000119819535843262522120000008327723332456008089_">
				<use xlink:href="#SVGID_00000134240991496873949510000001643548191048699801_"  style="overflow:visible;"/>
			</clipPath>
		</g>
		<g style="clip-path:url(#SVGID_00000091712760676129882280000016619884408222796459_);">
			<defs>
				<rect id="SVGID_00000140006530474718095710000016631222289709897881_" x="998.62" y="126.12" width="1.12" height="1.12"/>
			</defs>
			<clipPath id="SVGID_00000041979882015221318220000011530858181929422504_">
				<use xlink:href="#SVGID_00000140006530474718095710000016631222289709897881_"  style="overflow:visible;"/>
			</clipPath>
		</g>
		
			<line style="clip-path:url(#SVGID_00000091712760676129882280000016619884408222796459_);fill:none;stroke:#9E9E9E;stroke-width:1.125;" x1="567.75" y1="126.68" x2="999.75" y2="126.68"/>
	</g>
	<g style="clip-path:url(#SVGID_00000165234158573211421500000016130665970449910968_);">
		<defs>
			<rect id="SVGID_00000034795198048411067070000005376185621673232798_" x="355.32" y="562.45" width="1.12" height="114.11"/>
		</defs>
		<clipPath id="SVGID_00000018232054277318711370000010974393856091076999_">
			<use xlink:href="#SVGID_00000034795198048411067070000005376185621673232798_"  style="overflow:visible;"/>
		</clipPath>
		<g style="clip-path:url(#SVGID_00000018232054277318711370000010974393856091076999_);">
			<defs>
				<rect id="SVGID_00000087390912237365019450000002789268369484088743_" x="355.32" y="562.45" width="1.12" height="1.12"/>
			</defs>
			<clipPath id="SVGID_00000152986058168036888680000002296612264930349476_">
				<use xlink:href="#SVGID_00000087390912237365019450000002789268369484088743_"  style="overflow:visible;"/>
			</clipPath>
		</g>
		<g style="clip-path:url(#SVGID_00000018232054277318711370000010974393856091076999_);">
			<defs>
				<rect id="SVGID_00000103257170602477006490000007252389611769429680_" x="355.32" y="675.43" width="1.12" height="1.12"/>
			</defs>
			<clipPath id="SVGID_00000062152316992032325850000014591148789343982745_">
				<use xlink:href="#SVGID_00000103257170602477006490000007252389611769429680_"  style="overflow:visible;"/>
			</clipPath>
		</g>
		
			<line style="clip-path:url(#SVGID_00000018232054277318711370000010974393856091076999_);fill:none;stroke:#9E9E9E;stroke-width:1.125;" x1="355.89" y1="562.45" x2="355.89" y2="676.56"/>
	</g>
	<g style="clip-path:url(#SVGID_00000165234158573211421500000016130665970449910968_);">
		<defs>
			<rect id="SVGID_00000085957821293274819450000004258720535490346135_" x="220.03" y="462.89" width="272.81" height="64.13"/>
		</defs>
		<clipPath id="SVGID_00000111164049949507669060000012378694515066843065_">
			<use xlink:href="#SVGID_00000085957821293274819450000004258720535490346135_"  style="overflow:visible;"/>
		</clipPath>
		<defs>
			
				<filter id="Adobe_OpacityMaskFilter_00000065765897357911128920000012926787008596172700_" filterUnits="userSpaceOnUse" x="220.03" y="462.89" width="272.69" height="63.69">
				<feColorMatrix  type="matrix" values="1 0 0 0 0  0 1 0 0 0  0 0 1 0 0  0 0 0 1 0"/>
			</filter>
		</defs>
		
			<mask maskUnits="userSpaceOnUse" x="220.03" y="462.89" width="272.69" height="63.69" id="SVGID_00000138572562163861528030000015803031961268555956_">
			<g style="filter:url(#Adobe_OpacityMaskFilter_00000065765897357911128920000012926787008596172700_);">
				<path style="clip-path:url(#SVGID_00000111164049949507669060000012378694515066843065_);fill:#FFFFFF;" d="M227.99,462.89
					c-2.11,0-4.14,0.84-5.63,2.33c-1.49,1.49-2.33,3.52-2.33,5.63v47.77c0,2.11,0.84,4.14,2.33,5.63c1.49,1.49,3.52,2.33,5.63,2.33
					h256.77c2.11,0,4.14-0.84,5.63-2.33s2.33-3.52,2.33-5.63v-47.77c0-2.11-0.84-4.14-2.33-5.63s-3.52-2.33-5.63-2.33H227.99z"/>
			</g>
		</mask>
		
			<g style="clip-path:url(#SVGID_00000111164049949507669060000012378694515066843065_);mask:url(#SVGID_00000138572562163861528030000015803031961268555956_);enable-background:new    ;">
			<g>
				<defs>
					<rect id="SVGID_00000013170996321476237420000014616865709314549131_" x="220.03" y="462.89" width="272.69" height="63.69"/>
				</defs>
				<clipPath id="SVGID_00000168079930155260012310000004838721139289671831_">
					<use xlink:href="#SVGID_00000013170996321476237420000014616865709314549131_"  style="overflow:visible;"/>
				</clipPath>
				<path style="clip-path:url(#SVGID_00000168079930155260012310000004838721139289671831_);fill:#25630B;" d="M227.99,462.89
					c-2.11,0-4.14,0.84-5.63,2.33c-1.49,1.49-2.33,3.52-2.33,5.63v47.77c0,2.11,0.84,4.14,2.33,5.63c1.49,1.49,3.52,2.33,5.63,2.33
					h256.77c2.11,0,4.14-0.84,5.63-2.33c1.49-1.49,2.33-3.52,2.33-5.63v-47.77c0-2.11-0.84-4.14-2.33-5.63
					c-1.49-1.49-3.52-2.33-5.63-2.33H227.99z"/>
			</g>
		</g>
	</g>
	<path style="clip-path:url(#SVGID_00000165234158573211421500000016130665970449910968_);fill:#FFFFFF;" d="M305.84,498.44H294.9
		v4.12h10.94V498.44z M292.28,504.83v-8.69h16.19v8.69H292.28z M308.47,482.21v5.04h3.19v2.35h-3.19v5.11h-2.64v-12.5H308.47z
		 M298.94,484.81h-7.91v-2.32h10.55v1.61c0,7.04-4.14,9.95-11.06,10.69v-2.35C295.91,491.87,298.94,489.4,298.94,484.81z"/>
	<path style="clip-path:url(#SVGID_00000165234158573211421500000016130665970449910968_);fill:#FFFFFF;" d="M323.69,503.11h-9.85
		v-11.53h7.65v-6.59h-7.65v-2.37h10.24v11.31h-7.62v6.84h7.74c2.01,0,3.61-0.44,4.53-1.28v-17.26h2.64v22.4h-2.64v-2.91
		C327.85,502.59,325.96,503.11,323.69,503.11z"/>
	<path style="clip-path:url(#SVGID_00000165234158573211421500000016130665970449910968_);fill:#FFFFFF;" d="M353.18,482.21v9.14
		h3.44v2.35h-3.44v10.91h-2.64v-22.4H353.18z M341.44,497.52c-0.99,2.57-3.56,4.64-6.34,5.58v-2.47c2.64-1.23,5.01-3.51,5.01-9.75
		v-8.4h2.61v8.4c0,6.25,2.42,8.49,5.03,9.75v2.47C344.98,502.14,342.44,500.07,341.44,497.52z"/>
	<path style="clip-path:url(#SVGID_00000165234158573211421500000016130665970449910968_);fill:#FFFFFF;" d="M373.48,500.14h-11.13
		v2.42h11.13V500.14z M373.48,497.85v-2.62h2.64v9.61h-16.41v-9.61h2.64v2.62H373.48z M360.65,487.84c0,1.16,0.39,2.12,1.06,2.69
		c0.53,0.52,1.28,0.79,2.13,0.79c0.85,0,1.6-0.27,2.15-0.79c0.68-0.57,1.04-1.53,1.04-2.69s-0.36-2.07-1.04-2.69
		c-0.56-0.49-1.31-0.77-2.15-0.77c-0.85,0-1.6,0.27-2.13,0.77C361.04,485.77,360.65,486.68,360.65,487.84z M358.09,487.84
		c0-2.02,0.75-3.56,1.96-4.54c0.99-0.79,2.3-1.23,3.8-1.23c1.52,0,2.83,0.44,3.8,1.23c0.99,0.79,1.65,1.93,1.86,3.38h3.97v-4.47
		h2.64v11.83h-2.64v-5.06h-3.94c-0.22,1.48-0.9,2.64-1.89,3.41c-0.97,0.81-2.27,1.26-3.8,1.26c-1.5,0-2.81-0.44-3.8-1.26
		C358.84,491.43,358.09,489.89,358.09,487.84z"/>
	<path style="clip-path:url(#SVGID_00000165234158573211421500000016130665970449910968_);fill:#FFFFFF;" d="M384.07,498.59v3.8
		h14.67v2.32h-17.28v-6.12H384.07z M395.71,489.94v-2.59h-11.64v2.59H395.71z M384.07,485.08h11.64v-2.59h2.64v9.7h-7.19v2.32h8.62
		v2.32H380v-2.32h8.54v-2.32h-7.09v-9.7h2.61V485.08z"/>
	<path style="clip-path:url(#SVGID_00000165234158573211421500000016130665970449910968_);fill:#FFFFFF;" d="M402.5,499.11v-2.35
		h19.48v2.35h-8.47v5.88h-2.61v-5.88H402.5z M418.21,491.67v-3.48h-11.93v3.48H418.21z M406.28,485.89h11.93v-3.41h2.64v11.48
		h-17.21v-11.48h2.64V485.89z"/>
	<g style="clip-path:url(#SVGID_00000165234158573211421500000016130665970449910968_);">
		<defs>
			<rect id="SVGID_00000144309204746302233470000017359648418348620674_" x="872.48" y="453.75" width="272.81" height="64.12"/>
		</defs>
		<clipPath id="SVGID_00000037662178173951023100000015434266091261550754_">
			<use xlink:href="#SVGID_00000144309204746302233470000017359648418348620674_"  style="overflow:visible;"/>
		</clipPath>
		<defs>
			
				<filter id="Adobe_OpacityMaskFilter_00000152259796178734777750000014463955037282094984_" filterUnits="userSpaceOnUse" x="872.48" y="453.75" width="272.69" height="63.69">
				<feColorMatrix  type="matrix" values="1 0 0 0 0  0 1 0 0 0  0 0 1 0 0  0 0 0 1 0"/>
			</filter>
		</defs>
		
			<mask maskUnits="userSpaceOnUse" x="872.48" y="453.75" width="272.69" height="63.69" id="SVGID_00000126298758476197940290000008321416679825678493_">
			<g style="filter:url(#Adobe_OpacityMaskFilter_00000152259796178734777750000014463955037282094984_);">
				<path style="clip-path:url(#SVGID_00000037662178173951023100000015434266091261550754_);fill:#FFFFFF;" d="M880.44,453.75
					c-2.11,0-4.14,0.84-5.63,2.33s-2.33,3.52-2.33,5.63v47.77c0,2.11,0.84,4.14,2.33,5.63s3.52,2.33,5.63,2.33h256.77
					c2.11,0,4.14-0.84,5.63-2.33s2.33-3.52,2.33-5.63v-47.77c0-2.11-0.84-4.14-2.33-5.63s-3.52-2.33-5.63-2.33H880.44z"/>
			</g>
		</mask>
		
			<g style="clip-path:url(#SVGID_00000037662178173951023100000015434266091261550754_);mask:url(#SVGID_00000126298758476197940290000008321416679825678493_);enable-background:new    ;">
			<g>
				<defs>
					<rect id="SVGID_00000138530994887600641700000003262047599945269426_" x="872.48" y="453.75" width="272.69" height="63.69"/>
				</defs>
				<clipPath id="SVGID_00000041297653350652821470000007488344702462529451_">
					<use xlink:href="#SVGID_00000138530994887600641700000003262047599945269426_"  style="overflow:visible;"/>
				</clipPath>
				<path style="clip-path:url(#SVGID_00000041297653350652821470000007488344702462529451_);fill:#25630B;" d="M880.44,453.75
					c-2.11,0-4.14,0.84-5.63,2.33s-2.33,3.52-2.33,5.63v47.77c0,2.11,0.84,4.14,2.33,5.63s3.52,2.33,5.63,2.33h256.77
					c2.11,0,4.14-0.84,5.63-2.33s2.33-3.52,2.33-5.63v-47.77c0-2.11-0.84-4.14-2.33-5.63s-3.52-2.33-5.63-2.33H880.44z"/>
			</g>
		</g>
	</g>
	<path style="clip-path:url(#SVGID_00000165234158573211421500000016130665970449910968_);fill:#FFFFFF;" d="M947.49,493.21v1.95
		h14.04v2.17h-16.67v-6.25h13.77v-2h-13.77v-2.15h16.41v6.27H947.49z M961.26,485.6h-2.64v-5.21h-4.79v-2.3h4.79v-3.38h2.64V485.6z
		 M950.23,474.86v1.68c0,3.85,2.15,5.63,4.91,6.42v2.35c-2.71-0.52-5.06-2.02-6.2-3.88c-1.06,1.93-3.44,3.53-6.22,4.15v-2.35
		c2.83-0.84,4.89-2.94,4.89-6.69v-1.68H950.23z"/>
	<path style="clip-path:url(#SVGID_00000165234158573211421500000016130665970449910968_);fill:#FFFFFF;" d="M983.9,474.71v22.4
		h-2.57v-22.4H983.9z M973.96,482.3c-0.02,1.95-0.22,3.73-0.63,5.31h3.41v-5.31H973.96z M971.37,482.1v-4.62h-5.47v-2.37h8.06v4.84
		h2.78v-5.09h2.52v21.98h-2.52v-6.89h-4.23c-1.28,2.86-3.51,4.89-6.85,5.85v-2.59C969.24,491.93,971.37,488.22,971.37,482.1z"/>
	<path style="clip-path:url(#SVGID_00000165234158573211421500000016130665970449910968_);fill:#FFFFFF;" d="M1005.39,474.71v9.14
		h3.44v2.35h-3.44v10.91h-2.64v-22.4H1005.39z M993.65,490.02c-0.99,2.57-3.56,4.64-6.34,5.58v-2.47c2.64-1.23,5.01-3.51,5.01-9.75
		v-8.4h2.61v8.4c0,6.25,2.42,8.49,5.03,9.75v2.47C997.18,494.64,994.64,492.57,993.65,490.02z"/>
	<path style="clip-path:url(#SVGID_00000165234158573211421500000016130665970449910968_);fill:#FFFFFF;" d="M1025.68,492.64h-11.13
		v2.42h11.13V492.64z M1025.68,490.35v-2.62h2.64v9.61h-16.41v-9.61h2.64v2.62H1025.68z M1012.86,480.34c0,1.16,0.39,2.12,1.06,2.69
		c0.53,0.52,1.28,0.79,2.13,0.79c0.85,0,1.6-0.27,2.15-0.79c0.68-0.57,1.04-1.53,1.04-2.69s-0.36-2.07-1.04-2.69
		c-0.56-0.49-1.31-0.77-2.15-0.77c-0.85,0-1.6,0.27-2.13,0.77C1013.24,478.27,1012.86,479.18,1012.86,480.34z M1010.29,480.34
		c0-2.02,0.75-3.56,1.96-4.54c0.99-0.79,2.3-1.23,3.8-1.23c1.52,0,2.83,0.44,3.8,1.23c0.99,0.79,1.65,1.93,1.86,3.38h3.97v-4.47
		h2.64v11.83h-2.64v-5.06h-3.94c-0.22,1.48-0.9,2.64-1.89,3.41c-0.97,0.81-2.27,1.26-3.8,1.26c-1.5,0-2.81-0.44-3.8-1.26
		C1011.04,483.93,1010.29,482.39,1010.29,480.34z"/>
	<path style="clip-path:url(#SVGID_00000165234158573211421500000016130665970449910968_);fill:#FFFFFF;" d="M1036.27,491.09v3.8
		h14.67v2.32h-17.28v-6.12H1036.27z M1047.91,482.44v-2.59h-11.64v2.59H1047.91z M1036.27,477.58h11.64v-2.59h2.64v9.7h-7.19v2.32
		h8.62v2.32h-19.77v-2.32h8.54v-2.32h-7.09v-9.7h2.61V477.58z"/>
	<path style="clip-path:url(#SVGID_00000165234158573211421500000016130665970449910968_);fill:#FFFFFF;" d="M1054.71,491.61v-2.35
		h19.48v2.35h-8.47v5.88h-2.61v-5.88H1054.71z M1070.41,484.17v-3.48h-11.93v3.48H1070.41z M1058.48,478.39h11.93v-3.41h2.64v11.48
		h-17.21v-11.48h2.64V478.39z"/>
	<g style="clip-path:url(#SVGID_00000165234158573211421500000016130665970449910968_);">
		<defs>
			<rect id="SVGID_00000047747372597758498320000003613209958135007150_" x="220.03" y="529.83" width="272.81" height="52.88"/>
		</defs>
		<clipPath id="SVGID_00000084524463748725040570000004367622299693178772_">
			<use xlink:href="#SVGID_00000047747372597758498320000003613209958135007150_"  style="overflow:visible;"/>
		</clipPath>
		<defs>
			
				<filter id="Adobe_OpacityMaskFilter_00000079450970391192971940000001887935736643089822_" filterUnits="userSpaceOnUse" x="220.03" y="529.83" width="272.69" height="52.48">
				<feColorMatrix  type="matrix" values="1 0 0 0 0  0 1 0 0 0  0 0 1 0 0  0 0 0 1 0"/>
			</filter>
		</defs>
		
			<mask maskUnits="userSpaceOnUse" x="220.03" y="529.83" width="272.69" height="52.48" id="SVGID_00000183224394289311820180000016781538301766404226_">
			<g style="filter:url(#Adobe_OpacityMaskFilter_00000079450970391192971940000001887935736643089822_);">
				<path style="clip-path:url(#SVGID_00000084524463748725040570000004367622299693178772_);fill:#FFFFFF;" d="M226.59,529.83
					c-1.74,0-3.41,0.69-4.64,1.92c-1.23,1.23-1.92,2.9-1.92,4.64v39.36c0,1.74,0.69,3.41,1.92,4.64c1.23,1.23,2.9,1.92,4.64,1.92
					h259.57c1.74,0,3.41-0.69,4.64-1.92s1.92-2.9,1.92-4.64v-39.36c0-1.74-0.69-3.41-1.92-4.64s-2.9-1.92-4.64-1.92H226.59z"/>
			</g>
		</mask>
		
			<g style="clip-path:url(#SVGID_00000084524463748725040570000004367622299693178772_);mask:url(#SVGID_00000183224394289311820180000016781538301766404226_);enable-background:new    ;">
			<g>
				<defs>
					<rect id="SVGID_00000031897665667803285320000006112448764537060797_" x="220.03" y="529.83" width="272.69" height="52.48"/>
				</defs>
				<clipPath id="SVGID_00000132768459750980095910000006834335484286000035_">
					<use xlink:href="#SVGID_00000031897665667803285320000006112448764537060797_"  style="overflow:visible;"/>
				</clipPath>
				<path style="clip-path:url(#SVGID_00000132768459750980095910000006834335484286000035_);fill:#DDDDDD;" d="M226.59,529.83
					c-1.74,0-3.41,0.69-4.64,1.92c-1.23,1.23-1.92,2.9-1.92,4.64v39.36c0,1.74,0.69,3.41,1.92,4.64c1.23,1.23,2.9,1.92,4.64,1.92
					h259.57c1.74,0,3.41-0.69,4.64-1.92s1.92-2.9,1.92-4.64v-39.36c0-1.74-0.69-3.41-1.92-4.64s-2.9-1.92-4.64-1.92H226.59z"/>
			</g>
		</g>
	</g>
	<path style="clip-path:url(#SVGID_00000165234158573211421500000016130665970449910968_);" d="M298.51,561.38v3.4h13.1v2.07h-15.44
		v-5.47H298.51z M308.91,553.66v-2.32h-10.4v2.32H308.91z M298.51,549.31h10.4v-2.32h2.36v8.67h-6.42v2.07h7.7v2.07h-17.66v-2.07
		h7.63v-2.07h-6.33v-8.67h2.34V549.31z"/>
	<path style="clip-path:url(#SVGID_00000165234158573211421500000016130665970449910968_);" d="M314.98,561.84v-2.1h17.4v2.1h-7.57
		v5.25h-2.34v-5.25H314.98z M329.01,555.2v-3.11h-10.66v3.11H329.01z M318.35,550.04h10.66v-3.04h2.36v10.26h-15.37v-10.26h2.36
		V550.04z"/>
	<path style="clip-path:url(#SVGID_00000165234158573211421500000016130665970449910968_);" d="M338.43,562.97
		c0,0.55,0.28,1.01,0.8,1.37c0.86,0.6,2.44,0.84,4.45,0.84c1.99,0,3.57-0.24,4.48-0.84c0.5-0.35,0.76-0.82,0.76-1.37
		c0-0.55-0.26-1.01-0.76-1.37c-0.91-0.57-2.49-0.84-4.48-0.84c-2.01,0-3.59,0.26-4.45,0.84
		C338.71,561.95,338.43,562.42,338.43,562.97z M336.07,562.97c0-1.21,0.56-2.14,1.45-2.82c1.41-1.01,3.61-1.43,6.16-1.43
		c2.53,0,4.76,0.42,6.14,1.43c0.89,0.68,1.45,1.61,1.45,2.82c0,1.24-0.56,2.16-1.45,2.85c-1.38,1.01-3.61,1.41-6.14,1.41
		c-2.55,0-4.76-0.4-6.16-1.41C336.63,565.13,336.07,564.2,336.07,562.97z M350.79,546.75v4.5h2.85v2.1h-2.85v4.81h-2.36v-11.41
		H350.79z M335.21,549.07v-2.07h10.14v2.07h-3.89v0.75c0,3.4,1.79,5.01,4.24,5.56v2.12c-2.34-0.42-4.35-1.68-5.36-3.38
		c-1.04,1.72-3.07,3.24-5.47,3.64v-2.14c2.51-0.55,4.24-2.34,4.24-5.8v-0.75H335.21z"/>
	<path style="clip-path:url(#SVGID_00000165234158573211421500000016130665970449910968_);" d="M376.22,546.75v8.16h3.07v2.1h-3.07
		v9.75h-2.36v-20.01H376.22z M360.67,551.36v-2.07h4.11v-3.11h2.34v3.11h4.17v2.07h-4.17v3.24c0,5.34,2.08,7.5,4.35,8.6v2.21
		c-2.44-0.86-4.56-2.8-5.49-4.92c-0.95,2.12-3.11,4.08-5.51,4.92v-2.21c2.23-1.08,4.32-3.27,4.32-8.6v-3.24H360.67z"/>
	<path style="clip-path:url(#SVGID_00000165234158573211421500000016130665970449910968_);" d="M384.12,563.14
		c0,0.51,0.28,0.93,0.78,1.26c0.91,0.53,2.53,0.79,4.56,0.79s3.65-0.26,4.56-0.79c0.52-0.33,0.78-0.75,0.78-1.26
		c0-0.53-0.26-0.93-0.78-1.26c-0.91-0.53-2.53-0.79-4.56-0.79s-3.65,0.26-4.56,0.79C384.41,562.22,384.12,562.61,384.12,563.14z
		 M381.79,563.14c0-1.35,0.67-2.32,1.77-2.96c1.45-0.82,3.57-1.15,5.9-1.15c2.34,0,4.48,0.33,5.9,1.15
		c1.08,0.64,1.79,1.61,1.79,2.96s-0.71,2.29-1.79,2.96c-1.43,0.82-3.57,1.13-5.9,1.13c-2.34,0-4.45-0.31-5.9-1.13
		C382.46,565.44,381.79,564.49,381.79,563.14z M388.04,555.33v-3.09h-4.89v3.09H388.04z M390.35,551.1v2.38h4v-2.38H390.35z
		 M383.15,550.19h4.89v-3.2h2.31v2.07h4v-2.32h2.36v11.83h-2.36v-3.07h-4v1.88h-9.49v-10.39h2.29V550.19z"/>
	<path style="clip-path:url(#SVGID_00000165234158573211421500000016130665970449910968_);" d="M404.38,563.54v1.57h12.54v1.85
		h-14.9v-5.25h12.3v-1.59h-12.3v-1.88h14.66v5.29H404.38z M410.69,553.77v-1.92h3.63v-1.39h-3.63v-1.92h3.63v-1.79h2.36v10.39h-2.36
		v-3.38H410.69z M408.64,556.7h-7.81v-5.8h6.59v-2.01h-6.59v-1.9h8.93v5.76h-6.59v2.07h5.58c1.28,0,2.46-0.09,3.46-0.42v1.74
		C411.23,556.57,409.98,556.7,408.64,556.7z"/>
	<g style="clip-path:url(#SVGID_00000165234158573211421500000016130665970449910968_);">
		<defs>
			<rect id="SVGID_00000010995633607735283260000014815875338183662510_" x="872.48" y="521.44" width="272.81" height="52.88"/>
		</defs>
		<clipPath id="SVGID_00000174596626797613720210000012016133138168520851_">
			<use xlink:href="#SVGID_00000010995633607735283260000014815875338183662510_"  style="overflow:visible;"/>
		</clipPath>
		<defs>
			
				<filter id="Adobe_OpacityMaskFilter_00000126294441336991820630000001671110320212792468_" filterUnits="userSpaceOnUse" x="872.48" y="521.44" width="272.69" height="52.48">
				<feColorMatrix  type="matrix" values="1 0 0 0 0  0 1 0 0 0  0 0 1 0 0  0 0 0 1 0"/>
			</filter>
		</defs>
		
			<mask maskUnits="userSpaceOnUse" x="872.48" y="521.44" width="272.69" height="52.48" id="SVGID_00000125566014477966548940000001315812490379223463_">
			<g style="filter:url(#Adobe_OpacityMaskFilter_00000126294441336991820630000001671110320212792468_);">
				<path style="clip-path:url(#SVGID_00000174596626797613720210000012016133138168520851_);fill:#FFFFFF;" d="M879.04,521.44
					c-1.74,0-3.41,0.69-4.64,1.92s-1.92,2.9-1.92,4.64v39.36c0,1.74,0.69,3.41,1.92,4.64s2.9,1.92,4.64,1.92h259.57
					c1.74,0,3.41-0.69,4.64-1.92s1.92-2.9,1.92-4.64V528c0-1.74-0.69-3.41-1.92-4.64s-2.9-1.92-4.64-1.92H879.04z"/>
			</g>
		</mask>
		
			<g style="clip-path:url(#SVGID_00000174596626797613720210000012016133138168520851_);mask:url(#SVGID_00000125566014477966548940000001315812490379223463_);enable-background:new    ;">
			<g>
				<defs>
					<rect id="SVGID_00000168101852921408347360000003188286281100285112_" x="872.48" y="521.44" width="272.69" height="52.48"/>
				</defs>
				<clipPath id="SVGID_00000011028393018245546930000008058097192401745826_">
					<use xlink:href="#SVGID_00000168101852921408347360000003188286281100285112_"  style="overflow:visible;"/>
				</clipPath>
				<path style="clip-path:url(#SVGID_00000011028393018245546930000008058097192401745826_);fill:#DDDDDD;" d="M879.04,521.44
					c-1.74,0-3.41,0.69-4.64,1.92s-1.92,2.9-1.92,4.64v39.36c0,1.74,0.69,3.41,1.92,4.64s2.9,1.92,4.64,1.92h259.57
					c1.74,0,3.41-0.69,4.64-1.92s1.92-2.9,1.92-4.64V528c0-1.74-0.69-3.41-1.92-4.64s-2.9-1.92-4.64-1.92H879.04z"/>
			</g>
		</g>
	</g>
	<g style="clip-path:url(#SVGID_00000165234158573211421500000016130665970449910968_);">
		<defs>
			<rect id="SVGID_00000029733515237557110990000008591037035891063723_" x="250.93" y="675.81" width="210.37" height="64.12"/>
		</defs>
		<clipPath id="SVGID_00000129916757952744576220000017243074435947799428_">
			<use xlink:href="#SVGID_00000029733515237557110990000008591037035891063723_"  style="overflow:visible;"/>
		</clipPath>
		<defs>
			
				<filter id="Adobe_OpacityMaskFilter_00000148655506774928432460000010093727624118926266_" filterUnits="userSpaceOnUse" x="250.93" y="675.81" width="209.91" height="63.69">
				<feColorMatrix  type="matrix" values="1 0 0 0 0  0 1 0 0 0  0 0 1 0 0  0 0 0 1 0"/>
			</filter>
		</defs>
		
			<mask maskUnits="userSpaceOnUse" x="250.93" y="675.81" width="209.91" height="63.69" id="SVGID_00000089549110849479935400000010887883631521355966_">
			<g style="filter:url(#Adobe_OpacityMaskFilter_00000148655506774928432460000010093727624118926266_);">
				<path style="clip-path:url(#SVGID_00000129916757952744576220000017243074435947799428_);fill:#FFFFFF;" d="M258.89,675.81
					c-2.11,0-4.14,0.84-5.63,2.33c-1.49,1.49-2.33,3.52-2.33,5.63v47.77c0,2.11,0.84,4.14,2.33,5.63c1.49,1.49,3.52,2.33,5.63,2.33
					h193.98c2.11,0,4.14-0.84,5.63-2.33s2.33-3.52,2.33-5.63v-47.77c0-2.11-0.84-4.14-2.33-5.63s-3.52-2.33-5.63-2.33H258.89z"/>
			</g>
		</mask>
		
			<g style="clip-path:url(#SVGID_00000129916757952744576220000017243074435947799428_);mask:url(#SVGID_00000089549110849479935400000010887883631521355966_);enable-background:new    ;">
			<g>
				<defs>
					<rect id="SVGID_00000071533243337668440370000008609677149199754920_" x="250.93" y="675.81" width="209.91" height="63.69"/>
				</defs>
				<clipPath id="SVGID_00000136391157661956636530000007308768998502864057_">
					<use xlink:href="#SVGID_00000071533243337668440370000008609677149199754920_"  style="overflow:visible;"/>
				</clipPath>
				<path style="clip-path:url(#SVGID_00000136391157661956636530000007308768998502864057_);fill:#5C5C5C;" d="M258.89,675.81
					c-2.11,0-4.14,0.84-5.63,2.33c-1.49,1.49-2.33,3.52-2.33,5.63v47.77c0,2.11,0.84,4.14,2.33,5.63c1.49,1.49,3.52,2.33,5.63,2.33
					h193.98c2.11,0,4.14-0.84,5.63-2.33c1.49-1.49,2.33-3.52,2.33-5.63v-47.77c0-2.11-0.84-4.14-2.33-5.63
					c-1.49-1.49-3.52-2.33-5.63-2.33H258.89z"/>
			</g>
		</g>
	</g>
	<path style="clip-path:url(#SVGID_00000165234158573211421500000016130665970449910968_);fill:#FFFFFF;" d="M320.13,717.62h-16.79
		v-7.61h2.64v5.28h14.16V717.62z M319.75,710.8h-2.64v-8.15h-4.53v-2.3h4.53v-5.24h2.64V710.8z M302.01,697.72v-2.32h11.33v2.32
		h-4.36v2c0,3.83,2.03,5.58,4.77,6.22v2.37c-2.64-0.47-4.89-1.88-6.03-3.78c-1.14,1.93-3.44,3.63-6.1,4.05v-2.37
		c2.78-0.62,4.74-2.62,4.74-6.49v-2H302.01z"/>
	<path style="clip-path:url(#SVGID_00000165234158573211421500000016130665970449910968_);fill:#FFFFFF;" d="M342.05,695.12v22.4
		h-2.64v-22.4H342.05z M332.47,700.36v-2.47h-7.94v-2.37h10.53v4.52c0,8.52-3.1,14.2-10.67,16.17v-2.54
		C329.95,712.01,332.47,707.35,332.47,700.36z"/>
	<path style="clip-path:url(#SVGID_00000165234158573211421500000016130665970449910968_);fill:#FFFFFF;" d="M361.23,711.35H350.3
		v4.12h10.94V711.35z M347.68,717.74v-8.69h16.19v8.69H347.68z M363.87,695.12v5.04h3.19v2.35h-3.19v5.11h-2.64v-12.5H363.87z
		 M354.34,697.72h-7.91v-2.32h10.55V697c0,7.04-4.14,9.95-11.06,10.69v-2.35C351.31,704.78,354.34,702.31,354.34,697.72z"/>
	<path style="clip-path:url(#SVGID_00000165234158573211421500000016130665970449910968_);fill:#FFFFFF;" d="M379.09,716.01h-9.85
		v-11.53h7.65v-6.59h-7.65v-2.37h10.24v11.31h-7.62v6.84h7.74c2.01,0,3.61-0.44,4.53-1.28v-17.26h2.64v22.4h-2.64v-2.91
		C383.25,715.49,381.36,716.01,379.09,716.01z"/>
	<path style="clip-path:url(#SVGID_00000165234158573211421500000016130665970449910968_);fill:#FFFFFF;" d="M390.84,712.01v-2.35
		h19.48v2.35h-8.47v5.88h-2.61v-5.88H390.84z M406.54,704.58v-3.48h-11.93v3.48H406.54z M394.61,698.8h11.93v-3.41h2.64v11.48
		h-17.21v-11.48h2.64V698.8z"/>
	<g style="clip-path:url(#SVGID_00000165234158573211421500000016130665970449910968_);">
		<defs>
			<rect id="SVGID_00000015351684485494142170000010628143586387296670_" x="346.52" y="94.48" width="272.81" height="63.56"/>
		</defs>
		<clipPath id="SVGID_00000013155561354500126520000012892818870747257253_">
			<use xlink:href="#SVGID_00000015351684485494142170000010628143586387296670_"  style="overflow:visible;"/>
		</clipPath>
		<defs>
			
				<filter id="Adobe_OpacityMaskFilter_00000061462291993999999880000006026180577601224613_" filterUnits="userSpaceOnUse" x="346.52" y="94.48" width="272.69" height="63.27">
				<feColorMatrix  type="matrix" values="1 0 0 0 0  0 1 0 0 0  0 0 1 0 0  0 0 0 1 0"/>
			</filter>
		</defs>
		
			<mask maskUnits="userSpaceOnUse" x="346.52" y="94.48" width="272.69" height="63.27" id="SVGID_00000075872484181617210990000006891541199441226687_">
			<g style="filter:url(#Adobe_OpacityMaskFilter_00000061462291993999999880000006026180577601224613_);">
				<path style="clip-path:url(#SVGID_00000013155561354500126520000012892818870747257253_);fill:#FFFFFF;" d="M354.43,94.48
					c-2.1,0-4.11,0.83-5.59,2.32s-2.32,3.49-2.32,5.59v47.45c0,2.1,0.83,4.11,2.32,5.59s3.49,2.32,5.59,2.32H611.3
					c2.1,0,4.11-0.83,5.59-2.32s2.32-3.49,2.32-5.59v-47.45c0-2.1-0.83-4.11-2.32-5.59s-3.49-2.32-5.59-2.32H354.43z"/>
			</g>
		</mask>
		
			<g style="clip-path:url(#SVGID_00000013155561354500126520000012892818870747257253_);mask:url(#SVGID_00000075872484181617210990000006891541199441226687_);enable-background:new    ;">
			<g>
				<defs>
					<rect id="SVGID_00000118362720847018164340000008868358677171692732_" x="346.52" y="94.48" width="272.69" height="63.27"/>
				</defs>
				<clipPath id="SVGID_00000054980551366730994960000001152290622672141458_">
					<use xlink:href="#SVGID_00000118362720847018164340000008868358677171692732_"  style="overflow:visible;"/>
				</clipPath>
				<path style="clip-path:url(#SVGID_00000054980551366730994960000001152290622672141458_);fill:#62AE41;" d="M354.43,94.48
					c-2.1,0-4.11,0.83-5.59,2.32s-2.32,3.49-2.32,5.59v47.45c0,2.1,0.83,4.11,2.32,5.59s3.49,2.32,5.59,2.32H611.3
					c2.1,0,4.11-0.83,5.59-2.32s2.32-3.49,2.32-5.59v-47.45c0-2.1-0.83-4.11-2.32-5.59s-3.49-2.32-5.59-2.32H354.43z"/>
			</g>
		</g>
	</g>
	<path style="clip-path:url(#SVGID_00000165234158573211421500000016130665970449910968_);fill:#FFFFFF;" d="M406.66,124.92
		c0,10.54,1.96,12.54,6,12.54v-2.4c-2.27,0-3.34-1.26-3.34-10.15c0-8.87,1.06-10.15,3.34-10.15v-2.37
		C408.62,112.4,406.66,114.4,406.66,124.92z"/>
	<path style="clip-path:url(#SVGID_00000165234158573211421500000016130665970449910968_);fill:#FFFFFF;" d="M418.07,129.96v3.8
		h14.67v2.32h-17.28v-6.12H418.07z M429.71,121.32v-2.59h-11.64v2.59H429.71z M418.07,116.45h11.64v-2.59h2.64v9.7h-7.19v2.32h8.62
		v2.32H414v-2.32h8.54v-2.32h-7.09v-9.7h2.61V116.45z"/>
	<path style="clip-path:url(#SVGID_00000165234158573211421500000016130665970449910968_);fill:#FFFFFF;" d="M452.18,129.81h-11.13
		v4.12h11.13V129.81z M438.41,136.21v-8.69h16.41v8.69H438.41z M454.82,126.08h-2.64v-5.41h-4.53v-2.3h4.53v-4.79h2.64V126.08z
		 M437.08,116.18v-2.32h11.33v2.32h-4.36v0.84c0,3.8,2.03,5.61,4.77,6.22v2.37c-2.64-0.47-4.89-1.88-6.03-3.78
		c-1.14,1.93-3.44,3.63-6.1,4.07v-2.4c2.78-0.62,4.74-2.62,4.74-6.49v-0.84H437.08z"/>
	<path style="clip-path:url(#SVGID_00000165234158573211421500000016130665970449910968_);fill:#FFFFFF;" d="M463.53,124.92
		c0-10.52-1.98-12.52-6.05-12.52v2.37c2.3,0,3.36,1.28,3.36,10.15c0,8.89-1.06,10.15-3.36,10.15v2.4
		C461.54,137.47,463.53,135.47,463.53,124.92z"/>
	<path style="clip-path:url(#SVGID_00000165234158573211421500000016130665970449910968_);fill:#FFFFFF;" d="M479.11,134.48h-5.93
		v-20.5h7.89v2.37h-5.32v15.78h3.87c1.82,0,3.17-0.35,4.02-1.09v-17.31h2.52v8.77h2.47v-8.91h2.57v22.4h-2.57v-11.14h-2.47v10.87
		h-2.52v-2.47C482.79,134.06,481.22,134.48,479.11,134.48z"/>
	<path style="clip-path:url(#SVGID_00000165234158573211421500000016130665970449910968_);fill:#FFFFFF;" d="M501.59,116.35v8h5.57
		c0.46-1.06,0.6-2.72,0.6-4.17v-3.83H501.59z M507.44,126.7h-5.42v5.98h5.42V126.7z M509.69,124.36h3.97v2.35h-3.58v5.98h4.33V135
		h-19.48v-2.32h4.48v-5.98h-3.73v-2.35h3.24v-8h-2.86v-2.37h17.21v2.37h-2.88v3.56C510.4,121.54,510.18,123.29,509.69,124.36z"/>
	<path style="clip-path:url(#SVGID_00000165234158573211421500000016130665970449910968_);fill:#FFFFFF;" d="M535.56,113.59v22.4
		h-2.64v-22.4H535.56z M517.77,124.18c0-4.05,0.39-7.09,1.79-8.84c0.9-1.14,2.25-1.75,3.87-1.75c1.65,0,2.98,0.62,3.9,1.75
		c1.4,1.75,1.79,4.79,1.79,8.84s-0.39,7.09-1.79,8.84c-0.92,1.14-2.25,1.7-3.9,1.7c-1.62,0-2.98-0.57-3.87-1.7
		C518.16,131.27,517.77,128.23,517.77,124.18z M526.5,124.18c0-3.56-0.24-6.15-1.16-7.33c-0.44-0.62-1.11-0.94-1.91-0.94
		c-0.77,0-1.45,0.32-1.91,0.94c-0.87,1.19-1.14,3.78-1.14,7.33s0.27,6.15,1.14,7.36c0.46,0.57,1.14,0.89,1.91,0.89
		c0.8,0,1.48-0.32,1.91-0.89C526.26,130.33,526.5,127.74,526.5,124.18z"/>
	<path style="clip-path:url(#SVGID_00000165234158573211421500000016130665970449910968_);fill:#FFFFFF;" d="M557.38,113.59v9.14
		h3.44v2.35h-3.44v10.91h-2.64v-22.4H557.38z M545.64,128.9c-0.99,2.57-3.56,4.64-6.34,5.58v-2.47c2.64-1.23,5.01-3.51,5.01-9.75
		v-8.4h2.61v8.4c0,6.25,2.42,8.49,5.03,9.75v2.47C549.17,133.52,546.63,131.44,545.64,128.9z"/>
	<g style="clip-path:url(#SVGID_00000165234158573211421500000016130665970449910968_);">
		<defs>
			<rect id="SVGID_00000132783731263696880540000007735754427035068831_" x="820.79" y="94.48" width="272.81" height="63.56"/>
		</defs>
		<clipPath id="SVGID_00000164508136357649285540000017512726205783626646_">
			<use xlink:href="#SVGID_00000132783731263696880540000007735754427035068831_"  style="overflow:visible;"/>
		</clipPath>
		<defs>
			
				<filter id="Adobe_OpacityMaskFilter_00000168106021235256870450000012852721254071004843_" filterUnits="userSpaceOnUse" x="820.79" y="94.48" width="272.69" height="63.27">
				<feColorMatrix  type="matrix" values="1 0 0 0 0  0 1 0 0 0  0 0 1 0 0  0 0 0 1 0"/>
			</filter>
		</defs>
		
			<mask maskUnits="userSpaceOnUse" x="820.79" y="94.48" width="272.69" height="63.27" id="SVGID_00000056386657408871178360000010954279859130773156_">
			<g style="filter:url(#Adobe_OpacityMaskFilter_00000168106021235256870450000012852721254071004843_);">
				<path style="clip-path:url(#SVGID_00000164508136357649285540000017512726205783626646_);fill:#FFFFFF;" d="M828.7,94.48
					c-2.1,0-4.11,0.83-5.59,2.32s-2.32,3.49-2.32,5.59v47.45c0,2.1,0.83,4.11,2.32,5.59s3.49,2.32,5.59,2.32h256.87
					c2.1,0,4.11-0.83,5.59-2.32s2.32-3.49,2.32-5.59v-47.45c0-2.1-0.83-4.11-2.32-5.59s-3.49-2.32-5.59-2.32H828.7z"/>
			</g>
		</mask>
		
			<g style="clip-path:url(#SVGID_00000164508136357649285540000017512726205783626646_);mask:url(#SVGID_00000056386657408871178360000010954279859130773156_);enable-background:new    ;">
			<g>
				<defs>
					<rect id="SVGID_00000052792806611946096860000018222869013849304708_" x="820.79" y="94.48" width="272.69" height="63.27"/>
				</defs>
				<clipPath id="SVGID_00000000915144840684746200000014379473141955569595_">
					<use xlink:href="#SVGID_00000052792806611946096860000018222869013849304708_"  style="overflow:visible;"/>
				</clipPath>
				<path style="clip-path:url(#SVGID_00000000915144840684746200000014379473141955569595_);fill:#62AE41;" d="M828.7,94.48
					c-2.1,0-4.11,0.83-5.59,2.32s-2.32,3.49-2.32,5.59v47.45c0,2.1,0.83,4.11,2.32,5.59s3.49,2.32,5.59,2.32h256.87
					c2.1,0,4.11-0.83,5.59-2.32s2.32-3.49,2.32-5.59v-47.45c0-2.1-0.83-4.11-2.32-5.59s-3.49-2.32-5.59-2.32H828.7z"/>
			</g>
		</g>
	</g>
	<path style="clip-path:url(#SVGID_00000165234158573211421500000016130665970449910968_);fill:#FFFFFF;" d="M880.93,124.92
		c0,10.54,1.96,12.54,6,12.54v-2.4c-2.27,0-3.34-1.26-3.34-10.15c0-8.87,1.06-10.15,3.34-10.15v-2.37
		C882.89,112.4,880.93,114.4,880.93,124.92z"/>
	<path style="clip-path:url(#SVGID_00000165234158573211421500000016130665970449910968_);fill:#FFFFFF;" d="M906.7,113.59v22.4
		h-2.64v-22.4H906.7z M888.91,116.35v-2.37h11.91v2.37h-4.65v6.03c0,5.98,2.3,8.4,4.84,9.63v2.47c-2.73-0.96-5.11-3.14-6.17-5.51
		c-1.06,2.37-3.46,4.57-6.17,5.51v-2.47c2.49-1.21,4.84-3.65,4.84-9.63v-6.03H888.91z"/>
	<path style="clip-path:url(#SVGID_00000165234158573211421500000016130665970449910968_);fill:#FFFFFF;" d="M928.52,113.59v9.14
		h3.44v2.35h-3.44v10.91h-2.64v-22.4H928.52z M916.78,128.9c-0.99,2.57-3.56,4.64-6.34,5.58v-2.47c2.64-1.23,5.01-3.51,5.01-9.75
		v-8.4h2.61v8.4c0,6.25,2.42,8.49,5.03,9.75v2.47C920.31,133.52,917.77,131.44,916.78,128.9z"/>
	<path style="clip-path:url(#SVGID_00000165234158573211421500000016130665970449910968_);fill:#FFFFFF;" d="M937.8,124.92
		c0-10.52-1.98-12.52-6.05-12.52v2.37c2.3,0,3.36,1.28,3.36,10.15c0,8.89-1.06,10.15-3.36,10.15v2.4
		C935.82,137.47,937.8,135.47,937.8,124.92z"/>
	<path style="clip-path:url(#SVGID_00000165234158573211421500000016130665970449910968_);fill:#FFFFFF;" d="M953.39,134.48h-5.93
		v-20.5h7.89v2.37h-5.32v15.78h3.87c1.82,0,3.17-0.35,4.02-1.09v-17.31h2.52v8.77h2.47v-8.91h2.57v22.4h-2.57v-11.14h-2.47v10.87
		h-2.52v-2.47C957.07,134.06,955.49,134.48,953.39,134.48z"/>
	<path style="clip-path:url(#SVGID_00000165234158573211421500000016130665970449910968_);fill:#FFFFFF;" d="M975.86,116.35v8h5.57
		c0.46-1.06,0.6-2.72,0.6-4.17v-3.83H975.86z M981.72,126.7h-5.42v5.98h5.42V126.7z M983.97,124.36h3.97v2.35h-3.58v5.98h4.33V135
		h-19.48v-2.32h4.48v-5.98h-3.73v-2.35h3.24v-8h-2.86v-2.37h17.21v2.37h-2.88v3.56C984.67,121.54,984.45,123.29,983.97,124.36z"/>
	<path style="clip-path:url(#SVGID_00000165234158573211421500000016130665970449910968_);fill:#FFFFFF;" d="M1009.83,113.59v22.4
		h-2.64v-22.4H1009.83z M992.04,124.18c0-4.05,0.39-7.09,1.79-8.84c0.9-1.14,2.25-1.75,3.87-1.75c1.65,0,2.98,0.62,3.9,1.75
		c1.4,1.75,1.79,4.79,1.79,8.84s-0.39,7.09-1.79,8.84c-0.92,1.14-2.25,1.7-3.9,1.7c-1.62,0-2.98-0.57-3.87-1.7
		C992.43,131.27,992.04,128.23,992.04,124.18z M1000.78,124.18c0-3.56-0.24-6.15-1.16-7.33c-0.44-0.62-1.11-0.94-1.91-0.94
		c-0.77,0-1.45,0.32-1.91,0.94c-0.87,1.19-1.14,3.78-1.14,7.33s0.27,6.15,1.14,7.36c0.46,0.57,1.14,0.89,1.91,0.89
		c0.8,0,1.48-0.32,1.91-0.89C1000.54,130.33,1000.78,127.74,1000.78,124.18z"/>
	<path style="clip-path:url(#SVGID_00000165234158573211421500000016130665970449910968_);fill:#FFFFFF;" d="M1031.65,113.59v9.14
		h3.44v2.35h-3.44v10.91h-2.64v-22.4H1031.65z M1019.92,128.9c-0.99,2.57-3.56,4.64-6.34,5.58v-2.47c2.64-1.23,5.01-3.51,5.01-9.75
		v-8.4h2.61v8.4c0,6.25,2.42,8.49,5.03,9.75v2.47C1023.45,133.52,1020.91,131.44,1019.92,128.9z"/>
	<g style="clip-path:url(#SVGID_00000165234158573211421500000016130665970449910968_);">
		<defs>
			<rect id="SVGID_00000065768235550596888000000017360870551818581383_" x="346.52" y="162.77" width="272.81" height="52.88"/>
		</defs>
		<clipPath id="SVGID_00000177446319394993063560000010211300785922393277_">
			<use xlink:href="#SVGID_00000065768235550596888000000017360870551818581383_"  style="overflow:visible;"/>
		</clipPath>
		<defs>
			
				<filter id="Adobe_OpacityMaskFilter_00000118377578278511939940000003098053836384931230_" filterUnits="userSpaceOnUse" x="346.52" y="162.77" width="272.69" height="52.48">
				<feColorMatrix  type="matrix" values="1 0 0 0 0  0 1 0 0 0  0 0 1 0 0  0 0 0 1 0"/>
			</filter>
		</defs>
		
			<mask maskUnits="userSpaceOnUse" x="346.52" y="162.77" width="272.69" height="52.48" id="SVGID_00000100365973879731976140000005264623392861252512_">
			<g style="filter:url(#Adobe_OpacityMaskFilter_00000118377578278511939940000003098053836384931230_);">
				<path style="clip-path:url(#SVGID_00000177446319394993063560000010211300785922393277_);fill:#FFFFFF;" d="M353.08,162.77
					c-1.74,0-3.41,0.69-4.64,1.92c-1.23,1.23-1.92,2.9-1.92,4.64v39.36c0,1.74,0.69,3.41,1.92,4.64c1.23,1.23,2.9,1.92,4.64,1.92
					h259.57c1.74,0,3.41-0.69,4.64-1.92s1.92-2.9,1.92-4.64v-39.36c0-1.74-0.69-3.41-1.92-4.64s-2.9-1.92-4.64-1.92H353.08z"/>
			</g>
		</mask>
		
			<g style="clip-path:url(#SVGID_00000177446319394993063560000010211300785922393277_);mask:url(#SVGID_00000100365973879731976140000005264623392861252512_);enable-background:new    ;">
			<g>
				<defs>
					<rect id="SVGID_00000036955108773067220000000004243977456099385497_" x="346.52" y="162.77" width="272.69" height="52.48"/>
				</defs>
				<clipPath id="SVGID_00000080188264433728179000000010355516747948447376_">
					<use xlink:href="#SVGID_00000036955108773067220000000004243977456099385497_"  style="overflow:visible;"/>
				</clipPath>
				<path style="clip-path:url(#SVGID_00000080188264433728179000000010355516747948447376_);fill:#D0F4AE;" d="M353.08,162.77
					c-1.74,0-3.41,0.69-4.64,1.92c-1.23,1.23-1.92,2.9-1.92,4.64v39.36c0,1.74,0.69,3.41,1.92,4.64c1.23,1.23,2.9,1.92,4.64,1.92
					h259.57c1.74,0,3.41-0.69,4.64-1.92s1.92-2.9,1.92-4.64v-39.36c0-1.74-0.69-3.41-1.92-4.64s-2.9-1.92-4.64-1.92H353.08z"/>
			</g>
		</g>
	</g>
	<path style="clip-path:url(#SVGID_00000165234158573211421500000016130665970449910968_);" d="M422.28,193.11v3.86h12.5v2.07
		h-14.83v-5.93H422.28z M434.41,178.94v5.69h2.85v2.1h-2.85v6.82h-2.36v-14.6H434.41z M418.74,187.88c0-1.28,0.56-2.32,1.47-3.02
		c0.89-0.68,2.12-1.06,3.55-1.06c1.41,0,2.59,0.35,3.48,1.01c0.95,0.71,1.51,1.76,1.51,3.07c0,1.35-0.61,2.43-1.66,3.13
		c-0.84,0.6-2.01,0.93-3.33,0.93c-1.41,0-2.62-0.38-3.48-1.01C419.32,190.22,418.74,189.18,418.74,187.88z M421.01,187.88
		c0,0.55,0.24,1.04,0.63,1.39c0.5,0.46,1.28,0.73,2.12,0.73c0.78,0,1.49-0.22,1.99-0.62c0.48-0.35,0.76-0.84,0.76-1.5
		c0-0.64-0.26-1.15-0.74-1.52c-0.5-0.4-1.21-0.64-2.01-0.64c-0.82,0-1.54,0.24-2.05,0.66C421.27,186.75,421.01,187.26,421.01,187.88
		z M429.31,182.52h-11.16v-1.99h4.48v-2.16h2.34v2.16h4.35V182.52z"/>
	<path style="clip-path:url(#SVGID_00000165234158573211421500000016130665970449910968_);" d="M442.02,195.16
		c0,0.55,0.28,1.01,0.8,1.37c0.86,0.6,2.44,0.84,4.45,0.84c1.99,0,3.57-0.24,4.48-0.84c0.5-0.35,0.76-0.82,0.76-1.37
		c0-0.55-0.26-1.01-0.76-1.37c-0.91-0.57-2.49-0.84-4.48-0.84c-2.01,0-3.59,0.26-4.45,0.84
		C442.3,194.14,442.02,194.61,442.02,195.16z M439.66,195.16c0-1.21,0.56-2.14,1.45-2.82c1.41-1.01,3.61-1.43,6.16-1.43
		c2.53,0,4.76,0.42,6.14,1.43c0.89,0.68,1.45,1.61,1.45,2.82c0,1.24-0.56,2.16-1.45,2.85c-1.38,1.01-3.61,1.41-6.14,1.41
		c-2.55,0-4.76-0.4-6.16-1.41C440.22,197.32,439.66,196.39,439.66,195.16z M454.38,178.94v4.5h2.85v2.1h-2.85v4.81h-2.36v-11.41
		H454.38z M444.83,179.08v2.47c0,3.46,1.86,5.25,4.37,6.02v2.12c-2.46-0.53-4.52-1.94-5.53-3.62c-0.93,1.74-3.01,3.24-5.56,3.86
		v-2.12c2.57-0.84,4.39-2.89,4.39-6.27v-2.47H444.83z"/>
	<polygon style="clip-path:url(#SVGID_00000165234158573211421500000016130665970449910968_);" points="461.88,186.69 
		461.88,189.95 475.13,189.95 475.13,192.03 468.43,192.03 468.43,196 475.91,196 475.91,198.07 458.51,198.07 458.51,196 
		466.09,196 466.09,192.03 459.52,192.03 459.52,184.61 472.54,184.61 472.54,181.41 459.52,181.41 459.52,179.3 474.89,179.3 
		474.89,186.69 	"/>
	<path style="clip-path:url(#SVGID_00000165234158573211421500000016130665970449910968_);" d="M478.71,200.48
		c1.75-0.13,2.75-1.04,2.75-2.63v-3.13h-2.66v2.91h1.32c0,1.06-0.45,1.59-1.41,1.63V200.48z"/>
	<path style="clip-path:url(#SVGID_00000165234158573211421500000016130665970449910968_);" d="M506.13,178.94v20.01h-2.36v-20.01
		H506.13z M490.24,188.41c0-3.62,0.35-6.33,1.6-7.9c0.8-1.01,2.01-1.57,3.46-1.57c1.47,0,2.66,0.55,3.48,1.57
		c1.25,1.57,1.6,4.28,1.6,7.9s-0.35,6.33-1.6,7.9c-0.82,1.01-2.01,1.52-3.48,1.52c-1.45,0-2.66-0.51-3.46-1.52
		C490.58,194.74,490.24,192.03,490.24,188.41z M498.04,188.41c0-3.18-0.22-5.49-1.04-6.55c-0.39-0.55-0.99-0.84-1.71-0.84
		c-0.69,0-1.3,0.29-1.71,0.84c-0.78,1.06-1.02,3.38-1.02,6.55c0,3.18,0.24,5.49,1.02,6.57c0.41,0.51,1.02,0.79,1.71,0.79
		c0.71,0,1.32-0.29,1.71-0.79C497.83,193.9,498.04,191.58,498.04,188.41z"/>
	<path style="clip-path:url(#SVGID_00000165234158573211421500000016130665970449910968_);" d="M513.26,195.62
		c0,0.46,0.28,0.82,0.8,1.08c0.89,0.49,2.53,0.68,4.45,0.68c1.92,0,3.55-0.2,4.45-0.68c0.5-0.26,0.78-0.62,0.78-1.08
		c0-0.46-0.28-0.82-0.78-1.1c-0.91-0.46-2.53-0.64-4.45-0.64c-1.92,0-3.57,0.18-4.45,0.64
		C513.54,194.81,513.26,195.16,513.26,195.62z M510.9,195.62c0-1.24,0.63-2.14,1.69-2.71c1.38-0.79,3.5-1.1,5.92-1.1
		c2.4,0,4.52,0.31,5.9,1.1c1.06,0.57,1.69,1.48,1.69,2.71s-0.63,2.12-1.69,2.71c-1.38,0.79-3.5,1.08-5.9,1.08
		c-2.42,0-4.54-0.29-5.92-1.08C511.53,197.74,510.9,196.86,510.9,195.62z M523.27,178.94h2.36v5.12h2.88v2.12h-2.88v4.96h-2.36V189
		c-0.8,0.64-2.16,0.95-4.35,0.95h-9.3v-2.05h3.09v-3.99h2.36v3.99h4.48c1.73,0,3.03-0.35,3.72-0.84V178.94z M518.06,183.14v-1.9
		h-7.59v-2.05h9.92v3.84c0,1.13-0.13,2.36-0.3,3.24h-2.34C517.93,185.41,518.06,184.17,518.06,183.14z"/>
	<path style="clip-path:url(#SVGID_00000165234158573211421500000016130665970449910968_);" d="M543.95,191.08v-12.13h2.36v20.01
		h-2.36v-5.91c-0.84,0.71-2.29,1.08-4.45,1.08h-2.7v4.85h-2.36v-4.85h-4.63v-2.1h10.29C541.79,192.03,543.09,191.72,543.95,191.08z
		 M530.85,187.11c0-1.04,0.43-1.85,1.19-2.45c0.89-0.73,2.23-1.1,3.81-1.1c1.43,0,2.68,0.33,3.57,0.93c0.91,0.6,1.43,1.5,1.43,2.63
		c0,1.17-0.58,2.07-1.49,2.67c-0.89,0.6-2.12,0.9-3.5,0.9c-1.45,0-2.72-0.35-3.63-0.99C531.37,189.07,530.85,188.23,530.85,187.11z
		 M533.23,187.11c0,0.46,0.24,0.84,0.63,1.1c0.45,0.31,1.17,0.49,1.99,0.49c0.91,0,1.64-0.2,2.1-0.55c0.32-0.26,0.54-0.62,0.54-1.04
		s-0.22-0.77-0.56-1.04c-0.45-0.35-1.19-0.53-2.08-0.53c-0.82,0-1.58,0.18-2.03,0.51C533.44,186.31,533.23,186.69,533.23,187.11z
		 M534.68,178.37h2.36v2.1h4.52v2.05h-11.39v-2.05h4.52V178.37z"/>
	<g style="clip-path:url(#SVGID_00000165234158573211421500000016130665970449910968_);">
		<defs>
			<rect id="SVGID_00000076579217457390274590000012828020716176388994_" x="820.79" y="162.77" width="272.81" height="52.88"/>
		</defs>
		<clipPath id="SVGID_00000026153948026079953380000001749622156284573113_">
			<use xlink:href="#SVGID_00000076579217457390274590000012828020716176388994_"  style="overflow:visible;"/>
		</clipPath>
		<defs>
			
				<filter id="Adobe_OpacityMaskFilter_00000162332515483681006510000017668112183764450993_" filterUnits="userSpaceOnUse" x="820.79" y="162.77" width="272.69" height="52.48">
				<feColorMatrix  type="matrix" values="1 0 0 0 0  0 1 0 0 0  0 0 1 0 0  0 0 0 1 0"/>
			</filter>
		</defs>
		
			<mask maskUnits="userSpaceOnUse" x="820.79" y="162.77" width="272.69" height="52.48" id="SVGID_00000176730496784080410160000013381440667113210792_">
			<g style="filter:url(#Adobe_OpacityMaskFilter_00000162332515483681006510000017668112183764450993_);">
				<path style="clip-path:url(#SVGID_00000026153948026079953380000001749622156284573113_);fill:#FFFFFF;" d="M827.35,162.77
					c-1.74,0-3.41,0.69-4.64,1.92s-1.92,2.9-1.92,4.64v39.36c0,1.74,0.69,3.41,1.92,4.64s2.9,1.92,4.64,1.92h259.57
					c1.74,0,3.41-0.69,4.64-1.92s1.92-2.9,1.92-4.64v-39.36c0-1.74-0.69-3.41-1.92-4.64s-2.9-1.92-4.64-1.92H827.35z"/>
			</g>
		</mask>
		
			<g style="clip-path:url(#SVGID_00000026153948026079953380000001749622156284573113_);mask:url(#SVGID_00000176730496784080410160000013381440667113210792_);enable-background:new    ;">
			<g>
				<defs>
					<rect id="SVGID_00000075867882023281689550000003290595140250923948_" x="820.79" y="162.77" width="272.69" height="52.48"/>
				</defs>
				<clipPath id="SVGID_00000113343797076725682150000011529134693195942790_">
					<use xlink:href="#SVGID_00000075867882023281689550000003290595140250923948_"  style="overflow:visible;"/>
				</clipPath>
				<path style="clip-path:url(#SVGID_00000113343797076725682150000011529134693195942790_);fill:#D0F4AE;" d="M827.35,162.77
					c-1.74,0-3.41,0.69-4.64,1.92s-1.92,2.9-1.92,4.64v39.36c0,1.74,0.69,3.41,1.92,4.64s2.9,1.92,4.64,1.92h259.57
					c1.74,0,3.41-0.69,4.64-1.92s1.92-2.9,1.92-4.64v-39.36c0-1.74-0.69-3.41-1.92-4.64s-2.9-1.92-4.64-1.92H827.35z"/>
			</g>
		</g>
	</g>
	<path style="clip-path:url(#SVGID_00000165234158573211421500000016130665970449910968_);" d="M944.76,178.95V199h-2.36v-20.04
		H944.76z M928.85,188.43c0-3.62,0.35-6.34,1.6-7.91c0.8-1.02,2.01-1.57,3.47-1.57c1.47,0,2.66,0.55,3.49,1.57
		c1.26,1.57,1.6,4.29,1.6,7.91c0,3.62-0.35,6.34-1.6,7.91c-0.82,1.02-2.01,1.52-3.49,1.52c-1.45,0-2.66-0.51-3.47-1.52
		C929.19,194.78,928.85,192.06,928.85,188.43z M936.66,188.43c0-3.18-0.22-5.5-1.04-6.56c-0.39-0.55-1-0.84-1.71-0.84
		c-0.69,0-1.3,0.29-1.71,0.84c-0.78,1.06-1.02,3.38-1.02,6.56c0,3.18,0.24,5.5,1.02,6.59c0.41,0.51,1.02,0.8,1.71,0.8
		c0.71,0,1.32-0.29,1.71-0.8C936.45,193.94,936.66,191.62,936.66,188.43z"/>
	<path style="clip-path:url(#SVGID_00000165234158573211421500000016130665970449910968_);" d="M951.9,195.66
		c0,0.46,0.28,0.82,0.8,1.08c0.89,0.49,2.53,0.69,4.46,0.69c1.93,0,3.55-0.2,4.46-0.69c0.5-0.27,0.78-0.62,0.78-1.08
		s-0.28-0.82-0.78-1.1c-0.91-0.46-2.53-0.64-4.46-0.64c-1.93,0-3.57,0.18-4.46,0.64C952.19,194.84,951.9,195.2,951.9,195.66z
		 M949.54,195.66c0-1.24,0.63-2.14,1.69-2.72c1.39-0.8,3.51-1.1,5.93-1.1c2.4,0,4.53,0.31,5.91,1.1c1.06,0.57,1.69,1.48,1.69,2.72
		s-0.63,2.12-1.69,2.72c-1.39,0.8-3.51,1.08-5.91,1.08c-2.43,0-4.55-0.29-5.93-1.08C950.17,197.78,949.54,196.9,949.54,195.66z
		 M961.93,178.95h2.36v5.13h2.88v2.12h-2.88v4.97h-2.36v-2.14c-0.8,0.64-2.17,0.95-4.35,0.95h-9.31v-2.06h3.1v-4h2.36v4h4.48
		c1.73,0,3.03-0.35,3.73-0.84V178.95z M956.71,183.15v-1.9h-7.6v-2.06h9.94v3.85c0,1.13-0.13,2.36-0.3,3.25h-2.34
		C956.58,185.43,956.71,184.19,956.71,183.15z"/>
	<path style="clip-path:url(#SVGID_00000165234158573211421500000016130665970449910968_);" d="M982.65,191.11v-12.15h2.36V199
		h-2.36v-5.92c-0.84,0.71-2.3,1.08-4.46,1.08h-2.71v4.86h-2.36v-4.86h-4.63v-2.1h10.31C980.49,192.06,981.79,191.75,982.65,191.11z
		 M969.53,187.13c0-1.04,0.43-1.86,1.19-2.45c0.89-0.73,2.23-1.1,3.81-1.1c1.43,0,2.69,0.33,3.57,0.93c0.91,0.6,1.43,1.5,1.43,2.63
		c0,1.17-0.58,2.08-1.49,2.67c-0.89,0.6-2.12,0.91-3.51,0.91c-1.45,0-2.73-0.35-3.64-0.99C970.05,189.1,969.53,188.26,969.53,187.13
		z M971.91,187.13c0,0.46,0.24,0.84,0.63,1.1c0.45,0.31,1.17,0.49,1.99,0.49c0.91,0,1.65-0.2,2.1-0.55
		c0.32-0.27,0.54-0.62,0.54-1.04s-0.22-0.77-0.56-1.04c-0.45-0.35-1.19-0.53-2.08-0.53c-0.82,0-1.58,0.18-2.04,0.51
		C972.13,186.33,971.91,186.71,971.91,187.13z M973.36,178.38h2.36v2.1h4.53v2.06h-11.41v-2.06h4.53V178.38z"/>
	<path style="clip-path:url(#SVGID_00000165234158573211421500000016130665970449910968_);" d="M974.89,537.08v8.16h3.07v2.1h-3.07
		v9.75h-2.36v-20.01H974.89z M964.41,550.76c-0.89,2.29-3.18,4.15-5.66,4.99v-2.21c2.36-1.1,4.48-3.13,4.48-8.71v-7.5h2.34v7.5
		c0,5.58,2.16,7.59,4.5,8.71v2.21C967.56,554.88,965.29,553.03,964.41,550.76z"/>
	<path style="clip-path:url(#SVGID_00000165234158573211421500000016130665970449910968_);" d="M982.5,553.29
		c0,0.55,0.28,1.01,0.8,1.37c0.86,0.6,2.44,0.84,4.45,0.84c1.99,0,3.57-0.24,4.48-0.84c0.5-0.35,0.76-0.82,0.76-1.37
		c0-0.55-0.26-1.01-0.76-1.37c-0.91-0.57-2.49-0.84-4.48-0.84c-2.01,0-3.59,0.26-4.45,0.84C982.78,552.28,982.5,552.74,982.5,553.29
		z M980.14,553.29c0-1.21,0.56-2.14,1.45-2.82c1.41-1.01,3.61-1.43,6.16-1.43c2.53,0,4.76,0.42,6.14,1.43
		c0.89,0.68,1.45,1.61,1.45,2.82c0,1.24-0.56,2.16-1.45,2.85c-1.38,1.01-3.61,1.41-6.14,1.41c-2.55,0-4.76-0.4-6.16-1.41
		C980.7,555.45,980.14,554.53,980.14,553.29z M994.86,537.08v4.5h2.85v2.1h-2.85v4.81h-2.36v-11.41H994.86z M979.27,539.39v-2.07
		h10.14v2.07h-3.89v0.75c0,3.4,1.79,5.01,4.24,5.56v2.12c-2.34-0.42-4.35-1.68-5.36-3.38c-1.04,1.72-3.07,3.24-5.47,3.64v-2.14
		c2.51-0.55,4.24-2.34,4.24-5.8v-0.75H979.27z"/>
	<path style="clip-path:url(#SVGID_00000165234158573211421500000016130665970449910968_);" d="M1020.79,537.08v20.01h-2.36v-20.01
		H1020.79z M1004.9,546.54c0-3.62,0.35-6.33,1.6-7.9c0.8-1.01,2.01-1.57,3.46-1.57c1.47,0,2.66,0.55,3.48,1.57
		c1.25,1.57,1.6,4.28,1.6,7.9c0,3.62-0.35,6.33-1.6,7.9c-0.82,1.01-2.01,1.52-3.48,1.52c-1.45,0-2.66-0.51-3.46-1.52
		C1005.24,552.87,1004.9,550.16,1004.9,546.54z M1012.7,546.54c0-3.18-0.22-5.49-1.04-6.55c-0.39-0.55-0.99-0.84-1.71-0.84
		c-0.69,0-1.3,0.29-1.71,0.84c-0.78,1.06-1.02,3.38-1.02,6.55c0,3.18,0.24,5.49,1.02,6.57c0.41,0.51,1.02,0.79,1.71,0.79
		c0.71,0,1.32-0.29,1.71-0.79C1012.49,552.03,1012.7,549.72,1012.7,546.54z"/>
	<path style="clip-path:url(#SVGID_00000165234158573211421500000016130665970449910968_);" d="M1028.5,553.73v1.61h12.54v1.94
		h-14.9v-5.47h12.3v-1.65h-12.3v-1.94h14.66v5.52H1028.5z M1040.8,547.07h-2.36v-3.4h-3.78v-2.07h3.78v-4.52h2.36V547.07z
		 M1024.96,540.74v-2.03h3.89v-2.21h2.33v2.21h3.89v2.03h-3.83c0.37,2.54,2.03,3.66,4.19,4.1v2.12c-2.38-0.42-4.37-1.54-5.38-3.18
		c-1.02,1.65-3.07,3.04-5.45,3.4v-2.1c2.21-0.44,3.83-1.72,4.17-4.35H1024.96z"/>
	<path style="clip-path:url(#SVGID_00000165234158573211421500000016130665970449910968_);" d="M1060.73,537.08v20.01h-2.36v-2.27
		c-0.84,0.82-2.62,1.13-4.78,1.13h-9.12v-2.05h9.73c1.77,0,3.26-0.26,4.17-1.04v-15.77H1060.73z M1045.38,547
		c0-1.52,0.65-2.74,1.69-3.55c0.86-0.68,2.03-1.06,3.33-1.06c1.28,0,2.42,0.38,3.29,1.01c1.08,0.79,1.73,2.05,1.73,3.6
		c0,1.59-0.71,2.87-1.88,3.68c-0.84,0.57-1.92,0.9-3.14,0.9c-1.21,0-2.27-0.33-3.11-0.88C1046.11,549.89,1045.38,548.59,1045.38,547
		z M1047.71,547c0,0.82,0.35,1.5,0.91,1.99c0.48,0.38,1.08,0.6,1.77,0.6c0.67,0,1.3-0.22,1.77-0.6c0.58-0.46,0.93-1.17,0.93-1.99
		c0-0.79-0.32-1.46-0.82-1.9c-0.48-0.44-1.15-0.71-1.88-0.71s-1.36,0.26-1.86,0.68C1048.04,545.55,1047.71,546.21,1047.71,547z
		 M1049.18,536.5h2.36v2.45h4.43V541h-11.16v-2.05h4.37V536.5z"/>
	<g style="clip-path:url(#SVGID_00000165234158573211421500000016130665970449910968_);">
		<defs>
			<rect id="SVGID_00000101825427578242512740000003591921537954152895_" x="9.25" y="237.63" width="272.81" height="63.56"/>
		</defs>
		<clipPath id="SVGID_00000012455724940818786390000018259878322291725718_">
			<use xlink:href="#SVGID_00000101825427578242512740000003591921537954152895_"  style="overflow:visible;"/>
		</clipPath>
		<defs>
			
				<filter id="Adobe_OpacityMaskFilter_00000106861310190930258420000008946885024457218453_" filterUnits="userSpaceOnUse" x="9.25" y="237.63" width="272.69" height="63.27">
				<feColorMatrix  type="matrix" values="1 0 0 0 0  0 1 0 0 0  0 0 1 0 0  0 0 0 1 0"/>
			</filter>
		</defs>
		
			<mask maskUnits="userSpaceOnUse" x="9.25" y="237.63" width="272.69" height="63.27" id="SVGID_00000119804843093223052480000015564075035981936782_">
			<g style="filter:url(#Adobe_OpacityMaskFilter_00000106861310190930258420000008946885024457218453_);">
				<path style="clip-path:url(#SVGID_00000012455724940818786390000018259878322291725718_);fill:#FFFFFF;" d="M17.16,237.63
					c-2.1,0-4.11,0.83-5.59,2.32s-2.32,3.49-2.32,5.59v47.45c0,2.1,0.83,4.11,2.32,5.59s3.49,2.32,5.59,2.32h256.87
					c2.1,0,4.11-0.83,5.59-2.32s2.32-3.49,2.32-5.59v-47.45c0-2.1-0.83-4.11-2.32-5.59s-3.49-2.32-5.59-2.32H17.16z"/>
			</g>
		</mask>
		
			<g style="clip-path:url(#SVGID_00000012455724940818786390000018259878322291725718_);mask:url(#SVGID_00000119804843093223052480000015564075035981936782_);enable-background:new    ;">
			<g>
				<defs>
					<rect id="SVGID_00000147905032845631435480000004432394887530167190_" x="9.25" y="237.63" width="272.69" height="63.27"/>
				</defs>
				<clipPath id="SVGID_00000094583869828291758920000014706120303599560107_">
					<use xlink:href="#SVGID_00000147905032845631435480000004432394887530167190_"  style="overflow:visible;"/>
				</clipPath>
				<path style="clip-path:url(#SVGID_00000094583869828291758920000014706120303599560107_);fill:#2136A6;" d="M17.16,237.63
					c-2.1,0-4.11,0.83-5.59,2.32s-2.32,3.49-2.32,5.59v47.45c0,2.1,0.83,4.11,2.32,5.59s3.49,2.32,5.59,2.32h256.87
					c2.1,0,4.11-0.83,5.59-2.32s2.32-3.49,2.32-5.59v-47.45c0-2.1-0.83-4.11-2.32-5.59s-3.49-2.32-5.59-2.32H17.16z"/>
			</g>
		</g>
	</g>
	<path style="clip-path:url(#SVGID_00000165234158573211421500000016130665970449910968_);fill:#FFFFFF;" d="M129.17,274.67h-11.13
		v2.42h11.13V274.67z M129.17,272.38v-2.62h2.64v9.61H115.4v-9.61h2.64v2.62H129.17z M116.35,262.38c0,1.16,0.39,2.12,1.06,2.69
		c0.53,0.52,1.28,0.79,2.13,0.79c0.85,0,1.6-0.27,2.15-0.79c0.68-0.57,1.04-1.53,1.04-2.69s-0.36-2.07-1.04-2.69
		c-0.56-0.49-1.31-0.77-2.15-0.77c-0.85,0-1.6,0.27-2.13,0.77C116.73,260.3,116.35,261.22,116.35,262.38z M113.78,262.38
		c0-2.02,0.75-3.56,1.96-4.54c0.99-0.79,2.3-1.23,3.8-1.23c1.52,0,2.83,0.44,3.8,1.23c0.99,0.79,1.65,1.93,1.86,3.38h3.97v-4.47
		h2.64v11.83h-2.64v-5.06h-3.94c-0.22,1.48-0.9,2.64-1.89,3.41c-0.97,0.81-2.27,1.26-3.8,1.26c-1.5,0-2.81-0.44-3.8-1.26
		C114.53,265.96,113.78,264.43,113.78,262.38z"/>
	<path style="clip-path:url(#SVGID_00000165234158573211421500000016130665970449910968_);fill:#FFFFFF;" d="M135.84,273.49v-2.37
		h19.48v2.37h-8.47v6.03h-2.61v-6.03H135.84z M139.62,265.56h11.93v-6.2h-11.93V265.56z M154.19,257.02v10.87h-17.21v-10.87H154.19z
		"/>
	<path style="clip-path:url(#SVGID_00000165234158573211421500000016130665970449910968_);fill:#FFFFFF;" d="M158.2,273.64v-2.35
		h19.48v2.35h-8.47v5.88h-2.61v-5.88H158.2z M173.9,266.2v-3.48h-11.93v3.48H173.9z M161.97,260.43h11.93v-3.41h2.64v11.48h-17.21
		v-11.48h2.64V260.43z"/>
	<g style="clip-path:url(#SVGID_00000165234158573211421500000016130665970449910968_);">
		<defs>
			<rect id="SVGID_00000034058479531047876310000009713319812548053685_" x="1153.24" y="237.63" width="272.81" height="63.56"/>
		</defs>
		<clipPath id="SVGID_00000002382523944806574750000011602147182932603270_">
			<use xlink:href="#SVGID_00000034058479531047876310000009713319812548053685_"  style="overflow:visible;"/>
		</clipPath>
		<defs>
			
				<filter id="Adobe_OpacityMaskFilter_00000034804484982702076510000009203331129477602442_" filterUnits="userSpaceOnUse" x="1153.24" y="237.63" width="272.69" height="63.27">
				<feColorMatrix  type="matrix" values="1 0 0 0 0  0 1 0 0 0  0 0 1 0 0  0 0 0 1 0"/>
			</filter>
		</defs>
		
			<mask maskUnits="userSpaceOnUse" x="1153.24" y="237.63" width="272.69" height="63.27" id="SVGID_00000130606166118975550450000003987609067601775238_">
			<g style="filter:url(#Adobe_OpacityMaskFilter_00000034804484982702076510000009203331129477602442_);">
				<path style="clip-path:url(#SVGID_00000002382523944806574750000011602147182932603270_);fill:#FFFFFF;" d="M1161.15,237.63
					c-2.1,0-4.11,0.83-5.59,2.32s-2.32,3.49-2.32,5.59v47.45c0,2.1,0.83,4.11,2.32,5.59s3.49,2.32,5.59,2.32h256.87
					c2.1,0,4.11-0.83,5.59-2.32s2.32-3.49,2.32-5.59v-47.45c0-2.1-0.83-4.11-2.32-5.59s-3.49-2.32-5.59-2.32H1161.15z"/>
			</g>
		</mask>
		
			<g style="clip-path:url(#SVGID_00000002382523944806574750000011602147182932603270_);mask:url(#SVGID_00000130606166118975550450000003987609067601775238_);enable-background:new    ;">
			<g>
				<defs>
					<rect id="SVGID_00000019663329916956097590000001321011770044145078_" x="1153.24" y="237.63" width="272.69" height="63.27"/>
				</defs>
				<clipPath id="SVGID_00000116205405636688992980000005716862347444546471_">
					<use xlink:href="#SVGID_00000019663329916956097590000001321011770044145078_"  style="overflow:visible;"/>
				</clipPath>
				<path style="clip-path:url(#SVGID_00000116205405636688992980000005716862347444546471_);fill:#2136A6;" d="M1161.15,237.63
					c-2.1,0-4.11,0.83-5.59,2.32s-2.32,3.49-2.32,5.59v47.45c0,2.1,0.83,4.11,2.32,5.59s3.49,2.32,5.59,2.32h256.87
					c2.1,0,4.11-0.83,5.59-2.32s2.32-3.49,2.32-5.59v-47.45c0-2.1-0.83-4.11-2.32-5.59s-3.49-2.32-5.59-2.32H1161.15z"/>
			</g>
		</g>
	</g>
	<path style="clip-path:url(#SVGID_00000165234158573211421500000016130665970449910968_);fill:#FFFFFF;" d="M1273.16,274.67h-11.13
		v2.42h11.13V274.67z M1273.16,272.38v-2.62h2.64v9.61h-16.41v-9.61h2.64v2.62H1273.16z M1260.34,262.38c0,1.16,0.39,2.12,1.06,2.69
		c0.53,0.52,1.28,0.79,2.13,0.79c0.85,0,1.6-0.27,2.15-0.79c0.68-0.57,1.04-1.53,1.04-2.69s-0.36-2.07-1.04-2.69
		c-0.56-0.49-1.31-0.77-2.15-0.77c-0.85,0-1.6,0.27-2.13,0.77C1260.72,260.3,1260.34,261.22,1260.34,262.38z M1257.77,262.38
		c0-2.02,0.75-3.56,1.96-4.54c0.99-0.79,2.3-1.23,3.8-1.23c1.52,0,2.83,0.44,3.8,1.23c0.99,0.79,1.65,1.93,1.86,3.38h3.97v-4.47
		h2.64v11.83h-2.64v-5.06h-3.94c-0.22,1.48-0.9,2.64-1.89,3.41c-0.97,0.81-2.27,1.26-3.8,1.26c-1.5,0-2.81-0.44-3.8-1.26
		C1258.52,265.96,1257.77,264.43,1257.77,262.38z"/>
	<path style="clip-path:url(#SVGID_00000165234158573211421500000016130665970449910968_);fill:#FFFFFF;" d="M1279.83,273.49v-2.37
		h19.48v2.37h-8.47v6.03h-2.61v-6.03H1279.83z M1283.61,265.56h11.93v-6.2h-11.93V265.56z M1298.18,257.02v10.87h-17.21v-10.87
		H1298.18z"/>
	<path style="clip-path:url(#SVGID_00000165234158573211421500000016130665970449910968_);fill:#FFFFFF;" d="M1302.19,273.64v-2.35
		h19.48v2.35h-8.47v5.88h-2.61v-5.88H1302.19z M1317.89,266.2v-3.48h-11.93v3.48H1317.89z M1305.96,260.43h11.93v-3.41h2.64v11.48
		h-17.21v-11.48h2.64V260.43z"/>
</g>
</svg>
