<svg width="876" height="378" viewBox="0 0 876 378" fill="none" xmlns="http://www.w3.org/2000/svg">
<line x1="187" y1="138.602" x2="687" y2="138.602" stroke="#7C7C7C" stroke-width="0.796949"/>
<line x1="378" y1="19.6015" x2="498" y2="19.6015" stroke="#7C7C7C" stroke-width="0.796949"/>
<g clip-path="url(#clip0_300_391)">
<rect width="188.929" height="38" transform="translate(189)" fill="#0031B0"/>
<path d="M243.768 10.6265V26.6166H241.641V18.5864H240.095V25.8434H238.039V10.8901H240.095V16.7941H241.641V10.6265H243.768ZM236.352 12.4715V14.2814H232.645V21.0991C234.191 21.0903 235.562 21.0113 237.108 20.7301L237.266 22.5576C235.316 22.9266 233.611 22.9793 231.503 22.9968H230.396V12.4715H236.352ZM260.127 23.0496V24.8419H245.49V23.0496H249.127V20.0097H246.702V18.1998H248.846V13.7015H246.632V11.9092H258.897V13.7015H256.647V18.1998H258.826V20.0097H256.419V23.0496H260.127ZM251.095 18.1998H254.433V13.7015H251.095V18.1998ZM251.376 23.0496H254.17V20.0097H251.376V23.0496ZM274.43 10.6265V26.6517H272.163V10.6265H274.43ZM265.749 11.7511C268.157 11.7511 269.949 13.9651 269.949 17.4443C269.949 20.9586 268.157 23.155 265.749 23.155C263.289 23.155 261.497 20.9586 261.515 17.4443C261.497 13.9651 263.289 11.7511 265.749 11.7511ZM265.749 13.7718C264.502 13.7718 263.676 15.0721 263.676 17.4443C263.676 19.834 264.502 21.1167 265.749 21.1167C266.962 21.1167 267.788 19.834 267.788 17.4443C267.788 15.0721 266.962 13.7718 265.749 13.7718ZM282.478 14.2462C282.46 17.1104 283.69 20.0097 286.255 21.2397L284.902 23.032C283.189 22.1886 282.038 20.6071 281.371 18.6743C280.676 20.7477 279.438 22.4433 277.628 23.3307L276.24 21.5208C278.946 20.2733 280.228 17.2158 280.228 14.2462V11.8565H282.478V14.2462ZM289.207 10.6265V16.7941H291.562V18.6918H289.207V26.6166H286.958V10.6265H289.207ZM293.073 20.1503C293.073 16.8468 294.092 14.1057 295.779 11.7335H298.257C297.044 13.4907 295.779 17.005 295.779 20.1503C295.779 23.3131 297.044 26.8274 298.257 28.5846H295.779C294.092 26.2124 293.073 23.4537 293.073 20.1503ZM303.229 11.2064V12.8054H309.643V11.2064H311.875V17.743H307.552V19.096H313.737V20.8883H299.153V19.096H305.303V17.743H301.015V11.2064H303.229ZM303.229 15.9507H309.643V14.5274H303.229V15.9507ZM312.086 24.5431V26.3354H300.91V21.802H303.159V24.5431H312.086ZM328.181 10.6265V19.8691H325.949V16.144H323.419V14.3165H325.949V10.6265H328.181ZM328.181 20.5368V26.4409H317.427V20.5368H328.181ZM319.676 22.294V24.6486H325.985V22.294H319.676ZM323.929 11.4348V13.2447H320.748C320.783 15.0633 321.917 17.005 324.421 17.8308L323.314 19.6056C321.539 19.0169 320.318 17.8572 319.624 16.4075C318.912 18.0065 317.638 19.2805 315.758 19.8867L314.616 18.1295C317.199 17.3037 318.402 15.2654 318.464 13.2447H315.248V11.4348H323.929ZM335.385 20.1503C335.385 23.4537 334.366 26.2124 332.679 28.5846H330.202C331.414 26.8274 332.679 23.3131 332.679 20.1503C332.679 17.005 331.414 13.4907 330.202 11.7335H332.679C334.366 14.1057 335.385 16.8468 335.385 20.1503Z" fill="white"/>
</g>
<g clip-path="url(#clip1_300_391)">
<rect width="188.929" height="38" transform="translate(0 118)" fill="#5BBA56"/>
<path d="M53.4019 129.312C55.449 129.294 57.0744 130.463 57.5137 132.176H60.1845V128.627H62.4161V137.219H60.1845V133.968H57.5312C57.1095 135.725 55.4666 136.92 53.4019 136.92C50.9419 136.92 49.1321 135.321 49.1496 133.09C49.1321 130.893 50.9419 129.294 53.4019 129.312ZM53.4019 131.174C52.1544 131.157 51.2582 131.895 51.2758 133.09C51.2582 134.285 52.1544 135.04 53.4019 135.04C54.6144 135.04 55.493 134.285 55.493 133.09C55.493 131.895 54.6144 131.157 53.4019 131.174ZM53.9642 137.922V139.468H60.1845V137.922H62.4161V144.441H51.7502V137.922H53.9642ZM53.9642 142.631H60.1845V141.19H53.9642V142.631ZM79.109 137.57V139.363H72.8536V144.599H70.6396V139.363H64.472V137.57H79.109ZM77.3519 129.4V135.848H66.194V129.4H77.3519ZM68.408 131.174V134.091H75.1203V131.174H68.408ZM94.6598 137.852V139.609H88.4044V144.617H86.1904V139.609H80.0228V137.852H94.6598ZM83.9588 129.242V131.087H90.6711V129.242H92.9202V136.305H81.7448V129.242H83.9588ZM83.9588 134.513H90.6711V132.844H83.9588V134.513ZM96.5224 138.15C96.5224 134.847 97.5415 132.106 99.2284 129.734H101.706C100.494 131.491 99.2284 135.005 99.2284 138.15C99.2284 141.313 100.494 144.827 101.706 146.585H99.2284C97.5415 144.212 96.5224 141.454 96.5224 138.15ZM106.679 129.206V130.805H113.092V129.206H115.324V135.743H111.001V137.096H117.186V138.888H102.602V137.096H108.752V135.743H104.465V129.206H106.679ZM106.679 133.951H113.092V132.527H106.679V133.951ZM115.535 142.543V144.335H104.359V139.802H106.608V142.543H115.535ZM131.63 128.627V137.869H129.399V134.144H126.868V132.317H129.399V128.627H131.63ZM131.63 138.537V144.441H120.876V138.537H131.63ZM123.126 140.294V142.649H129.434V140.294H123.126ZM127.378 129.435V131.245H124.197C124.233 133.063 125.366 135.005 127.87 135.831L126.763 137.606C124.988 137.017 123.767 135.857 123.073 134.408C122.361 136.007 121.087 137.28 119.207 137.887L118.065 136.13C120.648 135.304 121.852 133.265 121.913 131.245H118.698V129.435H127.378ZM138.835 138.15C138.835 141.454 137.815 144.212 136.129 146.585H133.651C134.863 144.827 136.129 141.313 136.129 138.15C136.129 135.005 134.863 131.491 133.651 129.734H136.129C137.815 132.106 138.835 134.847 138.835 138.15Z" fill="white"/>
</g>
<g clip-path="url(#clip2_300_391)">
<rect width="188.929" height="38" transform="translate(687 118)" fill="#5BBA56"/>
<path d="M740.402 129.312C742.449 129.294 744.074 130.463 744.514 132.176H747.185V128.627H749.416V137.219H747.185V133.968H744.531C744.11 135.725 742.467 136.92 740.402 136.92C737.942 136.92 736.132 135.321 736.15 133.09C736.132 130.893 737.942 129.294 740.402 129.312ZM740.402 131.174C739.154 131.157 738.258 131.895 738.276 133.09C738.258 134.285 739.154 135.04 740.402 135.04C741.614 135.04 742.493 134.285 742.493 133.09C742.493 131.895 741.614 131.157 740.402 131.174ZM740.964 137.922V139.468H747.185V137.922H749.416V144.441H738.75V137.922H740.964ZM740.964 142.631H747.185V141.19H740.964V142.631ZM766.109 137.57V139.363H759.854V144.599H757.64V139.363H751.472V137.57H766.109ZM764.352 129.4V135.848H753.194V129.4H764.352ZM755.408 131.174V134.091H762.12V131.174H755.408ZM781.66 137.852V139.609H775.404V144.617H773.19V139.609H767.023V137.852H781.66ZM770.959 129.242V131.087H777.671V129.242H779.92V136.305H768.745V129.242H770.959ZM770.959 134.513H777.671V132.844H770.959V134.513ZM783.522 138.15C783.522 134.847 784.542 132.106 786.228 129.734H788.706C787.494 131.491 786.228 135.005 786.228 138.15C786.228 141.313 787.494 144.827 788.706 146.585H786.228C784.542 144.212 783.522 141.454 783.522 138.15ZM795.805 132.984C795.805 135.567 797.123 138.326 799.811 139.451L798.599 141.208C796.71 140.408 795.41 138.818 794.698 136.868C793.969 138.985 792.642 140.742 790.762 141.612L789.479 139.837C792.132 138.66 793.503 135.69 793.503 132.984V132H790.112V130.173H799.143V132H795.805V132.984ZM802.992 128.627V144.617H800.725V128.627H802.992ZM811.039 132.246C811.022 135.11 812.252 138.01 814.817 139.24L813.464 141.032C811.751 140.189 810.6 138.607 809.932 136.674C809.238 138.748 807.999 140.443 806.19 141.331L804.801 139.521C807.507 138.273 808.79 135.216 808.79 132.246V129.857H811.039V132.246ZM817.769 128.627V134.794H820.124V136.692H817.769V144.617H815.52V128.627H817.769ZM825.835 138.15C825.835 141.454 824.815 144.212 823.129 146.585H820.651C821.863 144.827 823.129 141.313 823.129 138.15C823.129 135.005 821.863 131.491 820.651 129.734H823.129C824.815 132.106 825.835 134.847 825.835 138.15Z" fill="white"/>
</g>
<g clip-path="url(#clip3_300_391)">
<rect width="188.929" height="38" transform="translate(497.929)" fill="#0031B0"/>
<path d="M552.696 10.6265V26.6166H550.57V18.5864H549.024V25.8434H546.968V10.8901H549.024V16.7941H550.57V10.6265H552.696ZM545.281 12.4715V14.2814H541.574V21.0991C543.12 21.0903 544.49 21.0113 546.037 20.7301L546.195 22.5576C544.244 22.9266 542.54 22.9793 540.431 22.9968H539.324V12.4715H545.281ZM569.055 23.0496V24.8419H554.418V23.0496H558.056V20.0097H555.631V18.1998H557.774V13.7015H555.56V11.9092H567.825V13.7015H565.576V18.1998H567.755V20.0097H565.348V23.0496H569.055ZM560.024 18.1998H563.362V13.7015H560.024V18.1998ZM560.305 23.0496H563.099V20.0097H560.305V23.0496ZM583.359 10.6265V26.6517H581.092V10.6265H583.359ZM574.678 11.7511C577.085 11.7511 578.878 13.9651 578.878 17.4443C578.878 20.9586 577.085 23.155 574.678 23.155C572.218 23.155 570.426 20.9586 570.443 17.4443C570.426 13.9651 572.218 11.7511 574.678 11.7511ZM574.678 13.7718C573.431 13.7718 572.605 15.0721 572.605 17.4443C572.605 19.834 573.431 21.1167 574.678 21.1167C575.891 21.1167 576.716 19.834 576.716 17.4443C576.716 15.0721 575.891 13.7718 574.678 13.7718ZM591.406 14.2462C591.389 17.1104 592.619 20.0097 595.184 21.2397L593.831 23.032C592.118 22.1886 590.967 20.6071 590.299 18.6743C589.605 20.7477 588.366 22.4433 586.557 23.3307L585.168 21.5208C587.874 20.2733 589.157 17.2158 589.157 14.2462V11.8565H591.406V14.2462ZM598.136 10.6265V16.7941H600.491V18.6918H598.136V26.6166H595.887V10.6265H598.136ZM602.002 20.1503C602.002 16.8468 603.021 14.1057 604.708 11.7335H607.185C605.973 13.4907 604.708 17.005 604.708 20.1503C604.708 23.3131 605.973 26.8274 607.185 28.5846H604.708C603.021 26.2124 602.002 23.4537 602.002 20.1503ZM614.284 14.9842C614.284 17.5673 615.602 20.326 618.291 21.4506L617.078 23.2077C615.189 22.4082 613.889 20.818 613.177 18.8675C612.448 20.9849 611.121 22.7421 609.241 23.6119L607.959 21.8371C610.612 20.6598 611.982 17.6903 611.982 14.9842V14.0002H608.591V12.1728H617.623V14.0002H614.284V14.9842ZM621.471 10.6265V26.6166H619.204V10.6265H621.471ZM629.519 14.2462C629.501 17.1104 630.731 20.0097 633.297 21.2397L631.944 23.032C630.23 22.1886 629.08 20.6071 628.412 18.6743C627.718 20.7477 626.479 22.4433 624.669 23.3307L623.281 21.5208C625.987 20.2733 627.27 17.2158 627.27 14.2462V11.8565H629.519V14.2462ZM636.249 10.6265V16.7941H638.603V18.6918H636.249V26.6166H634V10.6265H636.249ZM644.314 20.1503C644.314 23.4537 643.295 26.2124 641.608 28.5846H639.13C640.343 26.8274 641.608 23.3131 641.608 20.1503C641.608 17.005 640.343 13.4907 639.13 11.7335H641.608C643.295 14.1057 644.314 16.8468 644.314 20.1503Z" fill="white"/>
</g>
<line x1="438.398" y1="20" x2="438.398" y2="212" stroke="#7C7C7C" stroke-width="0.796949"/>
<path d="M682 302V212H194V302" stroke="#7C7C7C" stroke-width="0.89966"/>
<g clip-path="url(#clip4_300_391)">
<rect width="348" height="38" transform="translate(508 302)" fill="#222222"/>
<path d="M648.952 312.627V320.762H646.72V316.791H643.715V315.016H646.72V312.627H648.952ZM648.952 321.43V325.7H640.553V326.684H649.409V328.441H638.339V324.066H646.738V323.152H638.321V321.43H648.952ZM641.466 314.313C641.449 316.229 642.573 318.074 645.121 318.829L643.944 320.551C642.231 319.998 641.036 318.926 640.342 317.547C639.648 319.084 638.383 320.296 636.511 320.885L635.351 319.11C638.005 318.337 639.182 316.387 639.2 314.313V313.154H641.466V314.313ZM664.889 312.627V328.617H662.781V312.627H664.889ZM661.551 312.978V327.914H659.424V322.642H657.158V320.832H659.424V318.654H657.456C656.71 321.289 655.093 323.521 652.097 325.296L650.779 323.714C654.021 321.799 655.444 319.471 655.752 316.334H651.71V314.524H657.984C657.984 315.324 657.931 316.097 657.843 316.844H659.424V312.978H661.551ZM672.462 316.246C672.445 319.11 673.675 322.01 676.24 323.24L674.887 325.032C673.174 324.189 672.023 322.607 671.355 320.674C670.661 322.748 669.423 324.443 667.613 325.331L666.225 323.521C668.931 322.273 670.213 319.216 670.213 316.246V313.857H672.462V316.246ZM679.192 312.627V318.794H681.547V320.692H679.192V328.617H676.943V312.627H679.192ZM686.59 313.312C688.637 313.294 690.262 314.463 690.702 316.176H693.372V312.627H695.604V321.219H693.372V317.968H690.719C690.297 319.725 688.655 320.92 686.59 320.92C684.13 320.92 682.32 319.321 682.338 317.09C682.32 314.893 684.13 313.294 686.59 313.312ZM686.59 315.174C685.342 315.157 684.446 315.895 684.464 317.09C684.446 318.285 685.342 319.04 686.59 319.04C687.802 319.04 688.681 318.285 688.681 317.09C688.681 315.895 687.802 315.157 686.59 315.174ZM687.152 321.922V323.468H693.372V321.922H695.604V328.441H684.938V321.922H687.152ZM687.152 326.631H693.372V325.19H687.152V326.631ZM701.754 313.206V314.805H708.168V313.206H710.399V319.743H706.077V321.096H712.262V322.888H697.678V321.096H703.828V319.743H699.54V313.206H701.754ZM701.754 317.951H708.168V316.527H701.754V317.951ZM710.61 326.543V328.335H699.435V323.802H701.684V326.543H710.61ZM727.848 321.852V323.609H721.592V328.617H719.378V323.609H713.211V321.852H727.848ZM717.147 313.242V315.087H723.859V313.242H726.108V320.305H714.933V313.242H717.147ZM717.147 318.513H723.859V316.844H717.147V318.513Z" fill="white"/>
<mask id="path-15-inside-1_300_391" fill="white">
<path d="M508 340H682V378H508V340Z"/>
</mask>
<path d="M508 340H682V378H508V340Z" fill="#5F5F5F"/>
<path d="M569.952 350.644V362.312H567.72V356.583H565.102V354.773H567.72V350.644H569.952ZM570.338 364.543V366.335H559.339V361.292H561.588V364.543H570.338ZM562.519 353.772C562.519 355.617 563.644 357.602 566.191 358.428L565.084 360.203C563.31 359.632 562.097 358.463 561.394 357.005C560.692 358.622 559.418 359.904 557.529 360.537L556.387 358.709C559.022 357.884 560.217 355.793 560.235 353.754V353.508H557.019V351.716H565.699V353.508H562.519V353.772ZM585.467 350.627V366.617H583.201V350.627H585.467ZM580.67 352.296C580.67 357.146 578.966 361.169 573.255 363.875L572.078 362.083C576.207 360.133 578.026 357.602 578.386 354.053H572.939V352.296H580.67ZM601.053 350.627V358.762H598.822V354.791H595.817V353.016H598.822V350.627H601.053ZM601.053 359.43V363.7H592.654V364.684H601.51V366.441H590.44V362.066H598.839V361.152H590.423V359.43H601.053ZM593.568 352.313C593.55 354.229 594.675 356.074 597.223 356.829L596.045 358.551C594.332 357.998 593.137 356.926 592.443 355.547C591.749 357.084 590.484 358.296 588.613 358.885L587.453 357.11C590.106 356.337 591.284 354.387 591.301 352.313V351.154H593.568V352.313ZM616.991 350.627V366.617H614.882V350.627H616.991ZM613.652 350.978V365.914H611.526V360.642H609.259V358.832H611.526V356.654H609.558C608.811 359.289 607.195 361.521 604.199 363.296L602.881 361.714C606.123 359.799 607.546 357.471 607.853 354.334H603.812V352.524H610.085C610.085 353.324 610.032 354.097 609.944 354.844H611.526V350.978H613.652ZM633.297 359.852V361.609H627.042V366.617H624.828V361.609H618.66V359.852H633.297ZM622.596 351.242V353.087H629.308V351.242H631.557V358.305H620.382V351.242H622.596ZM622.596 356.513H629.308V354.844H622.596V356.513Z" fill="white"/>
<path d="M682 378V379H683V378H682ZM681 340V378H683V340H681ZM682 377H508V379H682V377Z" fill="white" mask="url(#path-15-inside-1_300_391)"/>
<mask id="path-18-inside-2_300_391" fill="white">
<path d="M682 340H856V378H682V340Z"/>
</mask>
<path d="M682 340H856V378H682V340Z" fill="#5F5F5F"/>
<path d="M726.559 358.868V360.625H711.939V358.868H718.124V357.884H713.767V351.013H724.854V352.735H716.016V353.631H724.485V355.248H716.016V356.162H724.995V357.884H720.374V358.868H726.559ZM719.249 361.363C722.781 361.345 724.802 362.294 724.819 363.981C724.802 365.703 722.781 366.617 719.249 366.617C715.664 366.617 713.644 365.703 713.644 363.981C713.644 362.294 715.664 361.345 719.249 361.363ZM719.249 363.014C716.947 363.014 715.875 363.313 715.893 363.981C715.875 364.666 716.947 364.965 719.249 364.965C721.498 364.965 722.552 364.666 722.57 363.981C722.552 363.313 721.498 363.014 719.249 363.014ZM740.915 350.644V362.312H738.666V350.644H740.915ZM741.336 364.543V366.335H730.196V361.187H732.463V364.543H741.336ZM733.658 353.069C733.64 355.178 734.765 357.251 737.4 358.094L736.258 359.852C734.457 359.254 733.21 358.059 732.498 356.531C731.786 358.173 730.504 359.491 728.632 360.133L727.472 358.358C730.161 357.462 731.321 355.23 731.321 353.069V351.523H733.658V353.069ZM746.45 363.7L744.939 368.708H743.076L743.955 363.7H746.45ZM761.631 350.644V362.312H759.382V350.644H761.631ZM762.053 364.543V366.335H750.913V361.187H753.18V364.543H762.053ZM754.374 353.069C754.357 355.178 755.481 357.251 758.117 358.094L756.975 359.852C755.174 359.254 753.926 358.059 753.215 356.531C752.503 358.173 751.22 359.491 749.349 360.133L748.189 358.358C750.878 357.462 752.037 355.23 752.037 353.069V351.523H754.374V353.069ZM777.727 352.647V354.44H764.425V352.647H769.96V350.785H772.174V352.647H777.727ZM778.43 363.19V364.982H763.793V363.19H769.96V361.345C767.237 361.117 765.585 359.992 765.603 358.235C765.585 356.302 767.694 355.125 771.067 355.142C774.388 355.125 776.515 356.302 776.515 358.235C776.515 359.992 774.854 361.117 772.174 361.345V363.19H778.43ZM771.067 356.882C768.994 356.882 767.887 357.321 767.904 358.235C767.887 359.184 768.994 359.606 771.067 359.606C773.088 359.606 774.213 359.184 774.213 358.235C774.213 357.321 773.088 356.882 771.067 356.882ZM792.821 350.627V358.762H790.589V354.791H787.585V353.016H790.589V350.627H792.821ZM792.821 359.43V363.7H784.422V364.684H793.278V366.441H782.208V362.066H790.607V361.152H782.19V359.43H792.821ZM785.335 352.313C785.318 354.229 786.442 356.074 788.99 356.829L787.813 358.551C786.1 357.998 784.905 356.926 784.211 355.547C783.517 357.084 782.252 358.296 780.38 358.885L779.221 357.11C781.874 356.337 783.051 354.387 783.069 352.313V351.154H785.335V352.313ZM808.758 350.627V366.617H806.65V350.627H808.758ZM805.42 350.978V365.914H803.293V360.642H801.027V358.832H803.293V356.654H801.325C800.579 359.289 798.962 361.521 795.966 363.296L794.648 361.714C797.89 359.799 799.314 357.471 799.621 354.334H795.58V352.524H801.853C801.853 353.324 801.8 354.097 801.712 354.844H803.293V350.978H805.42ZM825.065 359.852V361.609H818.809V366.617H816.595V361.609H810.428V359.852H825.065ZM814.364 351.242V353.087H821.076V351.242H823.325V358.305H812.15V351.242H814.364ZM814.364 356.513H821.076V354.844H814.364V356.513Z" fill="white"/>
<path d="M856 377H682V379H856V377Z" fill="white" mask="url(#path-18-inside-2_300_391)"/>
</g>
<g clip-path="url(#clip5_300_391)">
<rect width="348" height="38" transform="translate(20 302)" fill="#222222"/>
<path d="M160.161 312.627V316.123H162.322V317.968H160.161V321.57H157.912V312.627H160.161ZM155.68 313.558C155.663 317.793 152.992 320.657 148.195 321.922L147.299 320.147C150.883 319.26 152.86 317.485 153.238 315.35H148.089V313.558H155.68ZM160.161 322.168V328.423H149.706V322.168H160.161ZM151.938 323.978V326.666H157.947V323.978H151.938ZM176.432 312.627V328.652H174.201V312.627H176.432ZM171.477 313.962V320.13H166.206V323.064C168.639 323.055 170.713 322.915 173.059 322.537L173.252 324.347C170.616 324.804 168.244 324.909 165.327 324.909H163.886V318.355H169.193V315.772H163.869V313.962H171.477ZM184.462 316.246C184.445 319.11 185.675 322.01 188.24 323.24L186.887 325.032C185.174 324.189 184.023 322.607 183.355 320.674C182.661 322.748 181.423 324.443 179.613 325.331L178.225 323.521C180.931 322.273 182.213 319.216 182.213 316.246V313.857H184.462V316.246ZM191.192 312.627V318.794H193.547V320.692H191.192V328.617H188.943V312.627H191.192ZM198.59 313.312C200.637 313.294 202.262 314.463 202.702 316.176H205.372V312.627H207.604V321.219H205.372V317.968H202.719C202.297 319.725 200.655 320.92 198.59 320.92C196.13 320.92 194.32 319.321 194.338 317.09C194.32 314.893 196.13 313.294 198.59 313.312ZM198.59 315.174C197.342 315.157 196.446 315.895 196.464 317.09C196.446 318.285 197.342 319.04 198.59 319.04C199.802 319.04 200.681 318.285 200.681 317.09C200.681 315.895 199.802 315.157 198.59 315.174ZM199.152 321.922V323.468H205.372V321.922H207.604V328.441H196.938V321.922H199.152ZM199.152 326.631H205.372V325.19H199.152V326.631ZM213.754 313.206V314.805H220.168V313.206H222.399V319.743H218.077V321.096H224.262V322.888H209.678V321.096H215.828V319.743H211.54V313.206H213.754ZM213.754 317.951H220.168V316.527H213.754V317.951ZM222.61 326.543V328.335H211.435V323.802H213.684V326.543H222.61ZM239.848 321.852V323.609H233.592V328.617H231.378V323.609H225.211V321.852H239.848ZM229.147 313.242V315.087H235.859V313.242H238.108V320.305H226.933V313.242H229.147ZM229.147 318.513H235.859V316.844H229.147V318.513Z" fill="white"/>
<mask id="path-23-inside-3_300_391" fill="white">
<path d="M20 340H368V378H20V340Z"/>
</mask>
<path d="M20 340H368V378H20V340Z" fill="#5F5F5F"/>
<path d="M166.952 350.644V362.312H164.72V356.583H162.102V354.773H164.72V350.644H166.952ZM167.338 364.543V366.335H156.339V361.292H158.588V364.543H167.338ZM159.519 353.772C159.519 355.617 160.644 357.602 163.191 358.428L162.084 360.203C160.31 359.632 159.097 358.463 158.394 357.005C157.692 358.622 156.418 359.904 154.529 360.537L153.387 358.709C156.022 357.884 157.217 355.793 157.235 353.754V353.508H154.019V351.716H162.699V353.508H159.519V353.772ZM182.467 350.627V366.617H180.201V350.627H182.467ZM177.67 352.296C177.67 357.146 175.966 361.169 170.255 363.875L169.078 362.083C173.207 360.133 175.026 357.602 175.386 354.053H169.939V352.296H177.67ZM201.409 350.627V354.123H203.571V355.968H201.409V359.57H199.16V350.627H201.409ZM196.929 351.558C196.911 355.793 194.24 358.657 189.443 359.922L188.547 358.147C192.132 357.26 194.109 355.485 194.486 353.35H189.338V351.558H196.929ZM201.409 360.168V366.423H190.954V360.168H201.409ZM193.186 361.978V364.666H199.195V361.978H193.186ZM217.681 350.627V366.652H215.449V350.627H217.681ZM212.726 351.962V358.13H207.454V361.064C209.888 361.055 211.961 360.915 214.307 360.537L214.5 362.347C211.865 362.804 209.492 362.909 206.575 362.909H205.135V356.355H210.441V353.772H205.117V351.962H212.726ZM234.444 359.852V361.609H228.188V366.617H225.974V361.609H219.807V359.852H234.444ZM223.743 351.242V353.087H230.455V351.242H232.704V358.305H221.529V351.242H223.743ZM223.743 356.513H230.455V354.844H223.743V356.513Z" fill="white"/>
<path d="M368 377H20V379H368V377Z" fill="white" mask="url(#path-23-inside-3_300_391)"/>
</g>
<defs>
<clipPath id="clip0_300_391">
<rect x="189" width="188.929" height="38" rx="8" fill="white"/>
</clipPath>
<clipPath id="clip1_300_391">
<rect y="118" width="188.929" height="38" rx="8" fill="white"/>
</clipPath>
<clipPath id="clip2_300_391">
<rect x="687" y="118" width="188.929" height="38" rx="8" fill="white"/>
</clipPath>
<clipPath id="clip3_300_391">
<rect x="497.929" width="188.929" height="38" rx="8" fill="white"/>
</clipPath>
<clipPath id="clip4_300_391">
<rect x="508" y="302" width="348" height="76" rx="8" fill="white"/>
</clipPath>
<clipPath id="clip5_300_391">
<rect x="20" y="302" width="348" height="76" rx="8" fill="white"/>
</clipPath>
</defs>
</svg>
