<svg width="1203" height="545" viewBox="0 0 1203 545" fill="none" xmlns="http://www.w3.org/2000/svg">
<rect x="286" y="116" width="210" height="52.3467" rx="4" fill="#0031B0"/>
<path d="M362.969 133.197V150.97H360.449V133.197H362.969ZM357.637 135.052C357.637 140.443 355.742 144.916 349.395 147.923L348.086 145.931C352.676 143.763 354.697 140.951 355.098 137.005H349.043V135.052H357.637ZM374.707 133.666C374.707 135.404 376.758 137.142 380.723 137.572L379.902 139.447C376.807 139.105 374.551 137.943 373.418 136.302C372.256 137.943 370.01 139.105 366.953 139.447L366.113 137.572C370.098 137.142 372.129 135.404 372.148 133.666V133.294H374.707V133.666ZM381.523 140.189V142.142H374.648V143.314H379.551V147.904H369.648V148.978H380.02V150.853H367.207V146.146H377.09V145.208H367.188V143.314H372.148V142.142H365.312V140.189H381.523ZM397.578 133.216V146.205H395.098V141.986H391.035C390.176 142.894 388.936 143.451 387.559 143.451C384.863 143.451 382.812 141.498 382.832 138.861C382.812 136.185 384.863 134.251 387.559 134.232C388.936 134.242 390.166 134.789 391.035 135.697H395.098V133.216H397.578ZM398.008 148.666V150.658H385.781V144.896H388.281V148.666H398.008ZM387.559 136.458C386.172 136.458 385.176 137.357 385.195 138.861C385.176 140.345 386.172 141.244 387.559 141.244C388.867 141.244 389.883 140.345 389.883 138.861C389.883 137.357 388.867 136.458 387.559 136.458ZM392.109 137.689C392.197 138.06 392.246 138.451 392.246 138.861C392.246 139.251 392.197 139.632 392.109 139.994H395.098V137.689H392.109ZM414.199 134.232V135.833C414.199 137.494 414.199 139.31 413.75 141.791H416.094V143.802H409.16V150.99H406.66V143.802H399.883V141.791H411.23C411.68 139.496 411.719 137.757 411.719 136.224H401.738V134.232H414.199ZM433.438 146.849V148.841H417.168V146.849H423.965V142.826H426.445V146.849H433.438ZM426.523 135.482C426.523 138.021 428.809 140.697 432.871 141.322L431.816 143.392C428.691 142.826 426.367 141.156 425.195 138.939C424.023 141.146 421.719 142.835 418.613 143.392L417.559 141.322C421.582 140.697 423.848 138.001 423.867 135.482V134.212H426.523V135.482Z" fill="white"/>
<line x1="496" y1="141.73" x2="706" y2="141.73" stroke="#7C7C7C" stroke-width="0.885833"/>
<rect x="706" y="116" width="210" height="52.3467" rx="4" fill="#0031B0"/>
<path d="M783.008 133.216V146.185H780.527V139.818H777.617V137.806H780.527V133.216H783.008ZM783.438 148.666V150.658H771.211V145.052H773.711V148.666H783.438ZM774.746 136.693C774.746 138.744 775.996 140.951 778.828 141.869L777.598 143.841C775.625 143.207 774.277 141.908 773.496 140.287C772.715 142.083 771.299 143.509 769.199 144.212L767.93 142.181C770.859 141.263 772.188 138.939 772.207 136.673V136.4H768.633V134.408H778.281V136.4H774.746V136.693ZM801.777 135.658V137.689H799.414V139.447H801.777V141.498H799.414V143.998H796.914V133.216H799.414V135.658H801.777ZM794.102 134.193V139.642H788.438V141.341C791.377 141.322 793.369 141.224 795.625 140.814L795.898 142.806C793.34 143.255 791.055 143.373 787.461 143.373H785.957V137.748H791.68V136.185H785.938V134.193H794.102ZM799.414 144.818V150.951H796.914V146.81H787.441V144.818H799.414ZM817.539 133.197V150.97H815.02V133.197H817.539ZM812.207 135.052C812.207 140.443 810.312 144.916 803.965 147.923L802.656 145.931C807.246 143.763 809.268 140.951 809.668 137.005H803.613V135.052H812.207ZM831.035 134.505V136.322H820.488V134.505H824.512V133.08H826.992V134.505H831.035ZM825.762 136.732C828.398 136.732 830.195 137.767 830.215 139.427C830.195 140.785 828.945 141.712 826.992 141.986V142.826C828.418 142.767 829.844 142.66 831.191 142.494L831.367 144.154C827.578 144.818 823.418 144.876 820.293 144.876L819.961 142.982C821.338 142.982 822.891 142.972 824.512 142.923V141.986C822.529 141.712 821.289 140.785 821.309 139.427C821.289 137.767 823.066 136.732 825.762 136.732ZM825.762 138.392C824.492 138.392 823.711 138.724 823.711 139.427C823.711 140.072 824.492 140.404 825.762 140.404C826.973 140.404 827.812 140.072 827.812 139.427C827.812 138.724 826.973 138.392 825.762 138.392ZM834.824 133.236V145.228H832.285V133.236H834.824ZM834.824 145.931V150.97H832.285V147.845H822.461V145.931H834.824ZM852.031 133.197V142.201H849.551V133.197H852.031ZM852.051 142.962V147.787H842.598V148.88H852.539V150.853H840.156V145.931H849.57V144.896H840.117V142.962H852.051ZM843.984 134.955C843.965 137.103 845.254 139.173 848.164 140.013L846.953 141.927C844.912 141.332 843.506 140.101 842.715 138.529C841.895 140.248 840.439 141.615 838.32 142.24L837.09 140.287C840.059 139.408 841.387 137.162 841.387 134.955V133.587H843.984V134.955Z" fill="white"/>
<rect x="496" width="210" height="52.3467" rx="4" fill="#5BBA56"/>
<path d="M590.645 23.9546C590.41 22.3921 589.199 21.4351 587.559 21.4351C585.352 21.4351 583.906 23.1343 583.906 26.103C583.906 29.1499 585.371 30.771 587.539 30.771C589.16 30.771 590.352 29.8726 590.645 28.3491L593.613 28.3687C593.281 30.9858 591.094 33.3687 587.5 33.3687C583.711 33.3687 580.918 30.7124 580.918 26.103C580.918 21.4937 583.77 18.8374 587.5 18.8374C590.762 18.8374 593.223 20.7124 593.613 23.9546H590.645ZM595.664 33.1733V19.0327H605.156V21.4546H598.594V24.8921H604.668V27.314H598.594V30.7515H605.176V33.1733H595.664ZM620.391 26.103C620.391 30.7124 617.52 33.3687 613.789 33.3687C610.02 33.3687 607.168 30.6929 607.168 26.103C607.168 21.4937 610.02 18.8374 613.789 18.8374C617.52 18.8374 620.391 21.4937 620.391 26.103ZM617.402 26.103C617.402 23.0757 615.977 21.4351 613.789 21.4351C611.602 21.4351 610.156 23.0757 610.156 26.103C610.156 29.1304 611.602 30.771 613.789 30.771C615.977 30.771 617.402 29.1304 617.402 26.103Z" fill="white"/>
<line x1="601.443" y1="52.3467" x2="601.443" y2="212.347" stroke="#7C7C7C" stroke-width="0.885833"/>
<rect y="312.347" width="210" height="52.3467" rx="4" fill="#006028"/>
<path d="M60.0703 333.059C60.0703 334.641 61.457 336.262 64.3281 336.829L63.2344 338.723C61.1543 338.284 59.6895 337.268 58.8789 335.93C58.0781 337.405 56.5938 338.528 54.4258 339.016L53.3711 337.122C56.2422 336.458 57.5898 334.778 57.5898 333.059V333H54.0156V331.028H57.5898V329.465H60.1094V331.028H63.6641V333H60.0703V333.059ZM68.5078 329.543V338.782H66.0273V335.676H63.1953V333.704H66.0273V329.543H68.5078ZM68.5078 339.426V344.192H59.1914V345.286H69.0352V347.2H56.6914V342.375H66.0273V341.321H56.6719V339.426H68.5078ZM85.3047 337.493V339.465H80.1484V343.254H87.082V345.286H70.8125V343.254H77.668V339.465H72.7266V330.793H85.168V332.786H75.2266V337.493H85.3047ZM94.6406 333.567C94.6211 336.75 95.9883 339.973 98.8398 341.34L97.3359 343.333C95.4316 342.395 94.1523 340.637 93.4102 338.489C92.6387 340.793 91.2617 342.678 89.25 343.665L87.707 341.653C90.7148 340.266 92.1406 336.868 92.1406 333.567V330.911H94.6406V333.567ZM102.121 329.543V336.399H104.738V338.508H102.121V347.317H99.6211V329.543H102.121ZM110.344 330.305C112.619 330.286 114.426 331.584 114.914 333.489H117.883V329.543H120.363V339.094H117.883V335.481H114.934C114.465 337.434 112.639 338.762 110.344 338.762C107.609 338.762 105.598 336.985 105.617 334.504C105.598 332.063 107.609 330.286 110.344 330.305ZM110.344 332.375C108.957 332.356 107.961 333.176 107.98 334.504C107.961 335.833 108.957 336.672 110.344 336.672C111.691 336.672 112.668 335.833 112.668 334.504C112.668 333.176 111.691 332.356 110.344 332.375ZM110.969 339.875V341.594H117.883V339.875H120.363V347.122H108.508V339.875H110.969ZM110.969 345.11H117.883V343.508H110.969V345.11ZM127.199 330.188V331.965H134.328V330.188H136.809V337.454H132.004V338.958H138.879V340.95H122.668V338.958H129.504V337.454H124.738V330.188H127.199ZM127.199 335.461H134.328V333.879H127.199V335.461ZM137.043 345.012V347.004H124.621V341.965H127.121V345.012H137.043ZM156.203 339.797V341.75H149.25V347.317H146.789V341.75H139.934V339.797H156.203ZM144.309 330.227V332.278H151.77V330.227H154.27V338.079H141.848V330.227H144.309ZM144.309 336.086H151.77V334.231H144.309V336.086Z" fill="white"/>
<rect x="283.467" y="312.347" width="210" height="52.3467" rx="4" fill="#006028"/>
<path d="M351.31 330.579V332.18C351.31 333.84 351.31 335.657 350.861 338.137H353.205V340.149H346.271V347.336H343.771V340.149H336.994V338.137H348.342C348.791 335.842 348.83 334.104 348.83 332.571H338.849V330.579H351.31ZM370.549 343.235V345.247H354.279V343.235H361.154V339.27H363.654V343.235H370.549ZM369.123 330.891V332.903H363.713C363.918 335.247 366.125 337.424 369.943 337.981L368.967 339.954C365.851 339.407 363.547 337.883 362.404 335.774C361.271 337.922 358.986 339.485 355.92 340.051L354.943 338.079C358.635 337.483 360.851 335.256 361.057 332.903H355.627V330.891H369.123ZM378.107 333.567C378.088 336.75 379.455 339.973 382.307 341.34L380.803 343.333C378.898 342.395 377.619 340.637 376.877 338.489C376.105 340.793 374.728 342.678 372.717 343.665L371.174 341.653C374.182 340.266 375.607 336.868 375.607 333.567V330.911H378.107V333.567ZM385.588 329.543V336.399H388.205V338.508H385.588V347.317H383.088V329.543H385.588ZM393.81 330.305C396.086 330.286 397.892 331.584 398.381 333.489H401.349V329.543H403.83V339.094H401.349V335.481H398.4C397.932 337.434 396.105 338.762 393.81 338.762C391.076 338.762 389.064 336.985 389.084 334.504C389.064 332.063 391.076 330.286 393.81 330.305ZM393.81 332.375C392.424 332.356 391.428 333.176 391.447 334.504C391.428 335.833 392.424 336.672 393.81 336.672C395.158 336.672 396.135 335.833 396.135 334.504C396.135 333.176 395.158 332.356 393.81 332.375ZM394.435 339.875V341.594H401.349V339.875H403.83V347.122H391.974V339.875H394.435ZM394.435 345.11H401.349V343.508H394.435V345.11ZM410.666 330.188V331.965H417.795V330.188H420.275V337.454H415.471V338.958H422.346V340.95H406.135V338.958H412.971V337.454H408.205V330.188H410.666ZM410.666 335.461H417.795V333.879H410.666V335.461ZM420.51 345.012V347.004H408.088V341.965H410.588V345.012H420.51ZM439.67 339.797V341.75H432.717V347.317H430.256V341.75H423.4V339.797H439.67ZM427.775 330.227V332.278H435.236V330.227H437.736V338.079H425.314V330.227H427.775ZM427.775 336.086H435.236V334.231H427.775V336.086Z" fill="white"/>
<rect x="566.933" y="312.347" width="210" height="52.3467" rx="4" fill="#006028"/>
<path d="M609.855 334.387C609.855 337.258 611.32 340.325 614.308 341.575L612.961 343.528C610.861 342.639 609.416 340.872 608.625 338.704C607.814 341.057 606.34 343.01 604.25 343.977L602.824 342.004C605.773 340.696 607.297 337.395 607.297 334.387V333.293H603.527V331.262H613.566V333.293H609.855V334.387ZM617.844 329.543V347.317H615.324V329.543H617.844ZM634.347 329.563V334.563H636.75V336.614H634.347V342.649H631.847V329.563H634.347ZM634.992 345.012V347.004H622.824V341.301H625.304V345.012H634.992ZM623.254 330.813V333.391H626.886V330.813H629.386V339.817H620.773V330.813H623.254ZM623.254 337.864H626.886V335.305H623.254V337.864ZM652.531 329.543V347.356H650.07V337.825H646.945V335.813H650.07V329.543H652.531ZM646.652 331.028V333.04H640.832V335.989H646.008V337.942H640.832V341.301C643.293 341.282 645.265 341.194 647.472 340.852L647.726 342.844C645.129 343.235 642.804 343.333 639.758 343.333H638.351V331.028H646.652ZM658.273 330.286V336.047C660.49 336.028 662.756 335.862 665.148 335.442L665.48 337.454C662.57 337.981 659.914 338.137 657.277 338.118H655.812V330.286H658.273ZM669.797 329.543V338.547H667.316V334.036H662.922V332.043H667.316V329.543H669.797ZM669.797 339.211V344.055H660.5V345.129H670.226V347.122H658V342.161H667.297V341.165H657.98V339.211H669.797ZM678.644 333.567C678.625 336.75 679.992 339.973 682.844 341.34L681.34 343.333C679.435 342.395 678.156 340.637 677.414 338.489C676.642 340.793 675.265 342.678 673.254 343.665L671.711 341.653C674.719 340.266 676.144 336.868 676.144 333.567V330.911H678.644V333.567ZM686.125 329.543V336.399H688.742V338.508H686.125V347.317H683.625V329.543H686.125ZM694.347 330.305C696.623 330.286 698.429 331.584 698.918 333.489H701.886V329.543H704.367V339.094H701.886V335.481H698.937C698.469 337.434 696.642 338.762 694.347 338.762C691.613 338.762 689.601 336.985 689.621 334.504C689.601 332.063 691.613 330.286 694.347 330.305ZM694.347 332.375C692.961 332.356 691.965 333.176 691.984 334.504C691.965 335.833 692.961 336.672 694.347 336.672C695.695 336.672 696.672 335.833 696.672 334.504C696.672 333.176 695.695 332.356 694.347 332.375ZM694.972 339.875V341.594H701.886V339.875H704.367V347.122H692.511V339.875H694.972ZM694.972 345.11H701.886V343.508H694.972V345.11ZM711.203 330.188V331.965H718.332V330.188H720.812V337.454H716.008V338.958H722.883V340.95H706.672V338.958H713.508V337.454H708.742V330.188H711.203ZM711.203 335.461H718.332V333.879H711.203V335.461ZM721.047 345.012V347.004H708.625V341.965H711.125V345.012H721.047ZM740.207 339.797V341.75H733.254V347.317H730.793V341.75H723.937V339.797H740.207ZM728.312 330.227V332.278H735.773V330.227H738.273V338.079H725.851V330.227H728.312ZM728.312 336.086H735.773V334.231H728.312V336.086Z" fill="white"/>
<rect x="850.4" y="312.347" width="210" height="52.3467" rx="4" fill="#006028"/>
<path d="M919.552 329.543V347.317H917.209V329.543H919.552ZM915.959 329.836V346.477H913.615V342.434H910.861V340.5H913.615V329.836H915.959ZM911.896 331.379V332.239C911.896 333.313 911.896 334.944 911.505 337.122C911.945 337.073 912.384 337.024 912.795 336.965L912.97 338.743C911.906 338.938 910.714 339.075 909.513 339.172V345.891H907.13V339.309C905.949 339.358 904.836 339.368 903.908 339.368L903.673 337.395C905.138 337.395 907.111 337.385 909.064 337.297C909.377 335.647 909.474 334.358 909.513 333.352H904.611V331.379H911.896ZM935.705 337.493V339.465H930.548V343.254H937.482V345.286H921.213V343.254H928.068V339.465H923.127V330.793H935.568V332.786H925.627V337.493H935.705ZM945.041 333.567C945.021 336.75 946.388 339.973 949.24 341.34L947.736 343.333C945.832 342.395 944.552 340.637 943.81 338.489C943.039 340.793 941.662 342.678 939.65 343.665L938.107 341.653C941.115 340.266 942.541 336.868 942.541 333.567V330.911H945.041V333.567ZM952.521 329.543V336.399H955.138V338.508H952.521V347.317H950.021V329.543H952.521ZM960.744 330.305C963.019 330.286 964.826 331.584 965.314 333.489H968.283V329.543H970.763V339.094H968.283V335.481H965.334C964.865 337.434 963.039 338.762 960.744 338.762C958.009 338.762 955.998 336.985 956.017 334.504C955.998 332.063 958.009 330.286 960.744 330.305ZM960.744 332.375C959.357 332.356 958.361 333.176 958.38 334.504C958.361 335.833 959.357 336.672 960.744 336.672C962.091 336.672 963.068 335.833 963.068 334.504C963.068 333.176 962.091 332.356 960.744 332.375ZM961.369 339.875V341.594H968.283V339.875H970.763V347.122H958.908V339.875H961.369ZM961.369 345.11H968.283V343.508H961.369V345.11ZM977.599 330.188V331.965H984.728V330.188H987.209V337.454H982.404V338.958H989.279V340.95H973.068V338.958H979.904V337.454H975.138V330.188H977.599ZM977.599 335.461H984.728V333.879H977.599V335.461ZM987.443 345.012V347.004H975.021V341.965H977.521V345.012H987.443ZM1006.6 339.797V341.75H999.65V347.317H997.189V341.75H990.334V339.797H1006.6ZM994.709 330.227V332.278H1002.17V330.227H1004.67V338.079H992.248V330.227H994.709ZM994.709 336.086H1002.17V334.231H994.709V336.086Z" fill="white"/>
<line x1="390.21" y1="212.347" x2="390.21" y2="318.647" stroke="#7C7C7C" stroke-width="0.885833"/>
<line x1="673.676" y1="212.347" x2="673.676" y2="318.647" stroke="#7C7C7C" stroke-width="0.885833"/>
<line x1="955.443" y1="212.347" x2="955.443" y2="318.647" stroke="#7C7C7C" stroke-width="0.885833"/>
<path d="M1098 312.347V212.347H106V312.347" stroke="#7C7C7C" stroke-width="0.885833"/>
<line x1="247.176" y1="212.347" x2="247.176" y2="492.347" stroke="#7C7C7C" stroke-width="0.885833"/>
<rect x="141.733" y="492.347" width="210" height="52.3467" rx="4" fill="#006028"/>
<path d="M192.741 509.563V522.551H190.261V516.75H187.077V514.7H190.261V509.563H192.741ZM187.233 510.872C187.233 515.637 184.206 519.153 179.011 520.774L177.995 518.801C181.677 517.649 184.05 515.53 184.519 512.903H178.913V510.872H187.233ZM193.19 525.012V527.004H181.022V521.243H183.562V525.012H193.19ZM210.026 509.543V518.586H207.546V514.172H204.206V512.2H207.546V509.543H210.026ZM210.026 519.329V524.075H200.69V525.168H210.534V527.122H198.229V522.258H207.565V521.243H198.21V519.329H210.026ZM201.706 511.418C201.687 513.547 202.937 515.598 205.769 516.438L204.46 518.352C202.556 517.737 201.228 516.545 200.456 515.012C199.685 516.721 198.278 518.069 196.198 518.723L194.909 516.75C197.858 515.891 199.167 513.723 199.187 511.418V510.129H201.706V511.418ZM218.874 513.567C218.854 516.75 220.222 519.973 223.073 521.34L221.569 523.333C219.665 522.395 218.386 520.637 217.644 518.489C216.872 520.793 215.495 522.678 213.483 523.665L211.94 521.653C214.948 520.266 216.374 516.868 216.374 513.567V510.911H218.874V513.567ZM226.354 509.543V516.399H228.972V518.508H226.354V527.317H223.854V509.543H226.354ZM234.577 510.305C236.853 510.286 238.659 511.584 239.147 513.489H242.116V509.543H244.597V519.094H242.116V515.481H239.167C238.698 517.434 236.872 518.762 234.577 518.762C231.843 518.762 229.831 516.985 229.851 514.504C229.831 512.063 231.843 510.286 234.577 510.305ZM234.577 512.375C233.19 512.356 232.194 513.176 232.214 514.504C232.194 515.833 233.19 516.672 234.577 516.672C235.925 516.672 236.901 515.833 236.901 514.504C236.901 513.176 235.925 512.356 234.577 512.375ZM235.202 519.875V521.594H242.116V519.875H244.597V527.122H232.741V519.875H235.202ZM235.202 525.11H242.116V523.508H235.202V525.11ZM256.862 510.833V511.946C256.862 513.176 256.862 514.954 256.452 517.161L254.011 516.926C254.323 515.217 254.401 513.928 254.421 512.864H247.722V510.833H256.862ZM252.448 514.934V518.333C254.216 518.264 256.032 518.127 257.702 517.883L257.839 519.68C254.147 520.364 249.968 520.422 246.882 520.442L246.667 518.45C247.663 518.45 248.786 518.45 249.968 518.411V514.934H252.448ZM261.218 509.543V514.954H263.366V517.043H261.218V522.844H258.659V509.543H261.218ZM261.765 525.012V527.004H249.284V521.653H251.784V525.012H261.765ZM279.089 509.543V527.356H276.608V509.543H279.089ZM273.581 511.028V517.883H267.722V521.145C270.427 521.135 272.731 520.979 275.339 520.559L275.554 522.571C272.624 523.079 269.987 523.196 266.745 523.196H265.144V515.911H271.042V513.04H265.124V511.028H273.581ZM286.003 510.188V511.965H293.132V510.188H295.612V517.454H290.808V518.958H297.683V520.95H281.472V518.958H288.308V517.454H283.542V510.188H286.003ZM286.003 515.461H293.132V513.879H286.003V515.461ZM295.847 525.012V527.004H283.425V521.965H285.925V525.012H295.847ZM315.007 519.797V521.75H308.054V527.317H305.593V521.75H298.737V519.797H315.007ZM303.112 510.227V512.278H310.573V510.227H313.073V518.079H300.651V510.227H303.112ZM303.112 516.086H310.573V514.231H303.112V516.086Z" fill="white"/>
<line x1="106.743" y1="364.347" x2="106.743" y2="404.347" stroke="#7C7C7C" stroke-width="0.885833"/>
<rect x="1.29999" y="404.347" width="210" height="52.3467" rx="4" fill="#EFEFEF"/>
<path d="M72.9172 422.969V431.543H64.2258V422.969H72.9172ZM66.6867 424.942V429.571H70.4367V424.942H66.6867ZM78.2101 421.563V434.2H75.7101V421.563H78.2101ZM78.6789 436.915V438.926H66.2961V433.028H68.8156V436.915H78.6789ZM87.175 426.387C87.1555 429.102 88.6008 432.227 91.5305 433.575L90.1437 435.528C88.1613 434.62 86.7453 432.803 85.9641 430.665C85.1633 433.018 83.7082 435.01 81.6476 435.977L80.2023 434.004C83.1711 432.618 84.6555 429.317 84.675 426.387V425.293H80.9055V423.262H90.7492V425.293H87.175V426.387ZM94.6359 421.543V428.321H97.2531V430.411H94.6359V439.317H92.1359V421.543H94.6359ZM104.441 425.567C104.421 428.75 105.788 431.973 108.64 433.34L107.136 435.333C105.232 434.395 103.952 432.637 103.21 430.489C102.439 432.793 101.062 434.678 99.05 435.665L97.507 433.653C100.515 432.266 101.941 428.868 101.941 425.567V422.911H104.441V425.567ZM111.921 421.543V428.399H114.538V430.508H111.921V439.317H109.421V421.543H111.921ZM120.144 422.305C122.419 422.286 124.226 423.584 124.714 425.489H127.683V421.543H130.163V431.094H127.683V427.481H124.734C124.265 429.434 122.439 430.762 120.144 430.762C117.409 430.762 115.398 428.985 115.417 426.504C115.398 424.063 117.409 422.286 120.144 422.305ZM120.144 424.375C118.757 424.356 117.761 425.176 117.78 426.504C117.761 427.833 118.757 428.672 120.144 428.672C121.491 428.672 122.468 427.833 122.468 426.504C122.468 425.176 121.491 424.356 120.144 424.375ZM120.769 431.875V433.594H127.683V431.875H130.163V439.122H118.308V431.875H120.769ZM120.769 437.11H127.683V435.508H120.769V437.11ZM142.058 422.559V424.551H135.945V425.938H141.53V427.852H135.945V429.317C139.07 429.307 141.052 429.258 143.308 428.887L143.562 430.821C141.023 431.25 138.777 431.29 134.968 431.29H133.445V422.559H142.058ZM147.351 421.563V432.11H144.851V421.563H147.351ZM147.351 432.833V439.122H135.437V432.833H147.351ZM137.898 434.766V437.129H144.909V434.766H137.898Z" fill="#7C7C7C"/>
<line x1="530.443" y1="212.347" x2="530.443" y2="492.347" stroke="#7C7C7C" stroke-width="0.885833"/>
<rect x="425" y="492.347" width="210" height="52.3467" rx="4" fill="#006028"/>
<path d="M494.738 518.352V520.344H478.527V518.352H494.738ZM492.766 521.692V527.317H490.285V523.645H480.324V521.692H492.766ZM487.844 509.602V511.204H493.176V513.137H488.039C488.322 514.417 490.129 515.579 494.016 515.813L493.254 517.708C489.992 517.473 487.727 516.516 486.613 515.071C485.49 516.516 483.225 517.473 479.973 517.708L479.211 515.813C483.078 515.579 484.885 514.417 485.188 513.137H480.09V511.204H485.383V509.602H487.844ZM512.316 511.926V513.997H509.914V515.696H512.316V517.747H509.914V520.286H507.414V509.563H509.914V511.926H512.316ZM504.602 510.618V515.911H498.938V517.473C501.877 517.454 503.869 517.336 506.125 516.946L506.398 518.938C503.84 519.407 501.555 519.504 497.961 519.504H496.457V514.036H502.18V512.571H496.438V510.618H504.602ZM504.055 520.559C507.746 520.559 510.09 521.848 510.09 523.977C510.09 526.086 507.746 527.297 504.055 527.297C500.285 527.297 497.961 526.086 497.961 523.977C497.961 521.848 500.285 520.559 504.055 520.559ZM504.055 522.493C501.691 522.493 500.402 522.981 500.422 523.977C500.402 524.934 501.691 525.442 504.055 525.442C506.398 525.442 507.629 524.934 507.629 523.977C507.629 522.981 506.398 522.493 504.055 522.493ZM519.641 513.567C519.621 516.75 520.988 519.973 523.84 521.34L522.336 523.333C520.432 522.395 519.152 520.637 518.41 518.489C517.639 520.793 516.262 522.678 514.25 523.665L512.707 521.653C515.715 520.266 517.141 516.868 517.141 513.567V510.911H519.641V513.567ZM527.121 509.543V516.399H529.738V518.508H527.121V527.317H524.621V509.543H527.121ZM535.344 510.305C537.619 510.286 539.426 511.584 539.914 513.489H542.883V509.543H545.363V519.094H542.883V515.481H539.934C539.465 517.434 537.639 518.762 535.344 518.762C532.609 518.762 530.598 516.985 530.617 514.504C530.598 512.063 532.609 510.286 535.344 510.305ZM535.344 512.375C533.957 512.356 532.961 513.176 532.98 514.504C532.961 515.833 533.957 516.672 535.344 516.672C536.691 516.672 537.668 515.833 537.668 514.504C537.668 513.176 536.691 512.356 535.344 512.375ZM535.969 519.875V521.594H542.883V519.875H545.363V527.122H533.508V519.875H535.969ZM535.969 525.11H542.883V523.508H535.969V525.11ZM552.199 510.188V511.965H559.328V510.188H561.809V517.454H557.004V518.958H563.879V520.95H547.668V518.958H554.504V517.454H549.738V510.188H552.199ZM552.199 515.461H559.328V513.879H552.199V515.461ZM562.043 525.012V527.004H549.621V521.965H552.121V525.012H562.043ZM581.203 519.797V521.75H574.25V527.317H571.789V521.75H564.934V519.797H581.203ZM569.309 510.227V512.278H576.77V510.227H579.27V518.079H566.848V510.227H569.309ZM569.309 516.086H576.77V514.231H569.309V516.086Z" fill="white"/>
<line x1="814.11" y1="212.347" x2="814.11" y2="492.347" stroke="#7C7C7C" stroke-width="0.885833"/>
<rect x="708.667" y="492.347" width="210" height="52.3467" rx="4" fill="#006028"/>
<path d="M776.686 517.493V519.465H771.53V523.254H778.464V525.286H762.194V523.254H769.05V519.465H764.108V510.793H776.55V512.786H766.608V517.493H776.686ZM795.749 523.293V525.344H779.479V523.293H786.335V520.618H781.354V514.641H791.413V512.688H781.335V510.696H793.874V516.594H783.854V518.586H794.284V520.618H788.815V523.293H795.749ZM803.307 513.567C803.288 516.75 804.655 519.973 807.507 521.34L806.003 523.333C804.098 522.395 802.819 520.637 802.077 518.489C801.305 520.793 799.928 522.678 797.917 523.665L796.374 521.653C799.382 520.266 800.807 516.868 800.807 513.567V510.911H803.307V513.567ZM810.788 509.543V516.399H813.405V518.508H810.788V527.317H808.288V509.543H810.788ZM819.01 510.305C821.286 510.286 823.093 511.584 823.581 513.489H826.55V509.543H829.03V519.094H826.55V515.481H823.6C823.132 517.434 821.305 518.762 819.01 518.762C816.276 518.762 814.264 516.985 814.284 514.504C814.264 512.063 816.276 510.286 819.01 510.305ZM819.01 512.375C817.624 512.356 816.628 513.176 816.647 514.504C816.628 515.833 817.624 516.672 819.01 516.672C820.358 516.672 821.335 515.833 821.335 514.504C821.335 513.176 820.358 512.356 819.01 512.375ZM819.635 519.875V521.594H826.55V519.875H829.03V527.122H817.175V519.875H819.635ZM819.635 525.11H826.55V523.508H819.635V525.11ZM835.866 510.188V511.965H842.995V510.188H845.475V517.454H840.671V518.958H847.546V520.95H831.335V518.958H838.171V517.454H833.405V510.188H835.866ZM835.866 515.461H842.995V513.879H835.866V515.461ZM845.71 525.012V527.004H833.288V521.965H835.788V525.012H845.71ZM864.87 519.797V521.75H857.917V527.317H855.456V521.75H848.6V519.797H864.87ZM852.975 510.227V512.278H860.436V510.227H862.936V518.079H850.514V510.227H852.975ZM852.975 516.086H860.436V514.231H852.975V516.086Z" fill="white"/>
<line x1="1098.11" y1="212.347" x2="1098.11" y2="492.347" stroke="#7C7C7C" stroke-width="0.885833"/>
<rect x="992.667" y="492.347" width="210" height="52.3467" rx="4" fill="#006028"/>
<path d="M1061.17 509.563V519.797H1058.69V518.059H1054.69V516.067H1058.69V514.368H1054.87C1053.76 517.18 1051.24 519.114 1047.33 520.188L1046.35 518.215C1050.44 517.141 1052.44 515.188 1052.8 512.747H1047.31V510.754H1055.51C1055.51 511.331 1055.47 511.887 1055.39 512.415H1058.69V509.563H1061.17ZM1055.26 520.012C1058.87 520.012 1061.29 521.399 1061.31 523.606C1061.29 525.833 1058.87 527.239 1055.26 527.239C1051.6 527.239 1049.16 525.833 1049.18 523.606C1049.16 521.399 1051.6 520.012 1055.26 520.012ZM1055.26 521.965C1053.01 521.946 1051.66 522.512 1051.66 523.606C1051.66 524.7 1053.01 525.266 1055.26 525.266C1057.46 525.266 1058.81 524.7 1058.81 523.606C1058.81 522.512 1057.46 521.946 1055.26 521.965ZM1068.44 510.5C1069.86 510.5 1071.1 511.018 1071.96 511.887H1075.98V509.543H1078.46V519.954H1075.98V517.825H1071.94C1071.08 518.684 1069.85 519.202 1068.44 519.192C1065.74 519.211 1063.69 517.356 1063.71 514.856C1063.69 512.317 1065.74 510.5 1068.44 510.5ZM1068.44 512.629C1067.05 512.629 1066.06 513.45 1066.08 514.856C1066.06 516.223 1067.05 517.102 1068.44 517.083C1069.79 517.102 1070.76 516.223 1070.76 514.856C1070.76 513.45 1069.79 512.629 1068.44 512.629ZM1072.39 520.325C1076.16 520.325 1078.5 521.614 1078.52 523.821C1078.5 526.028 1076.16 527.317 1072.39 527.317C1068.64 527.317 1066.27 526.028 1066.27 523.821C1066.27 521.614 1068.64 520.325 1072.39 520.325ZM1072.39 522.219C1070.02 522.219 1068.71 522.747 1068.71 523.821C1068.71 524.856 1070.02 525.383 1072.39 525.383C1074.79 525.383 1076.08 524.856 1076.08 523.821C1076.08 522.747 1074.79 522.219 1072.39 522.219ZM1073.03 513.86C1073.09 514.172 1073.13 514.514 1073.13 514.856C1073.13 515.198 1073.09 515.52 1073.03 515.833H1075.98V513.86H1073.03ZM1087.66 514.387C1087.66 517.258 1089.12 520.325 1092.11 521.575L1090.76 523.528C1088.66 522.639 1087.22 520.872 1086.43 518.704C1085.62 521.057 1084.14 523.01 1082.05 523.977L1080.63 522.004C1083.58 520.696 1085.1 517.395 1085.1 514.387V513.293H1081.33V511.262H1091.37V513.293H1087.66V514.387ZM1095.65 509.543V527.317H1093.13V509.543H1095.65ZM1113.11 509.563V522.981H1110.61V521.575H1107.21V519.875H1110.61V509.563H1113.11ZM1113.5 525.012V527.004H1100.26V521.692H1102.74V519.329C1101.15 519.397 1099.63 519.407 1098.28 519.407L1097.99 517.434C1101.25 517.415 1105.65 517.375 1109.4 516.907L1109.53 518.684C1108.13 518.918 1106.67 519.084 1105.24 519.192V522.571H1102.74V525.012H1113.5ZM1103.77 510.168C1106.35 510.149 1108.21 511.458 1108.21 513.352C1108.21 515.247 1106.35 516.477 1103.77 516.477C1101.14 516.477 1099.3 515.247 1099.3 513.352C1099.3 511.458 1101.12 510.149 1103.77 510.168ZM1103.77 511.985C1102.5 511.985 1101.64 512.473 1101.66 513.352C1101.64 514.211 1102.5 514.68 1103.77 514.68C1104.96 514.68 1105.82 514.211 1105.84 513.352C1105.82 512.473 1104.96 511.985 1103.77 511.985ZM1119.87 510.188V511.965H1126.99V510.188H1129.48V517.454H1124.67V518.958H1131.55V520.95H1115.33V518.958H1122.17V517.454H1117.41V510.188H1119.87ZM1119.87 515.461H1126.99V513.879H1119.87V515.461ZM1129.71 525.012V527.004H1117.29V521.965H1119.79V525.012H1129.71ZM1148.87 519.797V521.75H1141.92V527.317H1139.46V521.75H1132.6V519.797H1148.87ZM1136.98 510.227V512.278H1144.44V510.227H1146.94V518.079H1134.51V510.227H1136.98ZM1136.98 516.086H1144.44V514.231H1136.98V516.086Z" fill="white"/>
</svg>
